<?xml version="1.0" encoding="UTF-8"?>
<svg width="1680px" height="369px" viewBox="0 0 1680 369" version="1.1" xmlns="http://www.w3.org/2000/svg" xmlns:xlink="http://www.w3.org/1999/xlink">
    <!-- Generator: Sketch 45.2 (43514) - http://www.bohemiancoding.com/sketch -->
    <title>clouds</title>
    <desc>Created with Sketch.</desc>
    <defs></defs>
    <g id="Page-1" stroke="none" stroke-width="1" fill="none" fill-rule="evenodd">
        <g id="clouds" fill="#FFFFFF">
            <g id="Group-8" transform="translate(831.500000, 75.500000) scale(-1, 1) translate(-831.500000, -75.500000) translate(-71.000000, -140.000000)">
                <g id="Group-2" transform="translate(0.000000, 88.000000)">
                    <ellipse id="Oval-3" cx="99.2275641" cy="138.733668" rx="99.2275641" ry="99.2663317"></ellipse>
                    <ellipse id="Oval-3-Copy" cx="273.772436" cy="132.753769" rx="99.2275641" ry="99.2663317"></ellipse>
                    <ellipse id="Oval-3-Copy-2" cx="186.322541" cy="69.1893059" rx="69.1622847" ry="69.1893059"></ellipse>
                </g>
                <g id="Group-2-Copy-2" transform="translate(1043.000000, 46.000000)">
                    <ellipse id="Oval-3" cx="77.4307696" cy="108.397048" rx="77.4307696" ry="77.5599568"></ellipse>
                    <ellipse id="Oval-3-Copy" cx="213.634292" cy="103.724762" rx="77.4307696" ry="77.5599568"></ellipse>
                    <ellipse id="Oval-3-Copy-2" cx="145.394053" cy="54.0598155" rx="53.9697711" ry="54.0598155"></ellipse>
                </g>
                <g id="Group-2-Copy-5" transform="translate(1545.500000, 238.000000) scale(-1, 1) translate(-1545.500000, -238.000000) translate(1286.000000, 46.000000)">
                    <ellipse id="Oval-3" cx="172.665224" cy="211.275701" rx="171.740306" ry="171.799065"></ellipse>
                    <ellipse id="Oval-3-Copy" cx="419.74424" cy="132.785047" rx="99.2557604" ry="99.2897196"></ellipse>
                    <ellipse id="Oval-3-Copy-2" cx="332.269495" cy="69.2056075" rx="69.1819376" ry="69.2056075"></ellipse>
                </g>
                <g id="Group-2-Copy-3" transform="translate(521.000000, 175.000000) scale(-1, 1) translate(-521.000000, -175.000000) translate(285.000000, 24.000000)">
                    <ellipse id="Oval-3" cx="125.417578" cy="175.792283" rx="125.417578" ry="125.782409"></ellipse>
                    <ellipse id="Oval-3-Copy" cx="346.031631" cy="168.215029" rx="125.417578" ry="125.782409"></ellipse>
                    <ellipse id="Oval-3-Copy-2" cx="235.500307" cy="87.6711917" rx="87.4169018" ry="87.6711917"></ellipse>
                </g>
                <g id="Group-2-Copy-4" transform="translate(888.000000, 207.000000) rotate(-195.000000) translate(-888.000000, -207.000000) translate(652.000000, 56.000000)">
                    <ellipse id="Oval-3" cx="125.417578" cy="175.792283" rx="125.417578" ry="125.782409"></ellipse>
                    <ellipse id="Oval-3-Copy" cx="346.031631" cy="168.215029" rx="125.417578" ry="125.782409"></ellipse>
                    <ellipse id="Oval-3-Copy-2" cx="235.500307" cy="87.6711917" rx="87.4169018" ry="87.6711917"></ellipse>
                </g>
            </g>
        </g>
    </g>
</svg>