<?xml version="1.0" encoding="UTF-8"?>
<svg width="30px" height="30px" viewBox="0 0 30 30" version="1.1" xmlns="http://www.w3.org/2000/svg" xmlns:xlink="http://www.w3.org/1999/xlink">
    <!-- Generator: Sketch 45.1 (43504) - http://www.bohemiancoding.com/sketch -->
    <title>icon-love</title>
    <desc>Created with Sketch.</desc>
    <defs></defs>
    <g id="Page-1" stroke="none" stroke-width="1" fill="none" fill-rule="evenodd">
        <g id="icon-love" fill-rule="nonzero" fill="#96CC72">
            <path d="M14.9942292,5.06815641 L14.2871225,4.36104963 L15.7052213,4.35716439 L15.0019997,5.06815641 L14.2693091,4.38759452 C14.5200521,4.11995933 14.7539007,3.89584876 14.9981145,3.68547541 C16.617017,2.29090265 18.6914134,1.5 20.8907783,1.5 C25.8809199,1.5 29.9262289,5.54530904 29.9262289,10.5354506 C29.9262289,12.7261973 29.1415124,14.7929531 27.7571195,16.4090626 C27.6109164,16.5797368 27.458025,16.745385 27.2986634,16.9056223 C27.1897848,17.0140991 27.1148783,17.0861004 27.0386344,17.1569198 L26.3580725,16.4242292 L27.0651793,15.7171224 L27.7761713,16.4281144 L14.9981145,29.2061713 L2.22005765,16.4281144 L2.93104968,15.7171224 L3.63815646,16.4242292 L2.95759457,17.1569198 C2.88135069,17.0861004 2.80644421,17.0140991 2.73289618,16.9409529 C2.53820391,16.745385 2.38531259,16.5797368 2.2391095,16.4090626 C0.85471658,14.7929531 0.0700000525,12.7261973 0.0700000525,10.5354506 C0.0700000525,5.54530904 4.11530909,1.5 9.10545068,1.5 C11.3048155,1.5 13.379212,2.29090265 14.9981145,3.68547541 C15.2423283,3.89584876 15.4761768,4.11995933 15.6985254,4.35716439 C15.7079523,4.36723808 15.4731869,4.60423542 14.9942292,5.06815641 Z M14.2615386,5.7487183 C12.9378637,4.32365446 11.0888594,3.5 9.10545068,3.5 C5.21987859,3.5 2.07000005,6.64987854 2.07000005,10.5354506 C2.07000005,12.5188594 2.89365451,14.3678637 4.31871835,15.6915386 L5.07893297,16.3976662 L14.9981145,26.3777441 L24.9477442,16.4281144 L25.6775106,15.6915386 C27.1025744,14.3678637 27.9262289,12.5188594 27.9262289,10.5354506 C27.9262289,6.64987854 24.7763504,3.5 20.8907783,3.5 C18.9073695,3.5 17.0583652,4.32365446 15.7346903,5.7487183 L15.0285627,6.50893292 L14.2615386,5.7487183 Z" id="Combined-Shape"></path>
        </g>
    </g>
</svg>