<?xml version="1.0" encoding="UTF-8"?>
<svg width="30px" height="30px" viewBox="0 0 30 30" version="1.1" xmlns="http://www.w3.org/2000/svg" xmlns:xlink="http://www.w3.org/1999/xlink">
    <!-- Generator: Sketch 45.1 (43504) - http://www.bohemiancoding.com/sketch -->
    <title>icon-angellist</title>
    <desc>Created with Sketch.</desc>
    <defs></defs>
    <g id="Page-1" stroke="none" stroke-width="1" fill="none" fill-rule="evenodd">
        <g id="icon-angellist" fill-rule="nonzero" fill="#6CABD1">
            <path d="M18.6160714,8.0625 L17.0892857,12.4553571 L18.65625,12.7366071 C20.1294643,8.70982143 20.8660714,6.39732143 20.8660714,5.79910714 C20.8660714,5.29910714 20.6964286,5.04910714 20.3571429,5.04910714 C19.8482143,5.04910714 19.2678571,6.05357143 18.6160714,8.0625 Z M14.6116071,17.2633929 L15.0535714,18.4419643 C15.3839286,18.0669643 15.7008929,17.7678571 16.0044643,17.5446429 L15.5625,17.4709821 L15.046875,17.3772321 L14.6116071,17.2633929 Z M10.7008929,5.26339286 C10.7008929,6.13839286 11.4107143,8.46428571 12.8303571,12.2410714 C12.9910714,12.1517857 13.2098214,12.1071429 13.4866071,12.1071429 C13.6205357,12.1071429 13.9553571,12.1294643 14.4910714,12.1741071 L12.8705357,7.47321429 C12.2008929,5.50892857 11.6517857,4.52678571 11.2232143,4.52678571 C11.0535714,4.52678571 10.9241071,4.60491071 10.8348214,4.76116071 C10.7455357,4.91741071 10.7008929,5.08482143 10.7008929,5.26339286 Z M9.64285714,15.4285714 C9.64285714,15.75 9.87276786,16.28125 10.3325893,17.0223214 C10.7924107,17.7633929 11.3169643,18.4464286 11.90625,19.0714286 C12.4955357,19.6964286 12.9419643,20.0089286 13.2455357,20.0089286 C13.3705357,20.0089286 13.484375,19.9508929 13.5870536,19.8348214 C13.6897321,19.71875 13.7410714,19.5982143 13.7410714,19.4732143 C13.7410714,19.2589286 13.5982143,18.8035714 13.3125,18.1071429 C13.1964286,17.8214286 13.0535714,17.5 12.8839286,17.1428571 C12.7142857,16.7857143 12.5022321,16.3883929 12.2477679,15.9508929 C11.9933036,15.5133929 11.71875,15.1517857 11.4241071,14.8660714 C11.1294643,14.5803571 10.8526786,14.4375 10.59375,14.4375 C10.4151786,14.4375 10.2120536,14.5580357 9.984375,14.7991071 C9.75669643,15.0401786 9.64285714,15.25 9.64285714,15.4285714 Z M7.52678571,19.9151786 C7.52678571,20.28125 7.63839286,20.7455357 7.86160714,21.3080357 C8.38839286,22.6026786 9.20758929,23.6160714 10.3191964,24.3482143 C11.4308036,25.0803571 12.6875,25.4464286 14.0892857,25.4464286 C16.1160714,25.4464286 17.8214286,24.6875 19.2053571,23.1696429 C20.5625,21.6607143 21.2410714,19.7544643 21.2410714,17.4508929 C21.2410714,17.0669643 21.2366071,16.7678571 21.2276786,16.5535714 C21.21875,16.3392857 21.1674107,16.0625 21.0736607,15.7232143 C20.9799107,15.3839286 20.84375,15.1339286 20.6651786,14.9732143 C20.1651786,14.5357143 19.2209821,14.1986607 17.8325893,13.9620536 C16.4441964,13.7254464 15.2366071,13.6071429 14.2098214,13.6071429 C13.8794643,13.6071429 13.6607143,13.65625 13.5535714,13.7544643 C13.4464286,13.7991071 13.3928571,13.9553571 13.3928571,14.2232143 C13.3928571,14.5267857 13.4888393,14.7946429 13.6808036,15.0267857 C13.8727679,15.2589286 14.1205357,15.4375 14.4241071,15.5625 C14.7276786,15.6875 15.0736607,15.7924107 15.4620536,15.8772321 C15.8504464,15.9620536 16.2410714,16.0133929 16.6339286,16.03125 C17.0267857,16.0491071 17.40625,16.0669643 17.7723214,16.0848214 C18.1383929,16.1026786 18.4508929,16.1026786 18.7098214,16.0848214 L19.0178571,16.0848214 C19.2321429,16.0848214 19.4107143,16.1696429 19.5535714,16.3392857 C19.6875,16.5089286 19.7723214,16.7544643 19.8080357,17.0758929 C19.5580357,17.3258929 19.1294643,17.5669643 18.5223214,17.7991071 C17.9776786,17.9955357 17.5625,18.2008929 17.2767857,18.4151786 C16.7053571,18.8258929 16.2209821,19.3348214 15.8236607,19.9419643 C15.4263393,20.5491071 15.2276786,21.1607143 15.2276786,21.7767857 C15.2276786,22.0535714 15.3102679,22.4486607 15.4754464,22.9620536 C15.640625,23.4754464 15.7232143,23.8660714 15.7232143,24.1339286 L15.6830357,24.2946429 C15.6473214,24.4017857 15.6294643,24.4642857 15.6294643,24.4821429 C14.40625,24.3928571 13.7544643,23.4285714 13.6741071,21.5892857 C13.6026786,21.6071429 13.4196429,21.6160714 13.125,21.6160714 C13.1428571,21.6785714 13.1517857,21.7723214 13.1517857,21.8973214 C13.1517857,22.3705357 12.9709821,22.7700893 12.609375,23.0959821 C12.2477679,23.421875 11.8258929,23.5848214 11.34375,23.5848214 C10.6116071,23.5848214 9.86830357,23.2366071 9.11383929,22.5401786 C8.359375,21.84375 7.98214286,21.1339286 7.98214286,20.4107143 C7.98214286,20.1071429 8.12946429,19.8080357 8.42410714,19.5133929 C8.88839286,20.0848214 9.15625,20.4241071 9.22767857,20.53125 C9.91517857,21.4598214 10.5089286,21.9241071 11.0089286,21.9241071 C11.1160714,21.9241071 11.234375,21.8861607 11.3638393,21.8102679 C11.4933036,21.734375 11.5580357,21.6428571 11.5580357,21.5357143 C11.5580357,21.2321429 11.1674107,20.5848214 10.3861607,19.59375 C9.60491071,18.6026786 9.08482143,18.1071429 8.82589286,18.1071429 C8.44196429,18.1071429 8.12946429,18.3058036 7.88839286,18.703125 C7.64732143,19.1004464 7.52678571,19.5044643 7.52678571,19.9151786 Z M6,20.0357143 C6,19.1339286 6.18973214,18.40625 6.56919643,17.8526786 C6.94866071,17.2991071 7.55803571,16.90625 8.39732143,16.6741071 C8.14732143,16.0133929 8.02232143,15.5491071 8.02232143,15.28125 C8.02232143,14.7276786 8.29464286,14.1785714 8.83928571,13.6339286 C9.38392857,13.0892857 9.92857143,12.8169643 10.4732143,12.8169643 C10.7321429,12.8169643 11.0446429,12.8839286 11.4107143,13.0178571 C9.95535714,8.89285714 9.22767857,6.36160714 9.22767857,5.42410714 C9.22767857,4.70982143 9.41071429,4.12723214 9.77678571,3.67633929 C10.1428571,3.22544643 10.6741071,3 11.3705357,3 C12.5401786,3 13.9910714,5.59375 15.7232143,10.78125 C15.7767857,10.9330357 15.8125,11.0357143 15.8303571,11.0892857 C15.8839286,10.9464286 16.0133929,10.5915179 16.21875,10.0245536 C16.4241071,9.45758929 16.6183036,8.92857143 16.8013393,8.4375 C16.984375,7.94642857 17.2254464,7.37723214 17.5245536,6.72991071 C17.8236607,6.08258929 18.1116071,5.53348214 18.3883929,5.08258929 C18.6651786,4.63169643 18.9799107,4.24553571 19.3325893,3.92410714 C19.6852679,3.60267857 20.0267857,3.44196429 20.3571429,3.44196429 C20.9910714,3.44196429 21.4910714,3.66071429 21.8571429,4.09821429 C22.2232143,4.53571429 22.40625,5.08035714 22.40625,5.73214286 C22.40625,6.69642857 21.6964286,9.15178571 20.2767857,13.0982143 C20.8214286,13.2321429 21.2700893,13.4375 21.6227679,13.7142857 C21.9754464,13.9910714 22.2366071,14.3392857 22.40625,14.7589286 C22.5758929,15.1785714 22.6919643,15.5959821 22.7544643,16.0111607 C22.8169643,16.4263393 22.8482143,16.9196429 22.8482143,17.4910714 C22.8482143,18.8303571 22.6383929,20.0803571 22.21875,21.2410714 C21.7991071,22.4017857 21.2098214,23.40625 20.4508929,24.2544643 C19.6919643,25.1026786 18.75,25.7723214 17.625,26.2633929 C16.5,26.7544643 15.2589286,27 13.9017857,27 C12.9107143,27 11.9151786,26.8125 10.9151786,26.4375 C9.58482143,25.9285714 8.43303571,25.0736607 7.45982143,23.8727679 C6.48660714,22.671875 6,21.3928571 6,20.0357143 Z" id="Shape-Copy"></path>
        </g>
    </g>
</svg>