<?xml version="1.0" encoding="UTF-8"?>
<svg width="30px" height="30px" viewBox="0 0 30 30" version="1.1" xmlns="http://www.w3.org/2000/svg" xmlns:xlink="http://www.w3.org/1999/xlink">
    <!-- Generator: Sketch 45.1 (43504) - http://www.bohemiancoding.com/sketch -->
    <title>icon-texas</title>
    <desc>Created with Sketch.</desc>
    <defs></defs>
    <g id="Page-1" stroke="none" stroke-width="1" fill="none" fill-rule="evenodd">
        <g id="icon-texas" fill-rule="nonzero" fill="#4796c6">
            <g id="Shape">
                <path d="M27.9206092,12.4377522 L27.9206092,7.25535542 L24.8183192,6.21887608 L16.5455462,6.21887608 L14.4773529,5.18239673 L14.4773529,0 L7.23867645,0 L7.23867645,11.4012728 L0,11.4012728 L1.03409664,14.5107108 L3.1022899,15.5471902 L4.13638654,18.6566282 L6.20457981,20.7295869 L7.23867645,20.7295869 L9.30686972,18.6566282 L12.4091596,18.6566282 L16.5455462,24.8755043 L17.5796428,27.9849423 L21.7160294,29.0214217 L21.7160294,24.8755043 L22.750126,22.8025456 L26.8865125,19.6931076 L27.9206092,17.6201489 L29.9888024,17.6201489 L29.9888024,13.4742315 L27.9206092,12.4377522 Z M28.9547058,16.5836695 L27.2815375,16.5836695 L26.0706103,19.0111042 L21.9342237,22.1205422 L20.6819327,24.6308952 L20.6819327,27.6936917 L18.3810677,27.1174091 L17.4824377,24.416344 L12.9624014,17.6201489 L8.87875371,17.6201489 L6.81056044,19.6931076 L6.63269582,19.6931076 L5.040187,18.0969294 L3.94714686,14.8123263 L1.87895358,13.7758469 L1.43429203,12.4377522 L8.27277308,12.4377522 L8.27277308,1.03647934 L13.4432562,1.03647934 L13.4432562,5.82294096 L16.3014993,7.25535542 L24.6507956,7.25535542 L26.8865125,8.00265703 L26.8865125,13.0782964 L28.9547058,14.1147758 L28.9547058,16.5836695 Z"></path>
            </g>
        </g>
    </g>
</svg>