<?xml version="1.0" encoding="UTF-8"?>
<svg width="30px" height="30px" viewBox="0 0 30 30" version="1.1" xmlns="http://www.w3.org/2000/svg" xmlns:xlink="http://www.w3.org/1999/xlink">
    <!-- Generator: Sketch 45.1 (43504) - http://www.bohemiancoding.com/sketch -->
    <title>icon-instagram</title>
    <desc>Created with Sketch.</desc>
    <defs></defs>
    <g id="Page-1" stroke="none" stroke-width="1" fill="none" fill-rule="evenodd">
        <g id="icon-instagram" fill="#6CABD1">
            <path d="M24.1472056,3 L5.85279437,3 C4.2771459,3 3,4.27387284 3,5.84624826 L3,24.1537517 C3,25.7254725 4.2771459,27 5.85279437,27 L24.1472056,27 C25.7228541,27 27,25.7254725 27,24.1537517 L27,5.84624826 C27,4.27387284 25.7228541,3 24.1472056,3 L24.1472056,3 Z M20.2503068,6.74961132 C20.2503068,6.33589723 20.5861222,6.00008183 20.9998363,6.00008183 L23.2497341,6.00008183 C23.6641028,6.00008183 23.9999182,6.33589723 23.9999182,6.74961132 L23.9999182,9.00016365 C23.9999182,9.41387775 23.6641028,9.74969315 23.2497341,9.74969315 L20.9998363,9.74969315 C20.5861222,9.74969315 20.2503068,9.41387775 20.2503068,9.00016365 L20.2503068,6.74961132 L20.2503068,6.74961132 Z M15.027821,10.4232878 C17.5768759,10.4232878 19.6434825,12.4853122 19.6434825,15.027821 C19.6434825,17.5709844 17.5768759,19.6323541 15.027821,19.6323541 C12.4794207,19.6323541 10.412814,17.5709844 10.412814,15.027821 C10.412814,12.4853122 12.4794207,10.4232878 15.027821,10.4232878 L15.027821,10.4232878 Z M24.7501023,23.9999182 C24.7501023,24.4136323 24.4142869,24.7501023 23.9999182,24.7501023 L6.00008183,24.7501023 C5.58571312,24.7501023 5.24989772,24.4136323 5.24989772,23.9999182 L5.24989772,12.749775 L8.24997954,12.749775 C7.85917683,13.3120858 7.72694542,14.3614271 7.72694542,15.027821 C7.72694542,19.0438589 11.0026184,22.3116766 15.027821,22.3116766 C19.0536781,22.3116766 22.3293511,19.0438589 22.3293511,15.027821 C22.3293511,14.3614271 22.2344325,13.328451 21.7500205,12.749775 L24.7501023,12.749775 L24.7501023,23.9999182 L24.7501023,23.9999182 Z" id="Instagram-Copy"></path>
        </g>
    </g>
</svg>