<?xml version="1.0" encoding="UTF-8"?>
<svg width="30px" height="30px" viewBox="0 0 30 30" version="1.1" xmlns="http://www.w3.org/2000/svg" xmlns:xlink="http://www.w3.org/1999/xlink">
    <!-- Generator: Sketch 45.1 (43504) - http://www.bohemiancoding.com/sketch -->
    <title>icon-facebook</title>
    <desc>Created with Sketch.</desc>
    <defs></defs>
    <g id="Page-1" stroke="none" stroke-width="1" fill="none" fill-rule="evenodd">
        <g id="icon-facebook" fill="#4796c6">
            <path d="M26.9993463,25.6748747 C26.9993463,26.4064066 26.4064066,27 25.6748747,27 L19.5591632,27 L19.5591632,17.7058183 L22.6787971,17.7058183 L23.1462192,14.0841142 L19.5591632,14.0841142 L19.5591632,11.771192 C19.5591632,10.7225975 19.85073,10.0080628 21.3543256,10.0080628 L23.2723905,10.007409 L23.2723905,6.76748747 C22.940292,6.72368708 21.8021355,6.62497276 20.477664,6.62497276 C17.7123556,6.62497276 15.8191327,8.31292221 15.8191327,11.412944 L15.8191327,14.0841142 L12.691654,14.0841142 L12.691654,17.7058183 L15.8191327,17.7058183 L15.8191327,27 L4.32447156,27 C3.59293964,27 3,26.4064066 3,25.6748747 L3,4.3251253 C3,3.59293964 3.59293964,3 4.32447156,3 L25.6748747,3 C26.4064066,3 26.9993463,3.59293964 26.9993463,4.3251253 L26.9993463,25.6748747" id="Facebook-Copy"></path>
        </g>
    </g>
</svg>