<?xml version="1.0" encoding="UTF-8"?>
<svg width="30px" height="30px" viewBox="0 0 30 30" version="1.1" xmlns="http://www.w3.org/2000/svg" xmlns:xlink="http://www.w3.org/1999/xlink">
    <!-- Generator: Sketch 45.1 (43504) - http://www.bohemiancoding.com/sketch -->
    <title>icon-linkedin</title>
    <desc>Created with Sketch.</desc>
    <defs></defs>
    <g id="Page-1" stroke="none" stroke-width="1" fill="none" fill-rule="evenodd">
        <g id="icon-linkedin" fill="#4796c6">
            <path d="M1.66555344,10.6960878 L6.8110687,10.6960878 L6.8110687,27 L1.66555344,27 L1.66555344,10.6960878 Z M20.8699905,10.5393607 C24.5269561,10.5393607 27.4002863,12.884542 27.4002863,17.934876 L27.4002863,27 L21.5656011,27 L21.5656011,18.5632156 C21.5656011,16.3547233 20.6531489,14.8475668 18.6457538,14.8475668 C17.110687,14.8475668 16.2569179,15.8645038 15.8597328,16.8449427 C15.7108779,17.197042 15.7337786,17.6872615 15.7337786,18.1774809 L15.7337786,27 L9.95348282,27 C9.95348282,27 10.0279103,12.055105 9.95348282,10.6960878 L15.7337786,10.6960878 L15.7337786,13.2552481 C16.0751431,12.1359733 17.9222328,10.5393607 20.8699905,10.5393607 Z M4.14312977,3 C6.04174618,3 7.20896947,4.2173187 7.24618321,5.82609733 C7.24618321,7.40625 6.04174618,8.6572042 4.10734733,8.6572042 L4.07013359,8.6572042 C2.20801527,8.6572042 1,7.41054389 1,5.83039122 C1,4.2201813 2.24308206,3 4.14312977,3 Z" id="Fill-88-Copy"></path>
        </g>
    </g>
</svg>