<?xml version="1.0" encoding="UTF-8"?>
<svg width="30px" height="30px" viewBox="0 0 30 30" version="1.1" xmlns="http://www.w3.org/2000/svg" xmlns:xlink="http://www.w3.org/1999/xlink">
    <!-- Generator: Sketch 45.1 (43504) - http://www.bohemiancoding.com/sketch -->
    <title>icon-twitter</title>
    <desc>Created with Sketch.</desc>
    <defs></defs>
    <g id="Page-1" stroke="none" stroke-width="1" fill="none" fill-rule="evenodd">
        <g id="icon-twitter" fill="#4796c6">
            <path d="M28.0055109,3.44368972 C26.8628368,4.13729134 25.6002051,4.64172888 24.2506808,4.91163372 C23.1756752,3.73512544 21.6392938,3 19.9383551,3 C16.6779661,3 14.0319759,5.71288969 14.0319759,9.05863317 C14.0319759,9.53385025 14.0827272,9.99445708 14.1842299,10.4381468 C9.27365352,10.1851591 4.92057287,7.77600846 2.00467784,4.10576399 C1.49562654,5.00390888 1.20495979,6.04584922 1.20495979,7.15545801 C1.20495979,9.25625581 2.24766909,11.1109865 3.83403287,12.1975265 C2.86668162,12.168306 1.9539265,11.8930185 1.15574637,11.4424081 L1.15574637,11.5162283 C1.15574637,14.4528852 3.19272052,16.9027907 5.8979206,17.4572106 C5.40271058,17.5994681 4.87981801,17.6709814 4.34077729,17.6709814 C3.96014226,17.6709814 3.58873474,17.6340713 3.22886162,17.563327 C3.98090417,19.9694018 6.16167377,21.7218609 8.74768511,21.7687674 C6.72609016,23.3943481 4.17698888,24.3632373 1.40950306,24.3632373 C0.93274807,24.3632373 0.461375797,24.3355548 0,24.2801897 C2.61446285,25.9965076 5.72182884,27 9.05757585,27 C19.9268207,27 25.868572,17.7694082 25.868572,9.76223126 C25.868572,9.4984781 25.8639582,9.2354939 25.8539617,8.97712345 C27.0081702,8.12280927 28.0108936,7.05626222 28.7998462,5.84130595 C27.7417577,6.3226747 26.6021595,6.64871359 25.4071962,6.79481593 C26.6275352,6.04584922 27.564128,4.8585755 28.0055109,3.44368972" id="Twitter-Copy"></path>
        </g>
    </g>
</svg>
