<?xml version="1.0" encoding="UTF-8"?>
<svg width="550px" height="350px" viewBox="0 0 550 350" version="1.1" xmlns="http://www.w3.org/2000/svg" xmlns:xlink="http://www.w3.org/1999/xlink">
    <!-- Generator: Sketch 45.1 (43504) - http://www.bohemiancoding.com/sketch -->
    <title>illustration_backed-by-giants</title>
    <desc>Created with Sketch.</desc>
    <defs></defs>
    <g id="Page-1" stroke="none" stroke-width="1" fill="none" fill-rule="evenodd">
        <g id="Pre-Launch" transform="translate(-690.000000, -3478.000000)">
            <g id="illustration_backed-by-giants" transform="translate(690.000000, 3478.000000)">
                <rect id="Rectangle-2-Copy-7" fill="#FFFFFF" x="0" y="0" width="550" height="350"></rect>
                <g id="Backed-by-Insurance-Giants" transform="translate(130.000000, 0.000000)" fill-rule="nonzero" fill="#47535E">
                    <path d="M125.206802,72.5895289 L67.9095476,39.0589963 C67.7436036,38.9803346 67.551076,38.9803346 67.385132,39.0589963 C67.214007,39.124009 67.0817759,39.2632949 67.0258103,39.4374886 L7.02878731,230.86723 C6.94364472,231.132726 7.0521572,231.4219 7.29099508,231.565985 L49.6424061,257.216114 C49.800943,257.310496 49.9936389,257.328326 50.1668216,257.264639 C50.3379466,257.199626 50.4701778,257.06034 50.5261434,256.886147 L63.5685522,215.737244 L119.894666,246.608626 L134.461765,305.57578 C134.500186,305.734988 134.601887,305.871667 134.743395,305.954272 L190.09837,337.922311 C190.190014,337.974515 190.293945,338.001318 190.399423,337.99995 C190.584498,337.999479 190.759073,337.913975 190.87283,337.768085 C190.986586,337.622194 191.026884,337.432128 190.982107,337.252671 L125.488432,72.9389064 C125.443136,72.7905198 125.342238,72.6653512 125.206802,72.5895289 Z M135.530019,305.042008 L120.96292,246.06515 C120.923547,245.90113 120.818118,245.760652 120.671578,245.676953 L63.4714382,214.320324 C63.3173688,214.228507 63.1303559,214.210123 62.9613367,214.270178 C62.7923174,214.330234 62.6588959,214.462475 62.5974123,214.630882 L49.6132719,255.779785 L8.33011477,230.779885 L67.919259,40.485621 L124.381333,73.4823824 L189.447706,336.146309 L135.530019,305.042008 Z" id="Shape"></path>
                    <path d="M289.932093,203.860813 C289.932815,203.637483 289.809537,203.432172 289.611994,203.327712 L265.614287,190.407281 L265.614287,161.222422 C265.613377,161.004639 265.494623,160.804391 265.303888,160.699013 L241.57778,147.536264 C241.393696,147.434488 241.170165,147.434488 240.986082,147.536264 L221.586157,158.566609 C221.166712,158.582395 220.838036,158.932434 220.84896,159.351721 L220.84896,164.595497 L216.571276,162.249853 C216.392299,162.155076 216.177955,162.155076 215.998978,162.249853 L185.317997,39.4621408 C185.277328,39.3014213 185.172024,39.1646282 185.026998,39.0841237 L116.933261,0.080512071 C116.747188,-0.026837357 116.517936,-0.026837357 116.331863,0.080512071 L63.7677658,30.128026 C63.6810373,30.1139144 63.5925954,30.1139144 63.5058669,30.128026 C63.2781305,30.2190496 63.1035461,30.4077453 63.0305687,30.6417416 L0.0487117839,231.901929 C-0.0843100618,232.266891 0.062613827,232.67471 0.397910436,232.871203 L53.5731052,265.303133 C53.7377325,265.396678 53.9306333,265.427656 54.1163031,265.390367 C54.161429,265.395409 54.2069767,265.395409 54.2521026,265.390367 C54.3574006,265.391272 54.4610907,265.364533 54.5528014,265.312825 L98.0668335,240.470316 L113.906872,249.193788 L128.582916,307.922139 C128.636219,308.134067 128.772537,308.315689 128.961214,308.426162 L199.208343,348.893378 C199.332616,348.963559 199.472995,349.000298 199.615742,348.999998 C199.791049,348.999302 199.961339,348.941447 200.10074,348.835221 L200.10074,348.835221 C200.145828,348.840898 200.191451,348.840898 200.236539,348.835221 L254.129531,317.925053 C254.366286,317.793131 254.485456,317.519243 254.42053,317.256254 L238.79389,254.253402 L245.583864,257.956031 C245.702979,258.020437 245.83643,258.053774 245.971863,258.052958 C246.020268,258.057243 246.068957,258.057243 246.117362,258.052958 L246.117362,258.052958 C246.222716,258.054325 246.326525,258.027555 246.418061,257.975416 L265.003189,247.313395 C265.190185,247.205517 265.304954,247.005746 265.303888,246.789987 L265.303888,240.606015 L269.824071,243.087358 C270.071194,243.225455 270.372344,243.225455 270.619467,243.087358 C270.678124,243.043078 270.730354,242.990887 270.774667,242.932274 L289.699294,232.144247 C289.88629,232.036369 290.001058,231.836598 289.999993,231.620839 L289.932093,203.860813 Z M288.350999,204.015897 L270.677667,213.7668 C270.677667,213.7668 270.677667,213.708643 270.600068,213.689258 L247.397757,200.982067 L264.85769,191.405634 L288.350999,204.015897 Z M264.401791,162.443708 L264.401791,190.765913 L246.72846,200.458659 L246.72846,172.669555 C246.731924,172.627624 246.731924,172.58548 246.72846,172.543549 L264.401791,162.443708 Z M241.277081,148.75755 L264.353292,161.542282 L246.214362,171.894135 L223.012051,159.157867 L241.277081,148.75755 Z M216.357877,163.471139 L220.916859,165.98156 L220.916859,185.63845 L198.742745,173.503131 L216.357877,163.471139 Z M116.632562,1.30179812 L183.785403,39.7432305 L131.405605,68.9571682 C131.355361,68.8971686 131.296526,68.8449104 131.231005,68.8020843 L65.1257606,30.7483618 L116.632562,1.30179812 Z M55.1929989,263.577824 L67.7156506,223.837563 L96.8640381,239.820902 L55.1929989,263.577824 Z M130.10581,307.195183 L115.429766,248.457139 C115.375338,248.237662 115.230991,248.051205 115.032068,247.943424 L67.6283509,221.966863 C67.4168307,221.851358 67.1646462,221.836632 66.9411024,221.926734 C66.7175586,222.016836 66.5461767,222.202285 66.4740554,222.432115 L53.5731052,263.354891 L1.81410497,231.785616 L64.2721639,32.115039 L130.14461,70.0524486 L198.412946,346.489577 L130.10581,307.195183 Z M253.140135,317.178712 L200.294739,347.38131 L131.725704,69.7907444 L184.289801,40.4604937 L214.931982,162.84111 L197.28775,172.902181 C197.196629,172.912744 197.108023,172.938978 197.025852,172.979723 C196.778259,173.124868 196.626734,173.390763 196.628153,173.677601 L196.628153,201.534554 C196.62718,201.828897 196.78715,202.100273 197.045251,202.242124 L220.868359,215.337025 L220.868359,243.94032 C220.867386,244.234663 221.027357,244.506039 221.285458,244.64789 L237.329196,253.448904 L253.140135,317.178712 Z M264.071993,246.479819 L246.74786,256.385806 L246.74786,230.428631 L264.071993,239.937215 L264.071993,246.479819 Z M269.377872,241.061574 L246.311361,228.364076 C246.06153,228.226766 245.757652,228.23174 245.512455,228.377155 C245.267259,228.52257 245.117322,228.786732 245.118266,229.071647 L245.118266,255.891476 L222.488253,243.475068 L222.488253,214.871773 C222.489226,214.57743 222.329256,214.306054 222.071155,214.164203 L198.248047,201.069302 L198.248047,175.053971 L221.304858,187.703005 C221.554689,187.840315 221.858568,187.835341 222.103764,187.689926 C222.34896,187.544511 222.498897,187.280349 222.497953,186.995434 L222.497953,160.718399 L245.147366,173.154192 L245.147366,201.069302 C245.14734,201.397623 245.346976,201.693018 245.651764,201.815644 C245.700911,201.864748 245.756361,201.90712 245.816663,201.941649 L269.397272,214.881466 L269.377872,241.061574 Z M270.988066,241.429898 L270.988066,214.503449 L288.738998,204.73316 L288.738998,231.252515 L270.988066,241.429898 Z" id="Shape"></path>
                    <path d="M118.363531,198.826213 C118.123178,198.728846 117.851759,198.74654 117.625967,198.874296 L117.625967,198.874296 L110.57601,202.922901 L105.892004,200.278326 L89.9625495,135.452561 C89.8985819,135.194309 89.6718893,135.009883 89.4069823,135.000579 C89.1411485,134.988764 88.900938,135.158763 88.8226788,135.414095 L73.9947803,182.227894 L62.3661829,175.659729 L68.7839426,171.986173 C69.1367337,171.755784 69.2495679,171.289285 69.0413101,170.922117 C68.8330524,170.554949 68.3758609,170.414332 67.9984854,170.601377 L60.6994811,174.784615 C60.5281567,174.742524 60.3470819,174.783151 60.2099042,174.894459 C60.0727265,175.005767 59.9951775,175.174992 60.0002327,175.351997 L60.0002327,184.593587 C60.0029142,184.715023 60.0430773,184.832629 60.1151776,184.930169 C60.1470911,185.095542 60.248275,185.239161 60.3929613,185.324452 L63.343215,187.04583 C63.3670129,187.235695 63.5262062,187.379126 63.7167861,187.382412 C63.7167861,187.382412 63.793416,187.382412 63.8413098,187.334329 L67.6728081,189.56539 C67.7111817,189.733191 67.8559439,189.854958 68.0272217,189.863505 C68.0272217,189.863505 68.0846941,189.863505 68.1134304,189.863505 L72.0024012,192.094566 C72.0529795,192.238698 72.1856036,192.337608 72.3376573,192.344598 L72.3951297,192.344598 L76.2841005,194.614125 C76.3195898,194.789081 76.4703285,194.916521 76.6480929,194.921858 C76.6480929,194.921858 76.7151441,194.921858 76.7438803,194.921858 L80.6520086,197.201001 C80.7119244,197.274758 80.7975304,197.322887 80.8914773,197.335634 L110.355699,214.501335 C110.435661,214.67201 110.592488,214.793674 110.777164,214.8283 C111.025087,215.033824 111.376175,215.057065 111.64883,214.886 L118.430582,210.827779 C118.663593,210.690884 118.811484,210.44463 118.823311,210.173847 C119.187303,199.182029 118.966992,199.085862 118.363531,198.826213 Z M63.3240575,182.275977 L61.1975759,183.49729 L61.1975759,176.371361 L63.3240575,177.573441 L63.3240575,182.275977 Z M64.1190934,178.025423 L67.4524969,179.94875 L64.1190934,181.872078 L64.1190934,178.025423 Z M63.3240575,184.112755 L63.3240575,185.641801 L62.0021906,184.87247 L63.3240575,184.112755 Z M64.1190934,183.660773 L67.6344931,181.641279 L67.6344931,188.151744 L64.1190934,186.103399 L64.1190934,183.660773 Z M68.429529,181.189297 L68.7647851,180.996964 C68.8581816,180.943629 68.9396849,180.871622 69.0042537,180.785398 L71.9449287,182.477927 L71.9449287,190.690536 L68.429529,188.642192 L68.429529,181.189297 Z M72.7399646,186.891964 C72.7862058,186.99046 72.8592643,187.073809 72.950697,187.13238 L76.2553643,188.959541 L76.2553643,193.181246 L72.7399646,191.132902 L72.7399646,186.891964 Z M74.6557137,184.006972 L76.3224155,184.968636 C76.2637723,185.035254 76.2299243,185.120208 76.2266281,185.209052 L76.2266281,187.613212 L73.9564653,186.324582 L74.6557137,184.006972 Z M105.489696,203.759549 L102.86512,202.307436 L102.86512,199.95136 L104.780869,201.057273 L105.489696,203.759549 Z M102.070084,201.836221 L98.5546845,199.912893 L98.5546845,197.51835 L100.230965,198.480014 L100.230965,198.480014 L102.041348,199.499378 L102.070084,201.836221 Z M84.8283418,189.844272 L84.8283418,192.315748 L81.3129421,190.39242 L81.3129421,187.901711 L84.8283418,189.844272 Z M85.6233777,190.286637 L89.1387774,192.209965 L89.1387774,194.652592 L85.6233777,192.729264 L85.6233777,190.286637 Z M89.9338133,192.690797 L93.449213,194.614125 L93.449213,197.037518 L89.9338133,195.11419 L89.9338133,192.690797 Z M94.2442489,195.094957 L97.7596486,197.018285 L97.7596486,199.412828 L94.2442489,197.4895 L94.2442489,195.094957 Z M79.3205629,184.949403 L94.5316113,176.159795 L99.4359291,196.181637 L79.3205629,184.949403 Z M78.8799406,184.285855 L88.774785,152.743278 L94.3304576,175.351997 L78.8799406,184.285855 Z M77.4048138,185.718734 L80.5466424,187.468962 L80.5466424,189.959672 L77.0312427,188.036344 L77.0312427,185.362918 L77.0312427,185.362918 C77.113,185.519846 77.2444202,185.64502 77.4048138,185.718734 Z M77.0312427,189.39229 L80.5466424,191.315618 L80.5466424,195.662339 L77.0312427,193.613995 L77.0312427,189.39229 Z M81.3416783,191.7676 L84.857078,193.690928 L84.857078,198.172282 L81.3416783,196.123937 L81.3416783,191.7676 Z M85.6521139,194.152526 L89.1675136,196.075854 L89.1675136,200.749541 L85.6521139,198.701197 L85.6521139,194.152526 Z M89.9625495,196.527836 L93.4779492,198.451164 L93.4779492,203.192167 L89.9625495,201.143823 L89.9625495,196.527836 Z M94.2729851,198.903146 L97.7883848,200.826474 L97.7883848,205.70211 L94.2825639,203.634533 L94.2729851,198.903146 Z M98.5834207,201.278456 L102.09882,203.201784 L102.09882,208.202436 L98.5834207,206.154092 L98.5834207,201.278456 Z M102.893856,203.653766 L106.141051,205.461694 C106.223933,205.505002 106.315825,205.528066 106.409256,205.52901 L106.409256,210.741229 L102.893856,208.692885 L102.893856,203.653766 Z M107.204292,202.365136 L109.924656,203.903798 C109.955555,204.12844 110.095532,204.323021 110.298227,204.423097 L110.298227,212.991522 L107.204292,211.193211 L107.204292,202.365136 Z M106.409256,201.913154 L106.409256,202.336286 L106.284732,201.836221 L106.409256,201.913154 Z M89.3111948,137.799021 L104.464771,199.460911 L101.409151,197.739533 C101.415008,197.685197 101.415008,197.630386 101.409151,197.57605 L89.6272934,149.589021 C89.5416069,149.241804 89.236286,148.994223 88.8801512,148.983172 C88.5212586,148.964016 88.1962389,149.194818 88.0946941,149.540938 L77.2707113,184.083905 L75.0580211,182.833742 L89.3111948,137.799021 Z M72.7399646,186.189949 L72.7399646,182.891442 L73.6307879,183.391507 L72.7399646,186.189949 Z M117.242818,209.606465 L111.49557,213.049222 L111.49557,204.230764 L117.386499,200.855324 C117.415235,202.605552 117.348184,206.211792 117.242818,209.606465 L117.242818,209.606465 Z" id="Shape"></path>
                </g>
            </g>
        </g>
    </g>
</svg>