<?xml version="1.0" encoding="UTF-8"?>
<svg width="1400px" height="698px" viewBox="0 0 1400 698" version="1.1" xmlns="http://www.w3.org/2000/svg" xmlns:xlink="http://www.w3.org/1999/xlink">
    <!-- Generator: Sketch 45.2 (43514) - http://www.bohemiancoding.com/sketch -->
    <title>illustration_hero</title>
    <desc>Created with Sketch.</desc>
    <defs></defs>
    <g id="Page-1" stroke="none" stroke-width="1" fill="none" fill-rule="evenodd">
        <g id="Pre-Launch" transform="translate(0.000000, -109.000000)">
            <g id="illustration_hero" transform="translate(0.000000, 109.000000)">
                <rect id="Rectangle-2" fill-opacity="0.01" fill="#F7F9FA" x="0" y="0" width="1400" height="697.117187"></rect>
                <g id="Good-Karma" transform="translate(825.000000, 85.000000)" fill-rule="nonzero" fill="#47535E">
                    <path d="M94.5128418,170.273883 C94.7653192,170.132225 94.9197803,169.864167 94.9153412,169.575369 L94.9153412,131.30573 C94.9153412,131.30573 94.9153412,131.30573 94.9153412,131.30573 C94.9327362,131.212403 94.9327362,131.11668 94.9153412,131.023353 L94.9153412,130.934181 C94.8495094,130.824222 94.7573024,130.732296 94.6470083,130.666665 L72.9418559,118.033968 L102.21996,83.004245 C103.144218,82.840763 104.068475,82.7070051 104.962919,82.6178331 C105.39282,82.5739474 105.752785,82.27391 105.872269,81.8598713 C109.509671,69.598725 123.149928,64.6496805 123.284095,64.6050945 C123.721746,64.4558651 124.01151,64.0405981 123.999649,63.5796168 C123.328817,28.5350314 95.526544,0 61.9998354,0 C27.8172019,0 2.17958442e-05,29.1146492 2.17958442e-05,64.9023344 C-0.0034220999,65.4416653 0.401642005,65.8967761 0.939187042,65.9575361 C1.04353874,65.9575361 11.7321337,67.4437357 16.7708298,81.6220794 C16.9006887,81.9950636 17.2285379,82.2645723 17.6205507,82.3205932 L19.0218449,82.5583851 C19.0397173,82.6998002 19.0964694,82.8335331 19.1858261,82.944797 L48.657726,118.27176 L27.548869,130.622079 L27.548869,130.622079 C27.4385749,130.68771 27.3463678,130.779636 27.2805361,130.889595 L27.2805361,130.978767 C27.2649376,131.06726 27.2649376,131.157788 27.2805361,131.246282 C27.2805361,131.246282 27.2805361,131.246282 27.2805361,131.246282 L27.2805361,169.575369 C27.276097,169.864167 27.4305581,170.132225 27.6830355,170.273883 L60.4792822,188.658171 C60.5360144,188.752383 60.6122466,188.833449 60.7028929,188.895963 C60.8258638,188.964545 60.9644881,189.000376 61.1053923,188.999997 L61.1948366,188.999997 L61.2842809,188.999997 C61.4251852,189.000376 61.5638094,188.964545 61.6867803,188.895963 C61.7774267,188.833449 61.8536589,188.752383 61.9103911,188.658171 L94.5128418,170.273883 Z M44.4836582,122.552015 L59.46558,131.216558 L59.46558,131.216558 L44.5581951,139.806792 L29.6508103,131.30573 L44.4836582,122.552015 Z M51.9075359,2.9723991 C55.0387176,4.23545628 57.8567834,6.16254018 60.1662271,8.6199574 C49.8049018,6.64757661 39.0860158,7.89257656 29.4570143,12.1868363 C36.2021537,7.56609459 43.8542977,4.42540138 51.9075359,2.9723991 L51.9075359,2.9723991 Z M93.3500658,11.5477705 C83.7372303,7.65406346 73.1911694,6.65175072 63.0135376,8.66454339 C65.3874977,6.23776085 68.2196213,4.30323367 71.3467657,2.9723991 C79.1960187,4.28706314 86.6875023,7.20672766 93.3500658,11.5477705 L93.3500658,11.5477705 Z M78.0401815,89.1719731 C82.1098976,41.0042456 68.0373263,17.3439488 63.4011296,10.9830147 C70.1640837,14.5451524 76.2730527,19.2234802 81.46888,24.8195325 C90.726366,34.6581736 102.070886,52.2845002 103.949216,80.5817397 C93.9165464,81.8301473 81.7521204,87.4033957 78.0401815,89.1719731 Z M76.9668498,89.3651791 C59.6146538,82.6624191 47.3309687,87.7452216 43.8873628,89.528661 C39.4151474,36.8577489 58.690396,13.4501059 61.5526139,10.2993629 C64.1017767,13.4946919 81.4837874,36.590233 76.9519424,89.3949031 L76.9668498,89.3651791 Z M76.0276846,91.3269625 L66.6360321,114.437366 L61.3439105,111.316346 C61.094843,111.172985 60.7879792,111.172985 60.5389117,111.316346 L54.5759578,114.838639 L44.7221764,91.5201684 C47.5098573,90.0488309 59.3910431,84.9511664 76.0276846,91.3269625 Z M60.9414111,112.951166 L66.0248293,115.923565 L60.5687265,129.299361 L55.1573458,116.324839 L60.9414111,112.951166 Z M92.5152522,131.290868 L76.817776,140.208066 C76.7912445,140.065243 76.7043478,139.940709 76.5792578,139.86624 L61.6718729,131.23142 L61.8060394,131.0828 L77.1010163,122.314223 L92.5152522,131.290868 Z M67.4112161,116.696389 L70.3926931,118.42038 L63.2520557,126.90658 L67.4112161,116.696389 Z M57.7661381,126.713374 L51.0727223,118.687896 L53.7262368,117.201697 L57.7661381,126.713374 Z M44.901065,141.872609 L60.1364123,150.537153 L60.1364123,186.740974 L44.7967133,178.135878 C44.8541096,178.062812 44.8902135,177.975398 44.901065,177.883224 L44.901065,141.872609 Z M45.5420825,140.38641 L60.1960418,131.97452 C60.3065755,132.031965 60.429174,132.062521 60.5538191,132.063692 L60.5538191,132.063692 C60.652301,132.082556 60.7534848,132.082556 60.8519668,132.063692 L75.9084255,140.772822 L61.0010406,149.244159 L45.5420825,140.38641 Z M93.2457141,169.084923 L61.9103911,186.740974 L61.9103911,150.537153 L93.320251,132.702758 L93.2457141,169.084923 Z M76.0276846,121.704881 L63.7589068,128.749467 L71.7641725,119.222928 L76.0276846,121.704881 Z M71.4063953,117.246283 L68.0224189,115.269637 L77.6525895,91.6985124 C77.7318342,91.7076009 77.8118629,91.7076009 77.8911077,91.6985124 C84.8628626,88.2288622 92.1768005,85.4895058 99.7155191,83.5244148 L71.4063953,117.246283 Z M104.843659,78.6050943 C101.161535,34.3906576 74.5369461,15.9023352 65.0707567,10.7154988 C106.230046,18.6666664 119.452897,54.5732476 121.823171,62.2717612 C121.823171,62.4798292 121.823171,62.6878971 121.823171,62.910827 C119.065305,64.0403387 109.151894,68.6475573 104.843659,78.5010603 L104.843659,78.6050943 Z M121.525023,58.1698505 C116.873919,45.9384282 101.891997,16.2590231 64.2359431,9.49681514 C75.7474528,7.52252067 87.590701,9.40937106 97.9117255,14.8619955 C111.289607,25.5570002 119.79764,41.1611188 121.525023,58.1698505 Z M69.4684352,2.63057321 C66.4403898,4.08845777 63.7497313,6.15851177 61.5675213,8.70912937 C59.4499442,6.15600376 56.7722662,4.12207984 53.7411442,2.76433117 C56.4805577,2.36162449 59.2457101,2.15797393 62.0147428,2.15498935 C64.5071226,2.14900434 66.997155,2.30788119 69.4684352,2.63057321 L69.4684352,2.63057321 Z M25.0146136,15.5753713 C35.2688994,9.76044492 47.2092015,7.61563687 58.8543772,9.49681514 C21.8095258,16.1995751 7.12575176,45.8195322 2.42992553,58.7346063 C3.92345757,41.9327539 12.0466768,26.4093194 25.0146136,15.5753713 Z M2.13177783,64.0254767 C2.13177783,63.6242028 2.13177783,63.2377909 2.13177783,62.8365171 C4.90455141,53.7112518 17.8888836,18.6072184 57.8555824,10.7452228 C48.1657823,15.9320592 21.3324895,34.1825897 17.516199,77.8322705 C12.6563915,67.3248397 4.83001449,64.6496805 2.13177783,64.0254767 Z M18.4106421,79.9723979 C21.6455446,33.3949039 51.0727223,15.3227174 59.46558,11.1019107 C55.4902277,16.2807578 52.3006858,22.014468 49.9993906,28.1188955 C45.3482865,39.800424 40.4139421,59.819532 42.769309,89.0530772 C35.0770984,83.3757949 21.660452,80.8492556 18.5597159,80.2547758 L18.4106421,79.9723979 Z M21.3026748,83.019107 C26.8482219,84.1932046 37.2684839,86.9278118 42.7544016,91.7876843 C42.8672884,91.8837285 42.9994255,91.9546626 43.1419936,91.9957523 L53.115034,115.670911 L50.0441128,117.409765 L21.3026748,83.019107 Z M57.4978052,128.853501 L45.5718973,121.942673 L49.7310577,119.505306 L57.4978052,128.853501 Z M28.7414598,132.673034 L43.857548,141.263267 L43.857548,177.600846 L28.7414598,169.114647 L28.7414598,132.673034 Z" id="Shape"></path>
                    <path d="M69.4194165,171.001081 C70.3455884,171.675234 71.4512552,172.024435 72.5780573,171.99867 C76.2118918,171.99867 80.8100902,168.991233 84.2063279,164.017958 C84.5277825,163.533833 84.8212845,163.035039 85.1008102,162.550915 L85.771672,162.550915 L85.771672,161.274588 C85.7767596,161.092676 85.692262,160.920831 85.5480514,160.819804 C85.3967017,160.728083 85.2102311,160.728083 85.0588814,160.819804 L84.0386124,161.34794 L84.2762093,161.876075 C83.968731,162.40421 83.675229,162.917675 83.3258218,163.43114 C79.1329358,169.563379 73.1371087,172.585487 69.9225628,170.179537 C66.7080168,167.773587 67.4906889,160.819804 71.6695986,154.687565 C74.464856,150.521164 78.4341214,147.528397 81.6626437,147.088284 C82.8522208,146.840455 84.0857564,147.145429 85.0449051,147.924498 C88.4131902,150.858584 87.1972532,155.714495 85.2545494,158.193798 C84.768395,158.853231 84.1597879,159.402229 83.4655847,159.807545 C83.5540744,159.23595 83.4503063,158.649847 83.1720826,158.149786 C82.8751966,157.527338 82.2368594,157.168808 81.578786,157.25489 C80.8394934,157.437485 80.2643058,158.046936 80.0972996,158.824626 C79.9078292,159.444961 80.0958009,160.123931 80.5724933,160.541066 C80.9933904,160.895636 81.5030743,161.11473 82.0400034,161.171895 C81.7380826,161.864178 81.36303,162.518671 80.9219005,163.123061 C79.7199398,164.79549 78.3083348,165.82242 77.5396391,165.602364 C77.148303,165.485 76.8827536,164.956865 76.756967,164.135321 C78.7177759,160.898159 80.2682285,157.406525 81.3691416,153.748658 C81.5228808,153.103159 81.9840983,151.122652 80.8939479,150.506494 C80.4915945,150.295234 80.0100698,150.340667 79.6500584,150.623857 C77.777236,151.885514 75.4571724,158.633911 75.7087455,163.577845 C75.7087455,163.695208 75.7087455,163.812572 75.7087455,163.915265 C74.4508797,165.998465 73.3048242,167.509519 72.8156542,167.597542 L72.8156542,168.639142 C73.5563974,168.639142 74.7443817,167.274792 75.9882712,165.323626 C76.1720135,165.945797 76.6297298,166.437165 77.2181845,166.643964 C78.6158132,167.113418 80.4746593,165.47033 81.67662,163.797901 C82.2623692,162.972425 82.7329825,162.063489 83.0742486,161.098542 C84.1972024,160.679854 85.1721563,159.912322 85.869506,158.897978 C88.0777593,155.963893 89.4194828,150.447812 85.5200988,147.161636 C84.3306227,146.196185 82.8063017,145.806845 81.3272128,146.090695 C77.7912122,146.589489 73.6961602,149.655609 70.663306,154.130089 C66.3865622,160.643759 65.7017242,168.243041 69.4194165,171.001081 Z M80.2789913,151.489412 C80.3365138,151.443968 80.4036378,151.413772 80.4746593,151.40139 L80.4746593,151.40139 C80.5864696,151.40139 80.7402087,151.841502 80.5864696,152.868432 C79.7621693,156.183107 78.4664457,159.348376 76.7429907,162.257506 C76.8687773,157.724344 78.8813626,152.384308 80.2091098,151.489412 L80.2789913,151.489412 Z M82.4872446,160.159635 C82.0512505,160.189411 81.6210022,160.042373 81.2852839,159.748863 C81.1256138,159.585112 81.0710723,159.338936 81.1455211,159.118035 C81.2209407,158.745282 81.474737,158.440031 81.8163828,158.311161 L81.8163828,158.311161 C82.0400034,158.311161 82.2356714,158.545888 82.361458,158.751274 C82.5521717,159.195656 82.5721972,159.70014 82.4173632,160.159635 L82.4872446,160.159635 Z" id="Shape"></path>
                    <path d="M219.534989,380.509416 C219.159614,380.118939 219.001008,379.530846 219.120242,378.971584 C219.148751,378.632897 219.328058,378.333605 219.596433,378.17675 C219.831528,378.042529 219.949697,377.740288 219.87875,377.454666 C219.807802,377.169044 219.56747,376.979479 219.304574,377.001777 C218.633684,377.268278 218.152773,377.93613 218.060333,378.729678 C217.856759,379.74799 218.177043,380.808803 218.889827,381.47704 C219.331391,381.84842 219.875544,382.032049 220.425926,381.99541 C221.187653,381.963802 221.933235,381.739367 222.607188,381.338808 C222.81624,381.267634 222.968463,381.064715 222.995677,380.820939 C223.02289,380.577164 222.919994,380.338209 222.733077,380.211104 C222.546159,380.083998 222.310243,380.092559 222.130997,380.232952 C220.932839,380.837717 220.041902,380.941391 219.534989,380.509416 Z" id="Shape"></path>
                    <path d="M231.24605,369 C230.813672,369.029269 230.420373,369.254535 230.183561,369.608553 C229.598143,369.669218 229.008013,369.548359 228.497071,369.263158 C228.402852,369.187145 228.271066,369.173684 228.162741,369.229007 C228.054417,369.284331 227.990703,369.397638 228.001105,369.516458 C228.011508,369.635278 228.093994,369.736412 228.210368,369.773026 C228.726499,370.054133 229.30579,370.206669 229.896858,370.217105 C229.722631,370.623677 229.63099,371.059368 229.62702,371.5 C229.62702,372.881579 230.369075,374 231.31351,374 C232.257944,374 233,372.881579 233,371.5 C233,370.118421 232.190485,369 231.24605,369 Z" id="Shape"></path>
                    <path d="M217.851562,384.114011 C217.624614,383.928772 217.314764,383.973438 217.133069,384.217585 C216.951374,384.461731 216.956292,384.826808 217.144473,385.064139 C218.504642,386.30189 220.175182,386.981992 221.898521,386.999585 C223.248201,387.014499 224.578871,386.626948 225.764946,385.873508 C225.993082,385.690276 226.066402,385.335366 225.934963,385.050529 C225.803525,384.765691 225.509615,384.642568 225.253434,384.765025 C222.909347,386.363714 219.964842,386.104738 217.851562,384.114011 L217.851562,384.114011 Z" id="Shape"></path>
                    <path d="M214.786018,364.221552 C214.918588,364.221552 217.917997,363.041561 220.917405,365.794873 C221.050724,365.948159 221.279793,366.025109 221.506242,365.992676 C221.73269,365.960243 221.916222,365.8242 221.97802,365.642968 C222.039818,365.461736 221.968886,365.267567 221.795685,365.143843 C220.057096,363.230904 216.975216,362.499124 214.255736,363.353512 C214.014932,363.490745 213.931813,363.750927 214.059727,363.967068 C214.18764,364.183209 214.488601,364.291124 214.769446,364.221552 L214.786018,364.221552 Z" id="Shape"></path>
                    <path d="M229.013513,367.343187 C229.149635,367.343187 232.297463,365.872725 234.951847,368.854494 C235.162507,369.024949 235.496338,369.048467 235.740978,368.910087 C235.985617,368.771707 236.069275,368.512038 235.938734,368.296263 C234.427846,366.183851 231.110367,365.392865 228.400963,366.499033 C228.170674,366.566861 228.013199,366.738117 228.000788,366.934226 C227.988377,367.130335 228.123426,367.313444 228.343974,367.399541 C228.564521,367.485638 228.827996,367.458104 229.013513,367.329571 L229.013513,367.343187 Z" id="Shape"></path>
                    <path d="M214.915446,369.099324 C214.763291,369.542444 214.684202,370.026294 214.683828,370.516305 C214.683828,371.885521 215.204967,373 215.841914,373 C216.478861,373 217,371.885521 217,370.516305 C217,369.147088 216.478861,368.032609 215.841914,368.032609 C215.575432,368.063056 215.331067,368.248406 215.170224,368.542085 C214.854989,368.610681 214.538143,368.432762 214.347984,368.080372 C214.267216,367.973209 214.139229,367.973209 214.058462,368.080372 C213.980513,368.191409 213.980513,368.367364 214.058462,368.478401 C214.264411,368.847575 214.577515,369.074433 214.915446,369.099324 Z" id="Shape"></path>
                    <path d="M329.999999,501.618256 C330.00044,501.333893 329.777498,501.09883 329.492375,501.083033 L308.918643,500.414003 L308.500599,500.161259 C308.547301,500.11208 308.587446,500.057114 308.62004,499.997718 C308.708918,499.793809 308.708918,499.562333 308.62004,499.358424 L286.120321,447.322809 C285.776928,445.657669 277.625072,407.181049 266.308027,393.681524 C278.700042,379.200755 274.609184,341.645909 249.302599,335.461104 C242.2435,333.540726 234.810777,333.43331 227.698688,335.14889 C227.011901,334.98535 226.340045,334.821809 225.608468,334.702871 C225.345714,334.701643 225.120584,334.889766 225.076188,335.147655 C225.031792,335.405544 225.181144,335.657594 225.429306,335.743583 L225.608468,335.743583 C223.496448,336.472021 221.488837,337.471603 219.636413,338.717047 L222.62244,314.929337 L222.861323,314.929337 C223.71234,314.929337 224.847031,314.498185 225.966791,312.773576 C231.131677,304.528872 233.366245,294.795732 232.3121,285.135231 C233.805114,281.968492 247.869305,251.609428 250.51194,226.230915 L249.108507,210.189078 L251.58691,209.817395 C252.113411,209.742836 252.502946,209.29135 252.497648,208.761816 C252.497648,208.568541 252.378207,189.33023 250.093896,170.106787 C247.107868,145.397304 242.031621,131.853177 234.850224,129.78662 L234.850224,129.78662 L211.663718,114.532751 C211.422611,114.371785 211.125136,114.317926 210.842561,114.384078 C210.56075,114.449452 210.318025,114.626701 210.170704,114.874699 L210.051263,115.053107 C209.847832,112.133301 209.92783,109.200759 210.290146,106.296256 C210.516015,103.563372 211.160492,100.880993 212.201203,98.3422409 C214.212637,98.0103847 216.030599,96.9517225 217.307311,95.3687772 C219.483771,93.0156651 220.345259,89.7401895 219.606552,86.6267939 C223.533179,79.7134908 227.071622,71.6702715 226.713298,63.80546 C226.250464,53.1901945 209.349547,33.654538 189.387951,43.8683858 C181.72879,47.7933579 175.652223,46.2471568 172.964798,45.1172406 C172.569496,44.9440304 172.113593,44.9777966 171.748373,45.2073345 C171.383152,45.4368724 171.156386,45.832159 171.143321,46.2620241 C171.24686,50.2998729 173.005619,54.1195548 176.010547,56.8326876 C175.845773,56.8422445 175.68858,56.9048573 175.562642,57.0110954 C172.933611,59.9942833 171.064447,63.563897 170.113142,67.4182184 C169.808363,67.3925093 169.516828,67.5473957 169.368558,67.8138011 C169.220288,68.0802065 169.242918,68.4084754 169.426355,68.6522058 L169.710028,68.9941541 C169.220553,71.0767625 168.896069,73.1944312 168.739569,75.3276318 C165.64903,79.4310117 164.484479,91.1910607 166.320886,100.304727 C167.037533,103.872883 168.545477,108.481752 171.636016,110.132025 C172.99199,110.853052 174.399189,111.474186 175.846315,111.990439 C175.837364,113.860921 175.376483,115.701786 174.502603,117.357541 C174.359907,117.326999 174.212324,117.326999 174.069629,117.357541 L163.887274,121.35685 L163.723042,121.35685 C153.361526,124.40465 145.567993,131.00574 139.491427,188.542262 C139.435832,189.090417 139.812943,189.588958 140.357375,189.687046 L140.95458,189.805985 C140.267794,191.82794 138.326876,197.53699 137.057814,200.911871 C135.296058,202.85949 109.974542,208.955091 103.957696,209.267304 C100.676634,208.710579 97.3097713,209.516516 94.6412896,211.497402 L94.6412896,211.497402 C93.4319483,211.631208 91.1774973,210.352619 89.5202519,209.430845 C87.4748229,208.286061 86.4446433,207.706236 85.7429268,208.405 C85.3871977,208.756826 85.2020362,209.244897 85.2353021,209.743059 C85.2353021,211.408198 87.5046832,213.7275 88.8633258,214.991222 L80.6666796,217.057779 C78.9138023,216.856285 77.1398902,217.166188 75.560572,217.949818 C74.2730455,218.655967 73.3535704,219.880388 73.0373786,221.309832 C72.8938716,222.361839 73.1669376,223.428181 73.7988157,224.283296 C74.0069323,224.5663 74.3426296,224.727871 74.694624,224.714448 L74.694624,224.714448 C75.4262008,224.714448 92.6107907,223.792675 104.554902,219.43655 L104.868435,219.43655 C127.950429,217.682207 143.507634,215.39264 151.226516,212.597584 C150.450149,217.563268 149.599131,222.246474 148.777973,226.572863 C146.672824,237.842291 145.015578,246.732947 146.672824,253.111027 C146.62959,253.200451 146.599424,253.295574 146.583243,253.393506 L135.624521,339.549617 C135.299406,341.644267 135.204288,343.76794 135.340848,345.883094 L142.895499,447.397145 C142.478018,447.286783 142.035043,447.439702 141.775738,447.783696 C141.671227,447.917502 131.757615,461.476496 124.710589,462.963228 C119.604482,464.033675 116.17055,467.423423 116.17055,469.876531 C116.17055,470.798305 116.603524,472.121496 118.678813,473.177076 C121.758746,474.430825 125.073838,475.008906 128.398334,474.87195 C133.743323,474.87195 139.566078,473.771768 142.746197,471.497069 C145.567993,469.475113 149.091506,466.561119 152.182045,463.885002 L153.7945,463.885002 C153.894057,463.886132 153.99207,463.860447 154.078173,463.810665 L160.438412,459.811356 C160.623334,459.693739 160.717892,459.475995 160.677294,459.261266 L160.095019,456.049925 C160.056478,455.886528 159.939004,455.752838 159.781486,455.693109 L157.273222,446.772718 C157.161353,446.416503 156.864026,446.148896 156.496855,446.073954 L160.662364,348.648416 L173.233541,280.556097 L181.460047,282.042829 L189.596973,364.392906 L196.225955,430.671412 C196.220899,430.730775 196.220899,430.790457 196.225955,430.84982 C195.849394,431.201514 195.549548,431.626617 195.345077,432.098675 C194.180526,434.715323 195.554098,438.863305 196.106514,440.320302 C195.347603,441.132284 194.653719,442.002204 194.031224,442.922082 C192.034493,445.887152 190.992859,449.387876 191.045197,452.957522 C188.636064,451.881209 185.964863,451.524826 183.356175,451.931678 C178.757692,452.927788 173.890467,464.375623 169.187473,475.451775 C167.604878,479.168605 166.126795,482.662425 164.708431,485.531817 C157.108991,501.306042 147.35961,509.765547 145.373902,509.825016 C141.730948,509.943954 136.535259,512.902551 135.967914,513.244499 C134.364004,514.042026 132.59483,514.454454 130.802086,514.448752 C129.309072,514.552823 127.816058,514.642027 127.607036,515.935484 C127.538151,516.440152 127.702889,516.948691 128.05494,517.318144 C129.324002,518.715672 133.489511,519.146825 137.266836,519.236029 L133.41486,520.826832 C130.607278,521.240294 127.875824,522.061793 125.307795,523.265072 C122.675276,524.262444 119.925921,524.92191 117.126079,525.227558 C113.916099,525.718179 111.601927,526.074995 110.870351,527.368452 C110.60404,527.897059 110.60404,528.519852 110.870351,529.048459 C112.199133,532.289534 119.037137,532.780156 127.830988,533.077502 C130.046585,533.061579 132.259443,533.235675 134.44504,533.597858 C135.241452,533.853447 136.071829,533.988755 136.908513,533.999276 C137.911398,534.015681 138.898985,533.753089 139.760169,533.241043 C141.073834,532.352213 142.022453,531.022347 142.432664,529.494478 C146.672824,528.572705 177.667792,521.614799 196.912741,512.322725 C199.182122,512.233521 223.458528,511.29688 232.416611,510.241301 C233.118328,512.337593 233.670743,512.932285 233.909625,513.095826 C234.030768,513.170944 234.170056,513.212041 234.312739,513.214765 L234.312739,513.214765 C235.327989,513.214765 259.15649,511.623961 267.159045,500.770819 C271.817248,494.467076 271.906829,484.416769 272.01134,473.771768 C272.01134,469.77246 272.100921,465.654213 272.384593,461.625169 C280.357287,477.161517 299.034891,501.291175 299.99042,502.525162 C300.139214,502.720792 300.371045,502.83622 300.617486,502.837376 L300.856368,502.837376 L301.199761,502.733305 L302.035849,504.725526 C302.521365,505.88378 303.549109,506.729214 304.782995,506.985358 C308.867288,507.936269 313.020972,508.562666 317.20487,508.85864 C317.710032,508.880923 318.215235,508.815523 318.697884,508.665365 C319.399601,508.382886 319.489182,507.921999 319.489182,507.684122 C319.489182,506.970491 318.414212,506.19739 317.115289,505.677034 C322.266187,505.008005 329.999999,503.788885 329.999999,501.618256 Z M302.379242,500.607278 L301.05046,498.793466 L305.857965,496.964785 L306.828424,499.194883 L302.379242,500.607278 Z M212.96264,358.148632 C216.277131,360.527403 222.63737,363.902285 245.286391,364.348304 C245.582228,372.901351 244.647075,381.452531 242.509385,389.741684 C237.107851,392.038684 231.399532,393.541143 225.563678,394.20188 C221.492914,394.734425 217.486129,392.844154 215.321602,389.370001 C210.618609,382.248556 211.544277,369.388325 212.90292,366.905483 C212.983151,366.760535 213.014551,366.593774 212.992501,366.429729 C212.714698,363.670802 212.724705,360.890638 213.022361,358.133765 L212.96264,358.148632 Z M229.385793,407.775741 C229.385793,407.775741 229.385793,407.864945 229.385793,407.909547 C229.223185,407.109783 229.378392,406.278389 229.818767,405.590246 C229.714344,406.321117 229.569803,407.045745 229.385793,407.760874 L229.385793,407.775741 Z M230.042719,403.449352 C229.969577,403.473348 229.903101,403.514084 229.848628,403.56829 C229.594815,403.895371 227.355294,406.8391 228.594496,408.712383 C229.445854,409.6828 230.732484,410.158361 232.013498,409.976105 C232.758658,409.963625 233.502017,409.899041 234.238088,409.782829 C233.954416,410.258584 233.670743,410.689736 233.402001,411.091154 C229.609745,411.462836 228.042081,410.511328 227.429945,409.426014 C226.295254,407.433793 227.833059,403.999443 230.10244,401.501733 C230.10244,402.096426 230.08751,402.750588 230.042719,403.434484 L230.042719,403.449352 Z M234.939805,408.578577 C231.834336,409.143535 230.460763,408.861056 229.818767,408.429904 L229.968069,408.429904 C230.208382,408.424189 230.415666,408.260273 230.475693,408.028486 C231.455307,403.787199 231.455307,399.379808 230.475693,395.138521 C234.421347,394.325679 238.284342,393.15623 242.016691,391.644701 C240.349815,397.547328 237.973674,403.228067 234.939805,408.563709 L234.939805,408.578577 Z M217.367031,339.757759 C217.35253,339.856349 217.35253,339.956516 217.367031,340.055106 C213.783798,341.452634 209.379407,345.347871 210.140844,355.21977 C210.180165,355.822917 210.500571,356.373018 211.006792,356.706502 L211.529347,357.063318 C211.110823,360.183556 211.055713,363.341497 211.365116,366.474331 C209.872102,369.774875 208.901643,382.66484 213.97789,390.26204 C215.463781,392.64965 217.755961,394.431399 220.44264,395.287194 C217.960153,395.541294 215.625574,396.583785 213.783798,398.260658 C207.647511,403.672362 205.42292,415.343207 207.169747,432.931244 C206.273938,433.302927 205.39306,433.689478 204.527112,434.12063 C203.957074,432.645639 202.97219,431.365515 201.690386,430.433535 L195.300286,365.507955 L187.835217,281.344065 C187.813041,281.107314 187.63667,280.913518 187.402243,280.868311 L181.295816,279.723527 C181.295816,279.723527 181.176375,279.723527 181.116654,279.723527 L180.982283,279.723527 L181.907952,266.34294 C187.880007,266.863296 193.762482,267.116041 199.286633,267.116041 C207.671444,267.298239 216.050213,266.540191 224.264756,264.856208 C224.546802,264.783148 224.718993,264.499568 224.652939,264.216914 C224.621227,264.079732 224.535053,263.961198 224.414083,263.888361 C224.293113,263.815524 224.147669,263.7946 224.010943,263.830363 C218.935915,264.956846 213.768919,265.623639 208.57318,265.822584 L208.752341,260.960971 C214.082401,260.767696 219.621482,260.381146 225.294935,259.682382 C225.364429,259.689438 225.434463,259.689438 225.503957,259.682382 C224.010943,270.505789 222.712021,280.214148 222.517929,281.477871 C221.450659,284.214897 220.067825,286.819252 218.397211,289.238611 C215.411183,292.554023 215.276812,298.649623 216.262201,300.864854 C216.488814,301.632556 217.176773,302.174651 217.979167,302.21778 C219.263159,302.21778 220.726313,300.463436 222.010305,298.367144 C222.233903,301.450434 221.722319,304.542686 220.517291,307.391607 C219.483621,309.468208 219.613819,311.931546 220.860684,313.888625 C220.759871,314.024568 220.693308,314.182627 220.666592,314.349512 L217.367031,339.757759 Z M197.390506,439.026845 C196.77837,437.227899 196.091583,434.358507 196.83809,432.693367 C197.07217,432.133136 197.54168,431.703657 198.122082,431.518849 C198.900457,431.211687 199.772578,431.244052 200.525835,431.608053 C201.739822,432.386076 202.655033,433.548846 203.123679,434.908598 C201.054093,436.042192 199.12917,437.419909 197.390506,439.011978 L197.390506,439.026845 Z M148.121047,258.329456 L148.643602,254.270678 C150.55466,254.820768 154.615658,255.906083 160.423482,257.065734 C160.327373,257.150689 160.264016,257.266354 160.24432,257.392815 L159.602324,261.85301 C155.678209,260.921248 151.81828,259.739339 148.046396,258.314588 L148.121047,258.329456 Z M161.199849,257.214407 L163.260208,257.600957 C163.260208,257.600957 163.170627,257.705028 163.155697,257.779365 L162.603282,262.447703 L160.617573,262.001683 L161.2745,257.541488 C161.274337,257.414762 161.226379,257.29272 161.140128,257.199539 L161.199849,257.214407 Z M164.185877,257.764498 C176.504851,259.967313 188.995217,261.081741 201.511224,261.094777 C202.645914,261.094777 203.795535,261.094777 204.945156,261.094777 L204.765994,266.015859 C190.959798,266.438796 177.14918,265.331814 163.588671,262.715315 L164.156016,257.957773 C164.156016,257.957773 164.126156,257.809099 164.111226,257.764498 L164.185877,257.764498 Z M205.900685,265.926655 L206.079846,261.02044 L207.752022,261.02044 L207.57286,265.896921 L205.900685,265.926655 Z M180.937492,266.224002 L180.011824,279.604588 L177.249748,279.128834 L178.070906,265.971257 L180.937492,266.224002 Z M248.451581,226.20118 C245.704435,252.293324 230.535414,284.183723 230.311462,284.466202 C230.226299,284.641755 230.190197,284.836911 230.206951,285.03116 C231.291064,294.314289 229.186039,303.6894 224.234895,311.628793 C223.801921,312.297822 223.159925,312.996586 222.741881,312.758709 C222.070025,312.387026 221.428029,310.36507 222.413418,308.179575 C224.22665,303.913084 224.669937,299.192461 223.68248,294.665182 C223.573247,294.239332 223.210456,293.925446 222.771742,293.877214 C222.333239,293.839628 221.91507,294.068361 221.711702,294.45704 C220.806402,296.431459 219.625172,298.268426 218.203119,299.913346 C217.590983,298.530685 217.605914,293.208185 219.994736,290.621271 C221.905794,288.539847 224.473778,282.36991 224.563358,282.102298 C224.572978,282.018322 224.572978,281.933529 224.563358,281.849554 C224.832101,279.887067 231.17741,233.664574 231.699965,228.327207 C232.073218,224.476571 229.639606,215.050691 229.146911,213.177409 L247.063078,210.545894 L248.451581,226.20118 Z M247.884235,208.211725 L247.884235,208.211725 L225.638328,211.482535 C225.121163,209.842438 224.775929,208.153425 224.608149,206.442514 L250.332778,202.725684 C250.332778,204.569232 250.407429,206.293841 250.422359,207.840042 L247.884235,208.211725 Z M250.228267,201.670105 L224.458847,205.386934 C222.443279,189.55324 220.920404,149.099266 228.385474,135.391599 C229.773977,132.849287 231.296851,131.6153 233.028747,131.6153 L233.35721,131.6153 C245.689505,132.730349 249.571341,177.46611 250.287988,201.670105 L250.228267,201.670105 Z M211.320325,116.926389 L212.813339,117.937367 C211.320325,119.855251 202.362242,131.22875 191.239288,132.804685 C181.325676,134.187346 174.18907,130.306976 169.993701,121.312248 L171.695736,120.643219 C172.785637,123.616682 176.667473,131.585565 186.790107,131.16928 C200.914018,130.574587 209.155455,120.122863 211.380046,116.881787 L211.320325,116.926389 Z M177.324399,112.466194 C179.789389,113.206605 182.349165,113.587203 184.92384,113.59611 C191.406311,113.517121 197.666041,111.229446 202.660845,107.113959 C202.868872,106.920086 202.95723,106.630426 202.892635,106.354091 C202.82804,106.077756 202.620306,105.856728 202.347685,105.774266 C202.075063,105.691804 201.778971,105.760435 201.570944,105.954308 C193.342614,112.811498 181.726022,113.922188 172.337732,108.749364 C170.337094,107.678917 168.739569,104.586515 167.858691,100.007381 C166.141725,91.4438051 167.261485,79.6094196 170.113142,76.1453344 C170.218026,76.0188544 170.280658,75.8629334 170.292303,75.6993148 C170.423197,73.8745894 170.682624,72.0612712 171.068671,70.2727435 C172.72699,71.5197196 174.753817,72.1837713 176.831704,72.160893 L177.757373,72.160893 C178.197253,72.1215142 178.523439,71.7370414 178.48895,71.2985885 C178.478024,71.0849628 178.378705,70.8853919 178.214617,70.7473495 C178.05053,70.6093072 177.836341,70.545132 177.623002,70.5700899 C175.38381,70.8091311 173.147971,70.0904046 171.471784,68.5927365 C172.343723,64.7601229 174.125378,61.1914147 176.667473,58.1856136 C176.782616,58.0582416 176.851032,57.8957832 176.861565,57.7247267 C180.860096,61.1231198 185.484926,63.7136411 190.477851,65.3516611 C203.22819,69.9902645 206.826353,62.779615 209.991543,63.7459907 C212.649108,64.5636932 210.663399,78.7173805 207.378768,82.5085467 C207.062529,82.8419907 206.918539,83.3021135 206.988573,83.7554223 C207.058608,84.2087312 207.334827,84.6044785 207.737092,84.8278484 L208.453738,85.2590006 C208.389743,85.4317177 208.389743,85.6215069 208.453738,85.7942241 C208.552037,85.980239 208.720896,86.1194343 208.922768,86.1808579 C209.12464,86.2422815 209.34279,86.2208414 209.528708,86.1213051 C210.678329,85.511745 214.112261,84.1290844 216.262201,84.9616542 C217.097207,85.2822326 217.7438,85.9588443 218.023958,86.8052017 C218.732389,89.4711195 218.003577,92.3122149 216.09797,94.3131976 C214.927114,95.952182 212.993678,96.8783471 210.976932,96.7663052 C210.583273,96.6851612 210.191075,96.9108357 210.065096,97.2909839 C209.939117,97.6711321 210.119398,98.0849298 210.484237,98.253037 C209.567328,100.787004 208.96564,103.423291 208.692621,106.102981 C208.244941,109.731834 208.244941,113.401607 208.692621,117.03046 C205.706593,120.866228 198.241523,128.567499 186.879688,128.924315 C181.385135,129.245951 176.306119,126.012178 174.293581,120.91083 C176.096759,118.450458 177.167807,115.534215 177.384119,112.495928 L177.324399,112.466194 Z M160.722084,124.731731 C156.243043,130.455649 150.778612,141.085782 153.107714,171.385377 C153.495897,176.455132 153.600408,181.272144 153.525757,185.925614 C149.360249,185.271452 143.492704,184.349679 141.99969,184.0672 C147.165518,138.959755 153.182364,128.50803 160.781805,124.761466 L160.722084,124.731731 Z M141.656297,187.843498 C141.760808,186.921725 141.850389,186.029686 141.9549,185.137646 C144.08991,185.539064 151.584839,186.713582 153.585478,187.025796 C153.585478,188.051641 153.495897,189.047751 153.466037,189.99926 L141.656297,187.843498 Z M86.7731064,209.84713 C87.265801,210.07014 88.0123079,210.486425 88.6095135,210.828373 C89.9558317,211.635406 91.3816387,212.302965 92.864603,212.820594 C92.3378701,213.286361 91.8393245,213.782809 91.3715892,214.307325 L90.6400123,214.500601 C89.0117174,213.263203 87.689054,211.671498 86.7731064,209.84713 L86.7731064,209.84713 Z M104.689273,217.280789 L104.226439,217.280789 L103.942766,217.280789 C93.6708305,221.086823 78.56153,222.231606 75.2768994,222.439749 C75.1618241,222.141663 75.1258298,221.819077 75.1723884,221.503108 C75.407416,220.667921 75.9807506,219.967733 76.7549832,219.570356 C77.9870092,219.045578 79.3381732,218.860703 80.6666796,219.035133 C80.7903087,219.054861 80.9163038,219.054861 81.039933,219.035133 L92.2076769,216.210342 C92.4251832,216.152812 92.6186585,216.027842 92.7600921,215.853527 C92.7600921,215.853527 97.6721078,210.07014 103.494862,211.274392 C103.887376,211.926543 104.005422,212.706649 103.823325,213.445021 C103.746882,213.728063 103.913275,214.019682 104.196578,214.099183 L104.34588,214.099183 C104.581989,214.095364 104.787941,213.938534 104.853505,213.712633 C105.049237,212.892247 104.992002,212.032152 104.689273,211.244658 C110.661329,210.560761 137.71474,204.970649 139.028593,201.729574 C140.521606,198.012744 142.537175,191.842807 143.119451,190.118198 L153.480967,192.05095 C153.137574,198.458764 152.480648,204.465161 151.65949,210.07014 C144.537814,213.11794 128.786517,215.526446 104.659413,217.280789 L104.689273,217.280789 Z M150.838332,226.989148 C153.600408,212.211034 157.03434,193.820161 155.317374,171.251571 C152.71953,137.354085 159.960647,128.924315 164.275457,123.884294 L164.768152,123.304469 L169.142683,121.594727 C172.964798,129.846089 179.130946,134.038673 187.536614,134.038673 C188.865375,134.035761 190.192344,133.941376 191.508031,133.756194 C203.19833,132.135656 212.410225,120.375607 213.828588,118.457723 L231.16248,129.846089 C229.481766,130.538882 228.079629,131.76778 227.176133,133.339909 C217.24759,148.668114 221.114496,207.750838 223.921362,212.73139 C224.143635,213.287462 224.679082,213.656597 225.280005,213.668031 L225.444237,213.668031 L227.116412,213.415286 C227.340364,214.277591 230.027789,224.387367 229.669466,228.044728 C229.400723,230.795182 227.534456,244.770461 225.78763,257.779365 C225.57972,257.632395 225.323888,257.568706 225.070983,257.600957 C199.454653,260.642891 173.49018,258.765448 148.583881,252.070315 C147.240169,246.138254 148.837694,237.649016 150.838332,226.989148 Z M137.69981,339.86183 L147.852305,259.385035 C149.46476,259.994595 151.136935,260.559553 152.868831,261.07991 C152.868831,261.07991 152.868831,261.07991 152.868831,261.169113 L141.029231,341.779715 L146.687754,449.300162 C146.127402,449.098567 145.57907,448.865266 145.045439,448.601398 L137.401207,345.749289 C137.281497,343.782363 137.376612,341.808308 137.68488,339.86183 L137.69981,339.86183 Z M141.462205,469.802194 C136.684561,473.236545 124.158174,473.637963 119.604482,471.288926 C119.267899,471.125293 118.956256,470.915067 118.678813,470.664499 C121.85146,471.437416 125.102474,471.846447 128.368473,471.883619 C133.43238,472.072722 138.417617,470.593894 142.552105,467.676168 L142.820848,467.49776 C144.925997,466.011028 154.481286,457.893472 157.452384,455.351161 L157.676336,456.168863 C155.541326,458.131349 146.956496,465.862355 141.447275,469.802194 L141.462205,469.802194 Z M153.615338,462.859157 L153.376456,462.859157 C156.183322,460.420916 158.452703,458.398961 159.258931,457.610993 L159.542603,459.097725 L153.615338,462.859157 Z M157.123921,454.250979 C154.764959,456.272935 144.343722,465.208193 142.193782,466.650323 L141.92504,466.843598 C139.431706,468.55334 132.802725,473.073004 118.32049,469.534583 C118.708673,468.226259 120.992985,465.921824 125.098773,465.074387 C131.981567,463.587655 140.551467,452.898053 142.865638,449.850253 C146.448872,451.901943 149.643921,452.511503 152.376137,451.649198 C153.283971,451.362385 154.129711,450.908515 154.86947,450.31114 C154.973325,450.358552 155.084285,450.388687 155.197933,450.400344 L155.197933,450.400344 C155.463947,450.399062 155.719753,450.298232 155.91458,450.117865 L157.123921,454.250979 Z M172.546754,278.236795 C171.974408,278.137466 171.428414,278.515402 171.322483,279.084232 L158.497494,348.321335 L154.227474,447.932369 C153.546857,448.687265 152.6756,449.246835 151.70428,449.552907 C150.406124,449.919893 149.03102,449.919893 147.732864,449.552907 C147.732864,449.552907 147.732864,449.463703 147.732864,449.419101 L142.044481,341.779715 L153.869151,261.317787 C161.404988,263.440899 169.105907,264.932828 176.891425,265.777982 L176.070267,278.861223 L172.546754,278.236795 Z M191.687192,364.065825 L183.505476,281.210259 L186.879688,281.849554 L194.255176,365.612026 L200.570625,429.883444 C199.820427,429.652204 199.022358,429.621441 198.256454,429.79424 L191.687192,364.065825 Z M195.404797,443.695183 C196.02798,442.776423 196.727151,441.911109 197.495017,441.10827 C197.58966,441.05169 197.671098,440.975663 197.733899,440.88526 C203.034098,435.458689 211.320325,432.559561 217.934377,431.637788 C225.863771,430.508278 233.924015,432.485548 240.419166,437.153563 L240.419166,437.153563 C240.31601,437.613827 240.246156,438.080869 240.210144,438.551091 C240.193181,438.98906 240.532096,439.359637 240.971581,439.383661 C241.408489,439.392718 241.775981,439.059446 241.807669,438.625427 C241.87583,436.537146 242.804662,434.568994 244.375653,433.183989 C245.390137,432.214145 246.74676,431.680186 248.152978,431.697257 C249.942231,431.918505 251.439603,433.154296 251.990024,434.863996 C251.104473,438.887552 248.060804,442.095691 244.07705,443.204562 C243.956307,443.233508 243.871209,443.34107 243.871209,443.46474 C243.871209,443.588409 243.956307,443.695972 244.07705,443.724918 L244.07705,443.724918 C247.948053,442.744352 251.062904,439.888512 252.363277,436.127718 C252.67681,439.101182 250.631381,442.074645 246.704754,444.141203 C246.454055,444.276648 246.294964,444.534988 246.287409,444.818909 C246.279854,445.10283 246.424983,445.369198 246.668128,445.517673 C246.911272,445.666149 247.215492,445.674176 247.466191,445.538731 C247.809585,445.360323 248.123118,445.15218 248.43665,444.944038 C249.690782,447.233605 255.513536,458.5179 254.85661,469.564317 C253.363596,468.479003 252.437928,467.780239 252.288626,467.676168 C252.053929,467.514165 251.750267,467.48915 251.492027,467.610547 C251.233787,467.731944 251.060201,467.981309 251.036658,468.264709 C251.013115,468.548109 251.143191,468.822489 251.377888,468.984492 C251.497329,469.073696 262.157448,476.418151 265.979564,483.331454 C262.411261,483.762606 250.362638,486.12651 247.003357,498.332579 L248.033537,498.615058 C251.362958,486.51306 263.769903,484.610044 266.487188,484.342432 C266.869568,485.133027 267.136049,485.974168 267.278486,486.840141 C267.980202,491.999101 262.3814,497.559478 256.693017,499.521964 C254.110103,500.414003 247.734934,501.796664 244.03226,495.55239 C241.053124,490.642827 240.663136,484.595712 242.98715,479.347013 C243.088496,479.081434 243.039861,478.782188 242.859564,478.562 C242.679267,478.341811 242.3947,478.23413 242.113057,478.279521 C241.831414,478.324911 241.595482,478.516476 241.494136,478.782055 C240.934797,480.226934 240.50999,481.719945 240.225074,483.24225 C235.118967,483.68827 229.221562,484.728982 229.161841,484.818186 C228.764078,484.899382 228.489016,485.262464 228.519845,485.665623 C228.519845,485.665623 228.519845,485.96297 228.519845,486.423857 L224.891821,486.795539 C220.621802,480.03091 214.694537,475.526112 209.66308,475.273368 C198.689428,474.70841 194.64336,487.538905 194.225316,489.01077 L194.031224,489.679799 C193.828534,490.279257 193.683557,490.896552 193.59825,491.523347 C192.821883,491.776091 192.105236,492.043703 191.37366,492.341049 C190.552502,483.673403 195.165915,477.295323 197.704038,473.81637 C198.225096,473.144005 198.69425,472.433296 199.107472,471.690344 L199.107472,471.690344 L199.107472,471.571405 C199.555364,470.570281 199.784379,469.485768 199.779328,468.389799 C201.280623,469.256152 202.866373,469.96848 204.512182,470.515826 C208.233155,471.722635 212.124973,472.325036 216.038249,472.299904 C222.473139,472.299904 228.684077,470.813172 232.386751,467.839708 C232.73307,467.568746 232.79323,467.069521 232.521122,466.72466 C232.249015,466.379798 231.747681,466.319891 231.401362,466.590854 C226.519207,470.38202 214.754257,472.240435 205.034737,468.969625 C200.555695,467.482893 194.927033,464.301287 193.195137,457.670462 C191.814524,452.93075 192.624385,447.825025 195.404797,443.739785 L195.404797,443.695183 Z M267.801041,496.444429 L267.801041,496.444429 C260.515133,504.666056 246.21206,507.728724 236.731422,509.334394 C234.790504,500.518074 233.058607,488.297139 232.715214,485.814296 C234.760643,485.487215 237.448068,485.100665 239.986192,484.862788 C239.590024,488.858866 240.518146,492.874249 242.628826,496.295756 C244.547567,499.776824 248.241632,501.91643 252.228906,501.856133 C253.91868,501.840445 255.593972,501.54398 257.185712,500.978961 C263.44144,498.8232 269.667308,492.712732 268.83122,486.587397 C268.330785,484.151709 267.238943,481.875124 265.651101,479.956573 C266.145818,480.025012 266.644646,480.059783 267.144115,480.060644 C268.316785,480.081414 269.477871,479.826744 270.533256,479.317278 C270.279444,485.873766 269.771819,491.880162 267.786111,496.489031 L267.801041,496.444429 Z M232.28224,502.733305 C230.983318,495.55239 230.296532,488.549883 230.10244,486.379255 L232.162799,486.022439 C232.506192,488.549883 234.238088,500.726217 236.193937,509.557404 L234.014136,509.91422 C233.260957,507.566063 232.682099,505.16596 232.28224,502.733305 Z M223.68248,486.988815 L222.189466,487.137488 C212.992501,488.01466 202.242801,489.040505 194.792661,491.226 C194.872584,490.834704 194.972244,490.447663 195.091264,490.06635 L195.300286,489.382453 C195.68847,488.029527 199.316493,476.403284 209.065874,476.403284 L209.66308,476.403284 C214.186912,476.596559 219.621482,480.729674 223.68248,486.944213 L223.68248,486.988815 Z M175.682084,501.975072 C175.219249,495.16584 176.846634,489.293249 177.891744,487.999792 C178.757692,488.653954 180.877772,490.973256 182.564878,498.243375 C180.69861,499.328689 178.309788,500.592411 175.682084,501.93047 L175.682084,501.975072 Z M174.18907,502.748172 C170.889509,504.398445 167.246555,506.123054 163.543881,507.832795 C164.365038,507.104297 165.201126,506.346063 166.007354,505.691901 C169.080882,503.301487 171.813303,500.505538 174.129349,497.38107 C174.00603,499.163216 174.011019,500.951868 174.144279,502.733305 L174.18907,502.748172 Z M183.565197,497.633815 C182.072183,491.255735 180.131265,488.549883 178.951784,487.464569 C181.460047,487.003682 186.640806,489.560861 189.686554,491.553081 L189.686554,491.553081 C189.686554,492.05857 189.761205,492.578926 189.820925,493.039813 C188.826538,493.526012 187.910669,494.157408 187.10364,494.913095 C186.005526,495.930632 184.804734,496.832418 183.520407,497.60408 L183.565197,497.633815 Z M188.16368,478.633382 L195.628749,473.935309 C192.08973,478.458306 190.007831,483.941758 189.656694,489.664932 C187.738753,488.487996 185.714346,487.492495 183.609987,486.691468 L183.744359,485.606154 C184.075021,482.733275 185.701669,480.166763 188.16368,478.633382 Z M129.12991,516.23283 C129.712053,516.064382 130.315306,515.979281 130.921527,515.980086 C132.967676,515.951675 134.978135,515.44226 136.789072,514.493354 C138.75985,513.34857 142.761127,511.386084 145.448552,511.29688 C148.524161,511.192809 158.721446,501.543919 166.156655,486.096776 C167.560088,483.123312 169.053102,479.674094 170.635697,475.942397 C174.756415,466.248905 179.892383,454.176643 183.684638,453.344073 C186.242404,453.008525 188.842472,453.443498 191.149707,454.592928 C191.257301,455.746735 191.457001,456.890177 191.746913,458.012411 C192.73122,461.717495 195.000079,464.956369 198.151943,467.155812 C198.149501,467.19046 198.149501,467.225235 198.151943,467.259883 C198.402584,468.39248 198.282238,469.575248 197.808549,470.634764 L191.149707,474.916552 C192.346067,473.185448 193.169576,471.226455 193.56839,469.1629 C193.598017,468.953604 193.541962,468.741231 193.412817,468.57349 C193.283673,468.40575 193.092268,468.296708 192.881604,468.270861 C192.670744,468.237017 192.455195,468.29117 192.285696,468.420573 C192.116196,468.549976 192.007718,468.743198 191.985795,468.954757 C191.493101,472.552648 187.775496,476.789834 187.745636,476.834436 C187.715776,476.879038 187.745636,477.027711 187.656055,477.116915 L187.357452,477.295323 C184.500157,479.080941 182.611018,482.061314 182.221484,485.398012 L182.131904,486.185979 C180.512879,485.542906 178.69026,485.651912 177.160167,486.483326 C176.100127,487.286161 175.114738,490.051482 174.547393,493.589904 C174.487481,493.645886 174.437062,493.711155 174.398092,493.783179 C172.128711,498.377181 168.664918,501.32091 164.977174,504.443047 C162.949478,506.104494 161.020251,507.881644 159.19921,509.765547 C152.540368,512.73901 146.000967,515.548934 141.163602,517.585756 C133.982206,517.793899 129.936138,517.050533 129.12991,516.23283 Z M196.703719,510.702188 C196.595137,510.704854 196.488325,510.730179 196.390186,510.776524 C175.965756,520.678158 141.9549,528.007746 141.626437,528.007746 C141.312422,528.079869 141.071702,528.33127 141.014301,528.647041 C140.741497,529.942222 139.983383,531.085241 138.894221,531.843515 C137.647593,532.487137 136.181159,532.557707 134.878014,532.03679 C132.558797,531.612675 130.203744,531.413512 127.845919,531.442097 C122.426278,531.248822 113.333823,530.936608 112.303644,528.468633 C112.214063,528.260491 112.303644,528.186154 112.303644,528.171287 C112.661967,527.54686 115.289672,527.145442 117.424682,526.818361 C120.369428,526.49684 123.260015,525.797223 126.024442,524.736936 C128.466782,523.58466 131.068566,522.802898 133.743323,522.417635 L133.982206,522.417635 C135.908194,521.629667 181.340606,503.090121 188.298051,496.221419 C189.010982,495.549564 189.821287,494.988245 190.701803,494.55628 L190.866035,494.55628 C191.085437,494.52243 191.280466,494.398353 191.40352,494.214331 C198.122082,491.107062 211.335255,489.84334 222.308907,488.802627 L228.699007,488.1782 C229.01254,491.300337 229.669466,497.098591 230.744436,503.045519 C231.19234,505.483759 231.610384,507.312439 231.998568,508.724834 C222.502999,509.750679 196.957532,510.702188 196.688789,510.702188 L196.703719,510.702188 Z M234.178368,510.345372 L236.298448,510.003424 C236.402959,510.479178 236.507469,510.940065 236.626911,511.386084 L234.745713,511.564492 C234.515885,511.17602 234.321033,510.768055 234.163438,510.345372 L234.178368,510.345372 Z M237.164396,511.311748 C237.059885,510.850861 236.940444,510.389974 236.835933,509.899352 C245.958247,508.412621 259.499883,505.439157 267.144115,497.901426 C266.81585,498.551454 266.441656,499.177455 266.024354,499.774709 C259.977648,507.936866 243.703796,510.568382 237.134535,511.311748 L237.164396,511.311748 Z M270.548186,473.697432 C270.548186,474.936375 270.548186,476.165407 270.548186,477.384527 C268.502757,479.272676 264.576131,478.157627 264.576131,478.14276 C264.467947,478.118964 264.355851,478.118964 264.247668,478.14276 C261.870685,475.445017 259.263056,472.957798 256.454135,470.709101 C257.648546,458.547634 251.079285,446.192893 249.840084,443.947927 C253.064994,441.49482 254.602798,438.357816 253.945872,435.17621 C253.4497,432.467227 251.241398,430.394735 248.496371,430.061852 C246.659121,429.995088 244.870568,430.658294 243.524635,431.905399 C242.436534,432.87025 241.601189,434.084824 241.091022,435.443821 C234.32947,430.74231 226.015482,428.800255 217.859726,430.01725 C216.739966,430.165923 215.575415,430.388933 214.381004,430.656545 C214.261563,429.883444 213.619567,424.456873 216.710105,412.815762 C216.751097,412.679654 216.734408,412.532773 216.663913,412.409225 C216.593419,412.285677 216.475253,412.196211 216.336852,412.1616 C216.052614,412.085479 215.759762,412.251172 215.679926,412.533283 C212.410225,424.798821 213.216453,430.225392 213.335894,430.879554 C211.650673,431.277131 209.990531,431.773574 208.364158,432.366286 C206.303798,411.16549 210.618609,402.468109 214.634816,398.91482 C216.576865,397.157875 219.102826,396.178219 221.726632,396.164366 C221.327101,398.796385 220.661827,401.381531 219.740923,403.880504 C219.656104,404.133237 219.73371,404.411944 219.937118,404.585093 C220.140526,404.758243 220.429076,404.791224 220.666592,404.668472 L230.16216,399.509512 C230.16216,399.846505 230.16216,400.193409 230.16216,400.550225 C227.579246,403.226342 225.683119,407.166181 227.041761,409.470616 C227.638967,410.511328 228.982679,411.462836 231.953777,411.462836 C232.3121,411.462836 232.730144,411.462836 233.133258,411.462836 C232.819725,411.923723 232.506192,412.354876 232.23745,412.726559 C232.010835,413.03881 232.015349,413.461756 232.248577,413.769141 C232.481805,414.076526 232.889148,414.196392 233.252699,414.064617 C239.956332,411.566908 254.513217,405.218563 265.292777,394.737103 L265.382358,394.633032 C276.37094,408.013619 284.642237,447.025462 284.791539,447.590421 L305.828104,496.295756 L300.781718,498.273109 C295.197846,490.601573 277.729583,466.382711 271.205112,454.607795 C270.965888,453.917197 270.771397,453.212029 270.622837,452.496636 L259.753696,422.761999 C259.657683,422.496419 259.426681,422.302021 259.147704,422.252031 C258.868728,422.20204 258.584161,422.304053 258.401197,422.519642 C258.218234,422.735231 258.164669,423.031643 258.260682,423.297222 L269.099963,452.912921 C269.558137,454.905294 270.239225,456.840223 271.130462,458.68144 C270.622837,463.691726 270.578046,468.776349 270.518326,473.697432 L270.548186,473.697432 Z M272.593615,458.131349 C280.058685,470.60503 294.988824,491.374674 300.259163,498.525854 L299.348424,498.867802 C293.824273,491.567949 278.296928,470.590162 272.593615,458.131349 Z M299.691817,499.313822 L300.587626,498.971873 L301.901478,500.770819 L301.00567,501.053298 L299.691817,499.313822 Z M314.950419,504.740393 C314.710801,504.776667 314.525206,504.96815 314.497292,505.207895 C314.469378,505.44764 314.606052,505.67633 314.830978,505.766238 C316.142797,506.150717 317.37963,506.753964 318.488862,507.550316 L318.488862,507.550316 C317.473613,507.966601 312.367505,507.297572 305.171178,505.81084 C304.266063,505.652434 303.499342,505.056128 303.125749,504.220037 L302.319522,502.31702 L307.380839,500.696482 L308.53046,501.410114 C308.61218,501.457375 308.704711,501.48297 308.799202,501.48445 L328.521916,502.123745 C326.8796,503.030651 321.250938,504.220037 314.950419,504.740393 L314.950419,504.740393 Z" id="Shape"></path>
                    <path d="M205.870012,463.832647 C206.482791,463.948724 207.104881,464.004658 207.727919,463.999697 C211.525412,463.866915 215.209835,462.635374 218.359277,460.446099 C220.68649,458.991916 222.345298,456.631884 222.959809,453.900797 C223.106715,452.993459 222.846445,452.066438 222.252034,451.379868 C220.143457,448.707077 213.802981,447.264376 208.804326,447.066954 C202.49334,446.808787 197.627393,447.066954 197.00809,452.108811 C196.802338,457.715767 200.541731,462.662779 205.870012,463.832647 L205.870012,463.832647 Z M206.076446,448.069251 C206.902183,448.069251 207.801646,448.069251 208.774835,448.069251 C213.699764,448.266673 219.627372,449.679001 221.441043,451.987321 C221.837899,452.434942 222.016782,453.043469 221.927638,453.642629 C221.338206,456.077025 219.845255,458.176237 217.769465,459.489361 C214.319066,461.949544 209.276175,463.331499 206.076446,462.70886 C201.322285,461.546029 198.011247,457.109136 198.143478,452.078439 C198.48262,448.934871 201.063046,448.084438 206.076446,448.084438 L206.076446,448.069251 Z" id="Shape"></path>
                    <ellipse id="Oval" transform="translate(204.500000, 439.500000) rotate(-60.000000) translate(-204.500000, -439.500000) " cx="204.5" cy="439.5" rx="2.5" ry="1.5"></ellipse>
                    <ellipse id="Oval" transform="translate(225.000000, 441.500000) rotate(-60.000000) translate(-225.000000, -441.500000) " cx="225" cy="441.5" rx="3" ry="2.5"></ellipse>
                    <path d="M179.5483,89.9960724 L179.5483,89.9960724 C177.684471,89.9960724 172.427891,89.6567166 172.063862,87.6347217 C171.889128,86.6732136 173.068582,85.2592311 174.451893,83.6190114 C176.650629,80.989004 179.402688,77.7227044 179.227954,73.4807569 C179.205148,73.2085004 178.970485,72.9991036 178.689191,73.0000029 C178.405393,73.0152181 178.185784,73.2472887 178.194112,73.5231764 C178.354285,77.3974884 175.747836,80.4941101 173.651029,82.9827193 C172.049301,84.8774558 170.738796,86.3904171 171.044581,87.8043996 C171.583344,90.8161823 177.786399,91 179.30076,91 L179.562861,91 C179.815218,90.9587264 180,90.7465424 180,90.4980362 C180,90.24953 179.815218,90.0373461 179.562861,89.9960724 L179.5483,89.9960724 Z" id="Shape"></path>
                    <path d="M194.156842,77.2514107 C188.284164,77.6972515 184.56994,74.703749 184.457813,73.8120674 C184.442735,73.3584688 184.114527,72.9996769 183.714968,73.0000002 L183.714968,73.0000002 C183.307995,73.0256323 182.991982,73.4127981 183.000155,73.8757589 C183.090383,74.6438496 183.449071,75.3383038 183.995287,75.8024281 C186.597831,78.0108772 189.789771,79.1352869 193.035567,78.9870052 C193.446701,78.9870052 193.867179,78.9870052 194.297001,78.9870052 C194.496731,78.9748161 194.683694,78.8716387 194.815594,78.7008154 C194.947493,78.5299921 195.013181,78.305959 194.997798,78.0794007 C195.005453,77.8339801 194.914939,77.5978057 194.751586,77.4369714 C194.588233,77.2761371 194.369589,77.2079199 194.156842,77.2514107 Z" id="Shape"></path>
                    <path d="M214.462505,88.0211531 C214.992179,87.9163024 215.530455,88.1437225 215.872187,88.61674 C216.309674,89.3369846 216.200302,90.6528161 215.568376,92.2318139 C215.475297,92.3969258 215.475851,92.6089123 215.569793,92.7733888 C215.663734,92.9378653 215.833589,93.0242378 216.003731,92.99405 C216.173873,92.9638621 216.312654,92.8227291 216.358284,92.6334888 C217.123887,90.6943687 217.208954,89.0738183 216.58918,88.0488548 C216.077885,87.2872111 215.247805,86.8960891 214.413895,87.0238913 C214.297801,87.0310376 214.188978,87.0905588 214.111454,87.1893121 C214.033931,87.2880653 213.994084,87.4179276 214.000712,87.5502239 C214.006982,87.6825429 214.059205,87.8065754 214.145849,87.8949335 C214.232493,87.9832917 214.346431,88.0287077 214.462505,88.0211531 L214.462505,88.0211531 Z" id="Shape"></path>
                    <circle id="Oval" transform="translate(186.500000, 79.500000) rotate(-79.240000) translate(-186.500000, -79.500000) " cx="186.5" cy="79.5" r="1.5"></circle>
                    <circle id="Oval" transform="translate(174.500000, 74.500000) rotate(-79.240000) translate(-174.500000, -74.500000) " cx="174.5" cy="74.5" r="1.5"></circle>
                    <path d="M179.265465,98.1059578 C176.8149,99.1893263 174.835065,99.3193305 173.51979,98.4526357 C172.558331,97.7754405 171.982356,96.6439553 171.982995,95.4336489 C171.942582,95.1833067 171.734822,95 171.491497,95 C171.248173,95 171.040413,95.1833067 171,95.4336489 C171.008292,96.9813112 171.756146,98.4226227 172.99368,99.2759957 C173.786756,99.7730937 174.699361,100.023659 175.62423,99.9982414 C177.016508,99.9541621 178.386301,99.6202033 179.653125,99.0159873 C179.833239,98.9560053 179.965318,98.7948615 179.994155,98.5999104 C180.022993,98.4049592 179.943623,98.2097684 179.789222,98.0959233 C179.634821,97.9820782 179.431973,97.9691812 179.265465,98.062623 L179.265465,98.1059578 Z" id="Shape"></path>
                    <path d="M176.290783,103.88604 C176.200154,103.88604 174.085475,104.669819 172.01611,102.249729 C171.910309,102.080905 171.70577,101.984069 171.493188,102.002157 C171.280606,102.020245 171.099323,102.14991 171.029722,102.333658 C170.960121,102.517405 171.015083,102.721229 171.170238,102.854751 C172.11199,104.140534 173.673148,104.938031 175.369387,104.999832 C175.828702,105.004039 176.284774,104.9294 176.713719,104.779823 C176.961112,104.658688 177.066431,104.385951 176.956722,104.150538 C176.847013,103.915125 176.55839,103.79453 176.290783,103.872289 L176.290783,103.88604 Z" id="Shape"></path>
                </g>
            </g>
        </g>
    </g>
</svg>