<?xml version="1.0" encoding="UTF-8"?>
<svg width="1080px" height="577px" viewBox="0 0 1080 577" version="1.1" xmlns="http://www.w3.org/2000/svg" xmlns:xlink="http://www.w3.org/1999/xlink">
    <!-- Generator: Sketch 45.2 (43514) - http://www.bohemiancoding.com/sketch -->
    <title>illustration_how-bestow-works</title>
    <desc>Created with Sketch.</desc>
    <defs>
        <path d="M457.909145,112.218747 C427.884926,112.218747 403.545487,87.8624395 403.545487,57.8174112 C403.545487,27.7723829 427.884926,3.4160751 457.909145,3.4160751 C487.933365,3.4160751 512.272804,27.7723829 512.272804,57.8174112 C512.272804,87.8624395 487.933365,112.218747 457.909145,112.218747 Z M542.480252,318.141721 C527.468142,292.139985 536.391604,258.883258 562.411362,243.860744 C588.431119,228.83823 621.69402,237.738649 636.70613,263.740385 C651.718239,289.742122 642.794777,322.998848 616.77502,338.021362 C590.755262,353.043876 557.492361,344.143458 542.480252,318.141721 Z M406.571106,494.422974 C421.583216,468.421237 454.846117,459.520819 480.865874,474.543333 C506.885632,489.565847 515.809094,522.822573 500.796984,548.82431 C485.784875,574.826047 452.521974,583.726465 426.502216,568.703951 C400.482458,553.681437 391.558997,520.424711 406.571106,494.422974 Z M186.090855,464.781253 C216.115074,464.781253 240.454513,489.13756 240.454513,519.182589 C240.454513,549.227617 216.115074,573.583925 186.090855,573.583925 C156.066635,573.583925 131.727196,549.227617 131.727196,519.182589 C131.727196,489.13756 156.066635,464.781253 186.090855,464.781253 Z M101.519748,258.858279 C116.531858,284.860015 107.608396,318.116742 81.5886384,333.139256 C55.5688807,348.16177 22.3059799,339.261351 7.29387028,313.259615 C-7.71823939,287.257878 1.20522252,254.001152 27.2249803,238.978638 C53.2447381,223.956124 86.5076388,232.856542 101.519748,258.858279 Z M237.428894,82.577026 C222.416784,108.578763 189.153883,117.479181 163.134126,102.456667 C137.114368,87.4341527 128.190906,54.1774265 143.203016,28.1756898 C158.215125,2.17395316 191.478026,-6.72646526 217.497784,8.2960489 C243.517542,23.3185631 252.441003,56.5752893 237.428894,82.577026 Z" id="path-1"></path>
    </defs>
    <g id="Page-1" stroke="none" stroke-width="1" fill="none" fill-rule="evenodd">
        <g id="Pre-Launch" transform="translate(-160.000000, -4784.000000)">
            <g id="illustration_how-bestow-works" transform="translate(160.000000, 4784.000000)">
                <rect id="Rectangle-2-Copy-8" fill="#FFFFFF" x="0" y="0" width="1080" height="576.860535"></rect>
                <g id="Group-14" transform="translate(218.000000, 0.000000)">
                    <path d="M287.996814,310.478824 C281.631001,285.734016 282.757563,254.455932 287.910723,229.731898 C290.495912,217.317943 296.737509,211.973758 301.864841,211.973758 C302.235033,211.973758 302.597845,212.001866 302.953277,212.054416 C307.854314,212.804777 312.573329,219.009311 311.352067,230.856218 C307.760844,265.734569 298.217044,291.760124 287.996814,310.478824 L287.996814,310.478824 Z M347.709518,295.456936 C339.113949,292.360169 335.906445,287.418051 335.769929,284.128194 C335.726884,283.050313 335.960559,281.102307 338.039041,280.156412 C338.72162,279.843558 339.591139,279.661467 340.618081,279.661467 C344.054341,279.661467 349.304661,281.684021 355.634808,287.564701 C359.43388,291.089199 362.400329,295.389722 364.450524,300.095977 C359.063689,299.074313 353.461625,297.533261 347.709518,295.456936 L347.709518,295.456936 Z M440.569709,323.59548 C439.639926,320.723576 436.54803,319.128753 433.632006,320.055095 L417.563739,325.186636 C414.661243,326.111756 413.06733,329.197524 414.000803,332.080427 C414.930585,334.959663 418.029861,336.583816 420.938506,335.619589 L424.831048,334.377949 C410.094732,366.130203 381.442424,389.643148 347.056457,397.831128 C317.14476,404.966892 286.22703,400.089544 260.006177,384.110762 C233.781635,368.133203 215.392601,342.963108 208.222452,313.237074 C193.413574,251.887106 231.605992,189.996976 293.354133,175.278165 C337.777079,164.70956 383.586089,179.909873 410.061525,214.007311 C428.766636,238.092193 432.06269,265.613582 418.457856,284.117195 C409.511773,296.287955 394.736101,302.183301 376.778752,301.525818 C374.304252,293.259625 369.697154,285.619139 363.168998,279.55759 C348.230983,265.677131 337.403198,268.388941 333.439323,270.191519 C327.820042,272.753012 324.487091,278.265845 324.749054,284.577922 C325.122935,293.640916 332.301692,301.562481 343.946112,305.76157 C352.090319,308.701911 359.997161,310.67558 367.54611,311.709466 C368.231148,317.879781 367.488306,324.208967 365.168769,330.054207 C359.667555,343.909003 346.854758,351.855009 330.017822,351.855009 C318.1963,351.855009 308.396687,347.209858 300.892013,338.046653 C297.702957,334.156752 295.013229,329.59348 292.776094,324.519377 C305.390882,304.306065 317.962625,274.340502 322.326208,231.969539 C324.279243,213.007644 314.522675,202.73845 304.633281,201.223063 C294.377386,199.617241 281.343211,207.191734 277.108765,227.508923 C270.810595,257.723791 270.275601,295.235739 280.348246,323.074871 C267.453047,342.217635 255.560193,350.353065 255.219518,350.581595 C252.681064,352.243633 251.972659,355.637367 253.642824,358.16342 C255.316678,360.700472 258.741869,361.414171 261.276634,359.741134 C262.243313,359.112982 273.181787,351.77313 285.660059,334.974328 C287.634002,338.585593 289.85392,341.938999 292.33457,344.968552 C302.038253,356.811793 314.716995,362.817126 330.017822,362.817126 C351.308121,362.817126 368.285262,352.072541 375.430814,334.074872 C378.185725,327.130976 379.259403,319.774015 378.774833,312.558816 C399.367796,312.787346 416.550326,305.294733 427.365812,290.586921 C443.942016,268.04309 440.577088,235.354719 418.79484,207.313942 C389.661653,169.789774 339.415267,153.037412 290.783702,164.616682 C223.117422,180.748225 181.268596,248.564252 197.493057,315.792457 C205.353163,348.36473 225.504602,375.947224 254.243001,393.456058 C274.344015,405.705032 296.960115,412 319.959935,412 C329.834571,412 339.784228,410.836574 349.626887,408.492612 C386.898132,399.614153 418.026171,374.313294 434.323193,340.093648 L435.233298,342.910558 C435.984749,345.232522 438.149323,346.713691 440.483618,346.713691 C441.03952,346.713691 441.61141,346.631811 442.171001,346.449721 C445.072267,345.525823 446.66741,342.435166 445.732708,339.55593 L440.569709,323.59548 Z" id="Fill-1" stroke="#FFFFFF" stroke-width="4" fill="#4796C6"></path>
                    <ellipse id="Oval-4" stroke="#5F6974" stroke-width="1.5" stroke-linecap="round" stroke-dasharray="6,6" cx="319.5" cy="288" rx="268.5" ry="269"></ellipse>
                    <g id="Oval-5">
                        <use fill="#FFFFFF" fill-rule="evenodd" xlink:href="#path-1"></use>
                        <path stroke="#676E77" stroke-width="1" d="M457.909145,111.718747 C487.657145,111.718747 511.772804,87.5863747 511.772804,57.8174112 C511.772804,28.0484478 487.657145,3.9160751 457.909145,3.9160751 C428.161146,3.9160751 404.045487,28.0484478 404.045487,57.8174112 C404.045487,87.5863747 428.161146,111.718747 457.909145,111.718747 Z M542.913264,317.891721 C557.787264,343.654245 590.744341,352.472831 616.52502,337.58835 C642.305698,322.703868 651.147117,289.752908 636.273117,263.990385 C621.399117,238.227862 588.44204,229.409275 562.661362,244.293757 C536.880683,259.178239 528.039265,292.129198 542.913264,317.891721 Z M407.004119,494.672974 C392.130119,520.435497 400.971538,553.386457 426.752216,568.270938 C452.532895,583.15542 485.489972,574.336833 500.363972,548.57431 C515.237971,522.811787 506.396553,489.860828 480.615874,474.976346 C454.835196,460.091864 421.878119,468.910451 407.004119,494.672974 Z M186.090855,465.281253 C156.342855,465.281253 132.227196,489.413625 132.227196,519.182589 C132.227196,548.951552 156.342855,573.083925 186.090855,573.083925 C215.838854,573.083925 239.954513,548.951552 239.954513,519.182589 C239.954513,489.413625 215.838854,465.281253 186.090855,465.281253 Z M101.086736,259.108279 C86.2127361,233.345755 53.2556589,224.527169 27.4749803,239.41165 C1.6943017,254.296132 -7.14711671,287.247092 7.72688298,313.009615 C22.6008827,338.772138 55.5579598,347.590725 81.3386384,332.706243 C107.119317,317.821761 115.960735,284.870802 101.086736,259.108279 Z M236.995881,82.327026 C251.869881,56.5645028 243.028462,23.6135433 217.247784,8.7290616 C191.467105,-6.15542013 158.510028,2.66316665 143.636028,28.4256898 C128.762029,54.188213 137.603447,87.1391725 163.384126,102.023654 C189.164804,116.908136 222.121881,108.089549 236.995881,82.327026 Z"></path>
                    </g>
                </g>
            </g>
        </g>
    </g>
</svg>