<?xml version="1.0" encoding="UTF-8"?>
<svg width="180px" height="180px" viewBox="0 0 180 180" version="1.1" xmlns="http://www.w3.org/2000/svg" xmlns:xlink="http://www.w3.org/1999/xlink">
    <!-- Generator: Sketch 45.2 (43514) - http://www.bohemiancoding.com/sketch -->
    <title>illustration_who-we-are-2</title>
    <desc>Created with Sketch.</desc>
    <defs></defs>
    <g id="Page-1" stroke="none" stroke-width="1" fill="none" fill-rule="evenodd">
        <g id="Pre-Launch" transform="translate(-610.000000, -956.000000)">
            <g id="illustration_who-we-are-2" transform="translate(610.000000, 956.000000)">
                <rect id="Rectangle-2-Copy-14" fill-opacity="0.01" fill="#F7F9FA" x="0" y="0" width="180" height="180" rx="90"></rect>
                <g id="Who-We-Are-Copy" transform="translate(52.000000, 25.000000)" fill-rule="nonzero" fill="#47535E">
                    <path d="M38,0 C17,0 0,17.89 0,39.88 C0.00205182641,40.2247242 0.258213927,40.5150413 0.6,40.56 C0.87,40.56 7.2,41.49 10.26,50.15 C10.3443778,50.3873149 10.5513599,50.5597999 10.8,50.6 L11.73,50.76 C11.73,50.82 11.73,50.88 11.78,50.93 L26.93,69.12 L8.32,80 L8.32,80 C8.229257,80.0578828 8.1537946,80.1367753 8.1,80.23 L8.1,80.31 C8.06645156,80.3824778 8.04613185,80.46037 8.04,80.54 C8.04,80.54 8.04,80.54 8.04,80.59 L8.04,113.59 C8.04014999,113.838423 8.17382983,114.067589 8.39,114.19 L36.58,130.06 C36.631675,130.140139 36.6998608,130.208325 36.78,130.26 C36.8867782,130.320118 37.0074669,130.351152 37.13,130.35 L37.21,130.35 L37.29,130.35 C37.4125331,130.351152 37.5332218,130.320118 37.64,130.26 C37.7201392,130.208325 37.788325,130.140139 37.84,130.06 L66,114.27 C66.2161702,114.147589 66.34985,113.918423 66.35,113.67 L66.35,80.67 C66.35,80.67 66.35,80.67 66.35,80.62 C66.3450708,80.5369692 66.324724,80.4555821 66.29,80.38 L66.29,80.31 C66.2294889,80.1779655 66.1277118,80.0691693 66,80 L47.32,69.16 L62.5,51 C63.1,50.89 63.69,50.8 64.27,50.74 C64.5488005,50.7137338 64.7829895,50.5192378 64.86,50.25 C67.08,42.74 75.41,39.71 75.5,39.68 C75.7789903,39.5813932 75.9640478,39.3158758 75.96,39.02 C75.55,17.53 58.51,0 38,0 Z M74.36,35.9 C71.56,28.42 62.36,9.9 38.82,5.9 C45.7139802,4.55658502 52.8582446,5.50845113 59.16,8.61 C67.8075347,15.1916405 73.3167772,25.0829054 74.36,35.9 Z M64.25,80.63 L50.5,88.47 C50.5199243,88.3821373 50.4842643,88.2910063 50.41,88.24 L37.57,80.79 L38.32,79.89 L50.74,72.74 L64.25,80.63 Z M37.14,96.09 L23.59,88.37 L36.67,80.84 L36.74,80.93 L36.74,80.93 C36.8203878,81.0163363 36.9320773,81.0667767 37.05,81.07 L37.05,81.07 L50.05,88.63 L50.05,88.63 L37.14,96.09 Z M23.14,72.94 L36.27,80.55 L23.13,88.1 L10,80.63 L23.14,72.94 Z M23,89.63 L36.34,97.24 L36.34,128.5 L23,121 C23.0111199,120.960773 23.0111199,120.919227 23,120.88 L23,89.63 Z M37.1,79.44 L32.1,67.65 L37.02,64.76 L41.88,67.6 L37.1,79.44 Z M42.73,68.07 L45.63,69.76 L38.63,78.1 L42.73,68.07 Z M35.5,78 L28.62,69.73 L31.35,68.13 L35.5,78 Z M37.41,63.39 C37.1965133,63.2667434 36.9334867,63.2667434 36.72,63.39 L31.61,66.39 L27.36,56.26 C29.03,55.39 36.36,52.19 46.61,56.14 L42.45,66.32 L37.41,63.39 Z M47.23,54.91 C36.42,50.68 28.8,54 26.79,55 C24,22.14 36.23,7.82 37.69,6.23 C39.06,7.84 50,21.95 47.22,54.9 L47.23,54.91 Z M32.07,1.91 C33.9866262,2.72256563 35.6955923,3.95643922 37.07,5.52 C30.5703697,4.21290392 23.8236585,5.00066211 17.8,7.77 C22.0681326,4.79349662 26.9407489,2.79596296 32.07,1.92 L32.07,1.91 Z M57.34,7.31 C51.3307608,4.81630428 44.7092373,4.19248706 38.34,5.52 C39.7690762,3.9628484 41.5011409,2.71399229 43.43,1.85 C48.4036682,2.65470089 53.1469607,4.51655402 57.34,7.31 L57.34,7.31 Z M42.62,1.72 C40.7272441,2.62473578 39.0523524,3.92780838 37.71,5.54 C36.4201584,3.92053674 34.7602914,2.63448275 32.87,1.79 C34.5672878,1.52355806 36.2819768,1.38317417 38,1.37 C39.5461259,1.38246392 41.0896422,1.49939698 42.62,1.72 L42.62,1.72 Z M16,9.11 C22.2921518,5.72170169 29.5511478,4.578886 36.58,5.87 C13.44,9.82 4.4,28.38 1.58,36.27 C2.46398566,25.6238109 7.67638468,15.8062826 16,9.11 L16,9.11 Z M1.37,39.31 C1.37,38.87 1.43,38.44 1.45,38 C3.49,31.55 11.86,10.89 36,6.43 C30.65,9.19 13.22,20.21 10.84,47.92 C7.88,41.39 3.07,39.71 1.37,39.31 Z M11.22,48.84 C13.36,19.57 32.32,8.72 36.8,6.55 C34.2263346,9.80613804 32.1751206,13.4429944 30.72,17.33 C27.88,24.5 24.86,36.78 26.31,54.76 C21.62,51.21 13.36,49.64 11.41,49.32 C11.36,49.15 11.29,49 11.22,48.85 L11.22,48.84 Z M13.06,51 C16.45,51.72 22.82,53.39 26.17,56.37 C26.2594807,56.4306855 26.3624997,56.4684591 26.47,56.48 L30.81,66.81 L27.72,68.62 L13.06,51 Z M35.78,79.75 L23.58,72.67 L27.82,70.18 L35.78,79.75 Z M9.35,81.82 L22.58,89.37 L22.58,120.73 L9.35,113.28 L9.35,81.82 Z M64.94,113.28 L37.94,128.5 L37.94,97.24 L64.94,81.82 L64.94,113.28 Z M50.28,72.48 L39.17,78.87 L46.42,70.22 L50.28,72.48 Z M46.51,68.69 L43.24,66.78 L47.5,56.37 C47.5728464,56.3618012 47.6438179,56.3415236 47.71,56.31 C51.9786281,54.1862347 56.4558818,52.5106158 61.07,51.31 L46.51,68.69 Z M47.68,54.79 C50.25,24.34 41.05,9.87 38.51,6.52 C42.82,8.66 61.7,19.68 63.73,49.34 L63.73,49.47 C57.44,50.23 49.86,53.74 47.69,54.8 L47.68,54.79 Z M64.1,48.34 C61.81,20.34 44.5,9.16 39.28,6.41 C64.06,10.9 72.58,31.87 74.48,37.65 C74.48,37.98 74.55,38.29 74.56,38.65 C72.81,39.34 66.71,42.22 64.11,48.35 L64.1,48.34 Z" id="Shape"></path>
                    <path d="M44.86,115.84 C45.7133693,116.430896 46.7323368,116.735536 47.77,116.71 C51.1,116.71 55.33,114.08 58.45,109.71 C58.75,109.28 59.01,108.85 59.28,108.42 L59.9,108.42 L59.96,107.31 C59.9648053,107.149108 59.8851628,106.997408 59.75,106.91 C59.6113455,106.827494 59.4386545,106.827494 59.3,106.91 L58.36,107.37 L58.58,107.83 C58.3,108.28 58.03,108.74 57.71,109.19 C53.87,114.55 48.36,117.19 45.4,115.09 C42.44,112.99 43.17,106.9 47.01,101.54 C49.62,97.89 53.22,95.28 56.18,94.89 C57.2733195,94.6794324 58.4045554,94.9449637 59.29,95.62 C62.39,98.16 61.29,102.44 59.48,104.62 C59.0348218,105.196555 58.4767968,105.67632 57.84,106.03 C57.9212044,105.529977 57.8257371,105.017282 57.57,104.58 C57.2993554,104.034424 56.7147582,103.718101 56.11,103.79 C55.4318742,103.948827 54.9038545,104.480729 54.75,105.16 C54.5778779,105.702953 54.7518558,106.296059 55.19,106.66 C55.5765954,106.971299 56.0459273,107.162509 56.54,107.21 C56.2706028,107.815059 55.9352386,108.388532 55.54,108.92 C54.44,110.38 53.15,111.3 52.44,111.08 C52.09,110.97 51.84,110.51 51.73,109.76 C53.5283018,106.929855 54.9502658,103.877507 55.96,100.68 C56.1,100.11 56.52,98.39 55.52,97.85 C55.1516532,97.6651326 54.7105362,97.7038271 54.38,97.95 C52.66,99.05 50.52,104.95 50.77,109.27 C50.77,109.37 50.77,109.47 50.77,109.57 C49.61,111.4 48.57,112.71 48.11,112.79 L48.11,113.7 C48.79,113.7 49.87,112.5 51.02,110.81 C51.1769215,111.365584 51.5949371,111.809726 52.14,112 C53.45,112.41 55.14,111 56.23,109.52 C56.7809735,108.800755 57.2255333,108.005936 57.55,107.16 C58.6049764,106.803771 59.5237339,106.129549 60.18,105.23 C62.18,102.71 63.44,97.85 59.86,94.91 C58.7744301,94.084481 57.3914577,93.7541647 56.05,94 C52.85,94.42 49.05,97.18 46.26,101 C42.13,106.78 41.51,113.44 44.86,115.84 Z M54.86,98.78 C54.9009112,98.7443292 54.948498,98.7171368 55,98.7 L55,98.7 C55.11,98.76 55.25,99.09 55.1,99.96 C54.74,102.08 53.17,105.42 51.58,108.17 C51.75,104.23 53.6,99.56 54.83,98.78 L54.86,98.78 Z M56.86,106.36 C56.4615132,106.379545 56.0698278,106.251357 55.76,106 C55.6139062,105.852875 55.5670193,105.63407 55.64,105.44 C55.718125,105.11846 55.9502485,104.856385 56.26,104.74 L56.26,104.74 C56.47,104.74 56.64,104.94 56.76,105.12 C56.9494949,105.506069 56.9817602,105.950614 56.85,106.36 L56.86,106.36 Z" id="Shape"></path>
                </g>
            </g>
        </g>
    </g>
</svg>