<?xml version="1.0" encoding="UTF-8"?>
<svg width="550px" height="351px" viewBox="0 0 550 351" version="1.1" xmlns="http://www.w3.org/2000/svg" xmlns:xlink="http://www.w3.org/1999/xlink">
    <!-- Generator: Sketch 45.2 (43514) - http://www.bohemiancoding.com/sketch -->
    <title>illustration_backed-by-giants</title>
    <desc>Created with Sketch.</desc>
    <defs></defs>
    <g id="Page-1" stroke="none" stroke-width="1" fill="none" fill-rule="evenodd">
        <g id="Pre-Launch" transform="translate(-700.000000, -3471.000000)">
            <g id="illustration_backed-by-giants" transform="translate(700.000000, 3471.000000)">
                <rect id="Rectangle-2-Copy-6" fill="#FFFFFF" x="0" y="0" width="550" height="350"></rect>
                <g id="Illo-Color-05" transform="translate(150.000000, 1.000000)">
                    <path d="M128.949508,111.161363 C127.805036,104.653648 126.189343,98.2367467 124.115059,91.9608083 C124.016922,91.6755742 123.876573,91.4065006 123.698646,91.1624695 C123.689809,89.7698101 123.591429,88.37914 123.40411,86.9989808 C122.967385,83.9673143 122.083777,80.8548034 119.971244,78.5608424 C117.686053,76.0849814 114.364908,75.4685426 111.480488,73.9527093 C104.371003,70.2641817 98.1045002,64.7869709 91.3708023,60.4921101 C84.0277201,55.8132381 76.4815097,51.4678495 68.7829531,47.3548886 C66.832923,46.3443331 64.1008495,47.5772108 64.2024136,49.9722273 C64.4766366,56.8945325 59.3882767,62.7355433 57.9866925,69.4658429 C57.8393163,69.6046417 57.6795391,69.729794 57.5093414,69.8397484 C56.5745857,70.3833945 56,71.3797797 56,72.4570872 C56,73.5343947 56.5745857,74.5307798 57.5093414,75.0744259 L121.037667,111.777802 C121.536415,112.077108 122.110931,112.227909 122.693162,112.21234 C122.926759,112.616563 123.170513,113.020785 123.393954,113.435113 C125.130699,116.66889 129.518267,114.385035 128.949508,111.161363 Z M117.675896,91.4050028 C117.540478,90.5898213 117.398288,89.7780084 117.249327,88.969564 L117.614958,88.7775585 C117.675896,89.6466362 117.686053,90.535925 117.675896,91.4050028 Z M70.275945,56.4599936 L70.2048501,56.3993603 C70.0756845,56.2964515 69.9399843,56.201937 69.7985939,56.1164048 C69.7142977,55.9467632 69.6157698,55.784499 69.504058,55.6313381 C69.5853093,55.3786992 69.6462477,55.1159548 69.7071862,54.8532104 L71.1595524,55.6616548 C70.8178699,55.8710255 70.518251,56.141731 70.275945,56.4599936 L70.275945,56.4599936 Z" id="Shape" fill="#B5D5E8" fill-rule="nonzero"></path>
                    <path d="M187.941718,89.2719453 L187.817976,88.5560469 C187.92594,87.7979677 187.960466,87.0316145 187.921094,86.2671888 C187.423318,78.3813634 185.748838,70.6091037 182.950803,63.197112 C182.633186,62.208261 181.81991,61.4472701 180.795635,61.1804969 C179.977565,57.5102574 179.193867,53.8332959 178.444542,50.1496123 C177.908328,47.4675142 174.113583,47.3767666 172.793671,49.4236309 C170.824116,52.4485535 165.575406,54.1324272 162.481863,55.71547 L150.850143,61.6039861 L127.56608,73.3911014 C126.804943,73.7595836 126.254622,74.4443809 126.068473,75.2546657 C125.882323,76.0649504 126.080244,76.9141025 126.607082,77.5654946 C126.435966,78.0512162 126.389924,78.5706907 126.473028,79.0779559 C128.481148,90.8585714 132.156481,102.308532 137.393233,113.098253 L137.393233,113.098253 C136.482328,114.22424 136.506343,115.821211 137.450712,116.920522 C138.395082,118.019834 139.999621,118.318613 141.291097,117.635637 C146.741744,115.261904 151.857196,112.211914 156.511326,108.560869 C157.386176,107.877695 157.707458,106.71899 157.305335,105.697275 C158.027162,105.404866 158.748988,105.12254 159.50175,104.86038 C166.169524,102.460961 172.588397,99.4459493 178.671402,95.8561936 C180.898753,94.6159753 182.919867,93.9404092 184.507886,93.0732647 C185.520558,93.1376979 186.50668,92.7400351 187.178504,91.9963137 C187.850327,91.2525922 188.132143,90.2466227 187.941718,89.2719453 L187.941718,89.2719453 Z" id="Shape" fill="#F0F7FB" fill-rule="nonzero"></path>
                    <path d="M50.9182167,222.345413 C49.4132049,221.326223 47.9384954,220.23569 46.4132821,219.216501 C45.1506883,218.370573 43.8476915,217.595989 42.5244932,216.882557 L42.2315714,216.729678 C38.1912713,214.53842 33.8378479,212.81599 29.625835,210.838762 C29.2015534,210.670136 28.9055935,210.277201 28.858178,209.819573 C28.0606537,209.575252 27.2362258,209.431472 26.4036957,209.391513 C22.9024565,207.870233 19.4805715,206.169364 16.1514341,204.295565 C15.9088739,204.157086 15.6465067,204.057381 15.3736763,204 C13.7070525,205.457441 13.1414105,207.954456 13,210.176289 C13.4382507,210.323473 13.7776429,210.677343 13.9090675,211.124135 C14.8158064,214.364966 15.4609955,217.674556 15.8383108,221.020466 C16.384819,223.003993 16.7732525,225.028441 16.9998971,227.074452 C17.0561415,227.46561 16.9292703,227.860953 16.6564716,228.144602 C16.9392926,230.631424 17.2423151,233.118247 17.6665467,235.584686 C17.6820252,235.71672 17.6820252,235.850135 17.6665467,235.98217 C18.4382237,236.057668 19.2063525,235.806696 19.7877042,235.289121 C19.3331705,228.939569 18.4039014,221.530061 21.696746,216.36277 C21.9760697,215.904155 22.4713099,215.624722 23.0047932,215.624722 C23.5382765,215.624722 24.0335167,215.904155 24.3128404,216.36277 C26.2824867,219.420339 25.3229154,222.773472 26.0299679,226.157182 C26.8683302,230.468354 28.5147525,234.310699 28.3026367,238.795133 C28.2896847,239.065509 28.2098147,239.328305 28.0703195,239.559525 C28.9647004,239.776195 29.9082022,239.571239 30.6349861,239.002403 C31.3617701,238.433567 31.7931558,237.562434 31.8075971,236.634451 C31.8445767,231.934437 31.387487,227.243717 30.4439958,222.640978 C30.9646454,221.831772 31.8332641,221.317987 32.7873699,221.25488 C36.82767,220.755477 38.1710698,230.947373 38.6256036,233.424004 C39.6356786,238.907244 37.8074428,248.711848 44.0194043,251.657306 C45.6759273,252.43189 48.0597044,251.922295 48.4738352,249.832956 C49.215085,246.155229 50.3883209,242.57981 51.9686948,239.182425 C53.0999788,236.828097 54.9989199,234.687799 55.6958716,232.1704 C56.9685662,227.961147 54.0292478,224.80166 50.9182167,222.345413 Z" id="Shape" fill="#B5D5E8" fill-rule="nonzero"></path>
                    <path d="M148.486177,313.036048 C152.50548,314.75071 156.555701,316.393499 160.471945,318.364847 C168.716669,322.471821 176.136921,328.190782 184.505317,332 C184.68411,331.880628 184.849904,331.742983 185,331.589303 C183.9447,329.879362 183.100383,328.048792 182.485359,326.137295 C181.993222,323.474476 181.731179,320.774518 181.70211,318.067091 C179.964556,313.270304 178.542761,308.365759 177.445771,303.38466 C176.806805,300.448174 176.817111,296.854571 174.93113,294.359585 C173.179126,292.039145 169.963684,290.642774 167.438737,289.400414 C160.441027,285.950556 153.13414,283.239953 146.249796,279.574479 C139.841776,276.104065 133.690684,272.182199 127.843448,267.838801 C127.390892,266.785951 126.408562,266.053911 125.266972,265.918791 L124.978407,265.703175 C124.140705,265.034718 123.023462,264.82674 122,265.148734 C122.1178,265.286327 122.211834,265.442465 122.278259,265.610768 C122.814633,267.384712 123.248196,269.187911 123.576804,271.011439 C123.681059,271.387237 123.631003,271.788915 123.437673,272.127905 C123.244344,272.466895 122.923617,272.715358 122.546213,272.818507 C123.793228,278.56827 126.462457,283.712255 128.379355,289.379879 C129.409946,292.562784 129.152298,296.197456 130.378701,299.226349 C131.481433,301.957486 134.665958,303.620811 136.912645,305.30467 C140.004417,307.635378 143.096188,309.945551 146.301325,312.194119 C147.033044,312.420002 147.754458,312.728025 148.486177,313.036048 Z" id="Shape" fill="#B5D5E8" fill-rule="nonzero"></path>
                    <path d="M236.04993,281.06674 C234.447936,279.880093 233.46772,278.035629 233.381962,276.046447 C233.381133,274.955545 232.796313,273.948219 231.848395,273.404948 C230.900478,272.861677 229.733939,272.865262 228.789392,273.414351 C221.05025,276.991563 213.300925,280.528126 205.826542,284.664278 C198.35216,288.80043 191.274918,295.05039 183.138636,297.875575 C181.982599,298.238345 181.15072,299.248763 181.018347,300.450921 C180.885975,301.653079 181.478139,302.81967 182.527651,303.424319 C184.876548,315.931013 187.592037,328.356407 190.674116,340.700501 C191.111989,342.428132 193.586478,343.749262 195.164856,342.519595 C204.533776,335.325588 214.727475,329.270153 225.530806,324.481094 C227.39431,323.657928 227.384127,320.975019 226.151974,319.694539 C223.402542,316.828704 220.154139,314.044169 217.720382,310.903946 C214.594176,306.838931 215.469921,303.536107 217.435256,299.196704 C220.490181,292.428455 226.090876,286.808573 233.830018,286.269958 C236.284141,286.148008 238.239293,282.906159 236.04993,281.06674 Z" id="Shape" fill="#F0F7FB" fill-rule="nonzero"></path>
                    <polyline id="Shape" stroke="#46525E" stroke-linecap="round" stroke-linejoin="round" points="10 201 0 231.307925 6.38436482 235"></polyline>
                    <path d="M49,78 L13,193" id="Shape" stroke="#46525E" stroke-linecap="round" stroke-linejoin="round"></path>
                    <polyline id="Shape" stroke="#46525E" stroke-linecap="round" stroke-linejoin="round" points="137 120 125.881779 75.1670811 61.1772122 38 51 70.437096"></polyline>
                    <path d="M179,288 L140,130" id="Shape" stroke="#46525E" stroke-linecap="round" stroke-linejoin="round"></path>
                    <polyline id="Shape" stroke="#46525E" stroke-linecap="round" stroke-linejoin="round" points="114 261 124.745675 304.121479 192 343 181.294913 299.481697"></polyline>
                    <polyline id="Shape" stroke="#46525E" stroke-linecap="round" stroke-linejoin="round" points="65 222.262332 65.0811287 222 110.44224 246.76009 111 249"></polyline>
                    <polyline id="Shape" stroke="#46525E" stroke-linecap="round" stroke-linejoin="round" points="38 253.313557 52.0613188 262 62 230"></polyline>
                    <path d="M27,247 L29,249" id="Shape" stroke="#46525E" stroke-linecap="round" stroke-linejoin="round"></path>
                    <path d="M15,240 L18,242" id="Shape" stroke="#46525E" stroke-linecap="round" stroke-linejoin="round"></path>
                    <path d="M94,238 L52,262" id="Shape" stroke="#46525E" stroke-width="0.75" stroke-linecap="round" stroke-linejoin="round"></path>
                    <path d="M29,243 L30,243.78" id="Shape" stroke="#46525E" stroke-width="0.75" stroke-linecap="round" stroke-linejoin="round"></path>
                    <path d="M17,235 L19,235.91" id="Shape" stroke="#46525E" stroke-width="0.75" stroke-linecap="round" stroke-linejoin="round"></path>
                    <path d="M16,204 L14,211" id="Shape" stroke="#46525E" stroke-width="0.75" stroke-linecap="round" stroke-linejoin="round"></path>
                    <path d="M54,81 L18,196" id="Shape" stroke="#46525E" stroke-width="0.75" stroke-linecap="round" stroke-linejoin="round"></path>
                    <polyline id="Shape" stroke="#46525E" stroke-width="0.75" stroke-linecap="round" stroke-linejoin="round" points="130 115 120.690386 77.2755102 65.6475513 45 57 72.6836735"></polyline>
                    <path d="M172,284 L132,126" id="Shape" stroke="#46525E" stroke-width="0.75" stroke-linecap="round" stroke-linejoin="round"></path>
                    <polyline id="Shape" stroke="#46525E" stroke-width="0.75" stroke-linecap="round" stroke-linejoin="round" points="122 265 130.918227 301.262781 184 332 174.959606 295.410986"></polyline>
                    <polyline id="Shape" stroke="#46525E" stroke-width="0.75" stroke-linecap="round" stroke-linejoin="round" points="59 219.495868 60.7128046 214 115.706065 244.547521 118 254"></polyline>
                    <polyline id="Shape" stroke="#46525E" stroke-width="0.75" stroke-linecap="round" stroke-linejoin="round" points="40 249.967668 47.8974985 255 56 228"></polyline>
                    <polyline id="Shape" stroke="#46525E" stroke-width="0.75" stroke-linecap="round" stroke-linejoin="round" points="190 176 207.923514 165 213 168.006883"></polyline>
                    <polyline id="Shape" stroke="#46525E" stroke-linecap="round" stroke-linejoin="round" points="236.908058 201.20727 260 213.857205 260 240.712895 236.663267 227.940935 236.663267 255 213.336733 242.22804 213.336733 214.30463 190 201.512332 190 201.512332 190 174.768498 213.336733 187.540459 213.336733 187.540459 213.336733 161 236.683666 173.782129 236.673466 201.044569"></polyline>
                    <polygon id="Shape" stroke="#46525E" stroke-width="0.5" fill="#96CC72" fill-rule="nonzero" stroke-linecap="round" stroke-linejoin="round" points="234.425512 203.163172 234.425512 175.731261 216.595113 166 216.595113 192.735358 212.315405 190.399855 193 179.859364 193 200.264281 215.099794 212.331044 216.595113 213.150518 216.595113 241.278983 234.415199 251 234.415199 223.72174 238.684595 226.07773 258 236.618221 258 216.131357"></polygon>
                    <path d="M279,230 L261,241" id="Shape" stroke="#46525E" stroke-width="0.75" stroke-linecap="round" stroke-linejoin="round"></path>
                    <polyline id="Shape" stroke="#46525E" stroke-width="0.75" stroke-linecap="round" stroke-linejoin="round" points="213 160.759285 232.190245 150 255.301079 162.604893 255.301079 190.897452 278.979365 203.43136 279 230"></polyline>
                    <path d="M279,204 L261,214" id="Shape" stroke="#46525E" stroke-linecap="round" stroke-linejoin="round"></path>
                    <path d="M255,164 L237,175" id="Shape" stroke="#46525E" stroke-linecap="round" stroke-linejoin="round"></path>
                    <path d="M255,192 L237,202" id="Shape" stroke="#46525E" stroke-linecap="round" stroke-linejoin="round"></path>
                    <polyline id="Shape" stroke="#46525E" stroke-width="0.75" stroke-linecap="round" stroke-linejoin="round" points="255 238 255 244.898697 237 255"></polyline>
                    <path d="M229,322 L192,342" id="Shape" stroke="#46525E" stroke-width="0.75" stroke-linecap="round" stroke-linejoin="round"></path>
                    <path d="M233,320 L231,321" id="Shape" stroke="#46525E" stroke-width="0.75" stroke-linecap="round" stroke-linejoin="round"></path>
                    <path d="M234,270 L238,285" id="Shape" stroke="#46525E" stroke-width="0.75" stroke-linecap="round" stroke-linejoin="round"></path>
                    <path d="M229,252 L232,263" id="Shape" stroke="#46525E" stroke-width="0.75" stroke-linecap="round" stroke-linejoin="round"></path>
                    <path d="M191,101 L207,165" id="Shape" stroke="#46525E" stroke-width="0.75" stroke-linecap="round" stroke-linejoin="round"></path>
                    <polyline id="Shape" stroke="#46525E" stroke-width="0.75" stroke-linecap="round" stroke-linejoin="round" points="122 13 178.799513 44.9930398 190 89"></polyline>
                    <path d="M110,9.56 L110.98,9" id="Shape" stroke="#46525E" stroke-width="0.75" stroke-linecap="round" stroke-linejoin="round"></path>
                    <path d="M101,13.51 L101.89,13" id="Shape" stroke="#46525E" stroke-width="0.75" stroke-linecap="round" stroke-linejoin="round"></path>
                    <path d="M93,18.65 L94,18" id="Shape" stroke="#46525E" stroke-width="0.75" stroke-linecap="round" stroke-linejoin="round"></path>
                    <path d="M84,23.69 L85,23" id="Shape" stroke="#46525E" stroke-width="0.75" stroke-linecap="round" stroke-linejoin="round"></path>
                    <path d="M61,38 L77,28" id="Shape" stroke="#46525E" stroke-width="0.75" stroke-linecap="round" stroke-linejoin="round"></path>
                    <path d="M178,46 L126,75" id="Shape" stroke="#46525E" stroke-linecap="round" stroke-linejoin="round"></path>
                    <polyline id="Shape" stroke="#46525E" stroke-width="0.5" stroke-linecap="round" stroke-linejoin="round" points="119.402917 16 171 45.7835417 125.943248 71 68 37.316477 75.480504 33.0059713"></polyline>
                    <path d="M89.6729576,175 L90,176.912859 L89.1949725,182.874601 C89.1666949,183.587218 89.2342123,184.300245 89.3962294,185 C89.160935,184.990034 88.9320826,184.931665 88.729566,184.829968 C88.503152,184.638682 88.4025236,183.767269 88.4025236,183.767269 L88.0377455,184.192349 C87.82391,183.926674 88.5912019,183.299681 88.5283091,182.874601 C88.4654163,182.449522 88.5283091,177.18916 88.5283091,177.18916 L88.1886881,175.31881" id="Shape" stroke="#46525E" stroke-width="0.25" stroke-linecap="round" stroke-linejoin="round"></path>
                    <path d="M82.3850662,174 L82.4450662,176.708289 L82.1750662,179.756485 C82.2072749,180.154087 82.2072749,180.554038 82.1750662,180.95164 C82.1750662,181.434089 81.9650662,181.861713 82.0050662,181.960396 C82.0450662,182.059078 82.3750662,181.960396 82.5050662,181.806889" id="Shape" stroke="#46525E" stroke-width="0.25" stroke-linecap="round" stroke-linejoin="round"></path>
                    <path d="M88.0818391,175 C87.7018391,176.9 88.7718391,177.49 88.7118391,179" id="Shape" stroke="#46525E" stroke-width="0.25" stroke-linecap="round" stroke-linejoin="round"></path>
                    <path d="M83.06,178 C83.13,177.515789 83.2,177.084211 83.27,176.757895 C83.3124041,175.829531 83.2213778,174.899749 83,174" id="Shape" stroke="#46525E" stroke-width="0.25" stroke-linecap="round" stroke-linejoin="round"></path>
                    <path d="M88,182.616405 C87.5612218,184.195284 87.2163886,185.79856 86.9672978,187.417878 C87.070568,188.003925 85.5834768,188.661942 82.5370052,186.574792 C82.5370052,186.574792 82.020654,183.079074 82,181.680786 C82.0119408,180.448335 82.1120218,179.218295 82.2994836,178" id="Shape" stroke="#46525E" stroke-width="0.25" stroke-linecap="round" stroke-linejoin="round"></path>
                    <path d="M82.8619875,175 C82.8619875,175 81.9519875,174.626298 82.0019875,173.961938 C82.0479216,173.244408 82.3063841,172.559154 82.7419875,172" id="Shape" stroke="#46525E" stroke-width="0.25" stroke-linecap="round" stroke-linejoin="round"></path>
                    <path d="M85,174.54 L84,174" id="Shape" stroke="#46525E" stroke-width="0.25" stroke-linecap="round" stroke-linejoin="round"></path>
                    <path d="M83,177 C83.2494802,177.601678 85.0790021,178.584908 88,177.542978" id="Shape" stroke="#46525E" stroke-width="0.25" stroke-linecap="round" stroke-linejoin="round"></path>
                    <path d="M85,188 C85,188 85.38,190.853933 85.42,192.370787 C85.4714466,193.588416 85.5950538,194.80084 85.79,196" id="Shape" stroke="#46525E" stroke-width="0.25" stroke-linecap="round" stroke-linejoin="round"></path>
                    <path d="M86,170.72 C85.7971402,170.829728 85.5687416,170.812926 85.3759147,170.674091 C85.1830877,170.535256 85.045513,170.288556 85,170" id="Shape" stroke="#46525E" stroke-width="0.25" stroke-linecap="round" stroke-linejoin="round"></path>
                    <path d="M86,169.545331 C85.2794362,170.036356 84.3038398,170.138133 83.4697838,169.809292 C82.9268189,169.64903 82.9593968,168.546053 83.0571305,167.773027 C82.9854342,167.504314 83.0528966,167.221822 83.2417385,167" id="Shape" stroke="#46525E" stroke-width="0.25" stroke-linecap="round" stroke-linejoin="round"></path>
                    <path d="M87,171 L88.8577406,171.796942 C89.1250097,171.912527 89.3104671,172.121192 89.3598326,172.361864 L89.7238494,174.127243 L90,175.529458 C89.7357794,175.780359 89.3639554,175.942372 88.958159,175.983412 C88.426162,176.044404 87.8855781,175.935792 87.4518828,175.680776 C87.4518828,175.680776 87.5648536,174.671988 87.5648536,174.671988" id="Shape" stroke="#46525E" stroke-width="0.25" stroke-linecap="round" stroke-linejoin="round"></path>
                    <path d="M85,171 L84.1643836,171 C83.9236464,171.044203 83.6977164,171.14705 83.5068493,171.29932 L83,173" id="Shape" stroke="#46525E" stroke-width="0.25" stroke-linecap="round" stroke-linejoin="round"></path>
                    <path d="M86.76,196 L86,188" id="Shape" stroke="#46525E" stroke-width="0.25" stroke-linecap="round" stroke-linejoin="round"></path>
                    <path d="M87,188 L86.8785182,195.700901 C86.8716732,196.189554 86.7562755,196.669214 86.542107,197.099222 C86.1029034,197.879445 85.4113915,198.163163 85.1123593,197.909843 C84.8133271,197.656524 85.2058069,197.230948 85.2058069,197.230948 C85.4314036,196.925671 85.6111643,196.583707 85.7384579,196.217672 C85.7772232,195.991877 85.8600627,195.777679 85.9814216,195.58944" id="Shape" stroke="#46525E" stroke-width="0.25" stroke-linecap="round" stroke-linejoin="round"></path>
                    <path d="M87.6506309,195 C87.9021766,195 88.0531041,195.686662 87.9826713,196.041438 C87.7959249,196.500303 87.570134,196.937273 87.3085286,197.346096 C87.228034,197.506318 86.6042004,198.959753 85.738883,198.994086 C85.5473496,199.014201 85.3543408,198.982839 85.1754204,198.902531 C84.7025144,198.604977 85.2961624,197.391874 85.6583883,197.117209" id="Shape" stroke="#46525E" stroke-width="0.25" stroke-linecap="round" stroke-linejoin="round"></path>
                    <path d="M83,187 C83,187 83.2992414,188.86607 83.4540215,190.212087 C83.6088016,191.558104 85.0740528,194.658023 84.9811848,195.188272 C84.8883167,195.718522 84.3620645,196.004041 83.9493177,196.299756 C83.7049659,196.46558 83.4417578,196.602478 83.1650987,196.70764 C83.4643402,197.48262 85.4042503,196.493501 85.6209423,196.299756 C85.8376344,196.106012 86.1678319,195.779704 85.8995465,195.341229" id="Shape" stroke="#46525E" stroke-width="0.25" stroke-linecap="round" stroke-linejoin="round"></path>
                    <path d="M82.8962775,197 C82.8962775,197 82.0205653,197.230471 82.0004339,197.614589 C81.9803026,197.998707 82.6647674,198.049923 83.1881816,197.964563 C83.7115958,197.879204 84.3256009,197.495085 85,197.40119" id="Shape" stroke="#46525E" stroke-width="0.25" stroke-linecap="round" stroke-linejoin="round"></path>
                    <path d="M85.8079113,171.360923 L85.6523231,172.078882 C85.6523231,172.165907 85.3744868,172.883865 85.7412306,172.992647 C86.1079745,173.101428 87.9639205,172.002734 87.9639205,169.729199 C88.0120265,169.044684 88.0120265,168.357743 87.9639205,167.673227 C87.9479286,166.760581 87.4795091,165.912555 86.7081007,165.399692 C85.7383314,164.866769 84.5549908,164.866769 83.5852215,165.399692 C83.1204492,165.714005 82.9034792,166.277453 83.0406625,166.813853 C83.062382,166.874033 83.1058711,166.924342 83.1629104,166.955269 C83.9385531,167.374346 84.7860373,167.65086 85.6634365,167.771131 C86.0524072,168.184501 85.7856844,168.989485 85.9523862,168.804556 C86.0140921,168.681373 86.0885733,168.564726 86.1746552,168.456455 C86.284025,168.320305 86.4809816,168.28739 86.6303066,168.380308 C86.8970294,168.586993 86.7081007,169.032997 86.419151,169.174413 C85.7190037,169.511636 85.8301382,169.990275 85.8301382,169.990275 C85.8452541,170.165706 85.8712332,170.340077 85.9079324,170.512427 C85.974522,170.798142 85.9392267,171.097559 85.8079113,171.360923 L85.8079113,171.360923 Z" id="Shape" fill="#46525E" fill-rule="nonzero"></path>
                    <path d="M83.5206677,170 L83.1097421,171.006981 C82.9864644,171.231945 82.9042793,171.799712 83.2193222,171.9604 C83.5343652,172.121089 84.027476,171.756861 84.2055438,171.510472 L85,170.524916 L84.2192413,170.342802 L83.7672231,170.214251 L83.5206677,170 Z" id="Shape" fill="#46525E" fill-rule="nonzero"></path>
                    <polyline id="Shape" stroke="#46525E" stroke-linecap="round" stroke-linejoin="round" points="98 197 76 184.782352 86.6422355 151 98 197"></polyline>
                    <path d="M82,182 L76,186" id="Shape" stroke="#46525E" stroke-width="0.5" stroke-linecap="round" stroke-linejoin="round"></path>
                    <path d="M93,176 L90,178" id="Shape" stroke="#46525E" stroke-width="0.5" stroke-linecap="round" stroke-linejoin="round"></path>
                    <polygon id="Shape" stroke="#46525E" stroke-width="0.75" stroke-linecap="round" stroke-linejoin="round" points="87.0577105 138 71 187.282922 104 205"></polygon>
                    <polyline id="Shape" stroke="#46525E" stroke-width="0.75" stroke-linecap="round" stroke-linejoin="round" points="59 185.037338 59 176 108 203.821429 108 214"></polyline>
                    <path d="M62,188 L62,178" id="Shape" stroke="#46525E" stroke-linecap="round" stroke-linejoin="round"></path>
                    <path d="M67,190 L67,180" id="Shape" stroke="#46525E" stroke-linecap="round" stroke-linejoin="round"></path>
                    <path d="M104,211 L104,201" id="Shape" stroke="#46525E" stroke-linecap="round" stroke-linejoin="round"></path>
                    <path d="M100,210 L100,200" id="Shape" stroke="#46525E" stroke-linecap="round" stroke-linejoin="round"></path>
                    <path d="M96,207 L96,197" id="Shape" stroke="#46525E" stroke-linecap="round" stroke-linejoin="round"></path>
                    <path d="M92,205 L92,195" id="Shape" stroke="#46525E" stroke-linecap="round" stroke-linejoin="round"></path>
                    <path d="M87,202 L87,193" id="Shape" stroke="#46525E" stroke-linecap="round" stroke-linejoin="round"></path>
                    <path d="M83,200 L83,190" id="Shape" stroke="#46525E" stroke-linecap="round" stroke-linejoin="round"></path>
                    <path d="M79,198 L79,188" id="Shape" stroke="#46525E" stroke-linecap="round" stroke-linejoin="round"></path>
                    <path d="M74,195 L74,186" id="Shape" stroke="#46525E" stroke-linecap="round" stroke-linejoin="round"></path>
                    <path d="M70,193 L70,183" id="Shape" stroke="#46525E" stroke-linecap="round" stroke-linejoin="round"></path>
                    <path d="M60,177 L67,173" id="Shape" stroke="#46525E" stroke-linecap="round" stroke-linejoin="round"></path>
                    <path d="M60,185 L67,181" id="Shape" stroke="#46525E" stroke-linecap="round" stroke-linejoin="round"></path>
                    <path d="M108.592179,214 L115.821229,210.103588 C115.821229,210.103588 116.223464,199.64586 115.821229,200.009256 L108,204.046989" id="Shape" stroke="#46525E" stroke-linecap="round" stroke-linejoin="round"></path>
                    <path d="M59,185 L108,214" id="Shape" stroke="#46525E" stroke-width="0.75" stroke-linecap="round" stroke-linejoin="round"></path>
                    <path d="M81,38 L81,41.5442716 C81.2467566,41.8329441 81.6133255,42 82,42 C82.3866745,42 82.7532434,41.8329441 83,41.5442716 L83,38" id="Shape" stroke="#46525E" stroke-width="0.5" stroke-linecap="round" stroke-linejoin="round"></path>
                    <path d="M89,33.1557315 L82,37 L75,33.145849 L81.25,19.4784367 C81.3815028,19.1881369 81.6825715,19 82.015625,19 C82.3486785,19 82.6497472,19.1881369 82.78125,19.4784367 L89,33.1557315 Z" id="Shape" stroke="#46525E" stroke-width="0.75" stroke-linecap="round" stroke-linejoin="round"></path>
                    <path d="M82,20 L82,38" id="Shape" stroke="#46525E" stroke-width="0.25" stroke-linecap="round" stroke-linejoin="round"></path>
                    <path d="M90,32 L90,35.5442716 C90.2467566,35.8329441 90.6133255,36 91,36 C91.3866745,36 91.7532434,35.8329441 92,35.5442716 L92,32" id="Shape" stroke="#46525E" stroke-width="0.5" stroke-linecap="round" stroke-linejoin="round"></path>
                    <path d="M85,24.7897504 L89.875,14.4794897 C90.0117629,14.188551 90.3248744,14 90.67125,14 C91.0176256,14 91.3307371,14.188551 91.4675,14.4794897 L98,28.1472705 L90.72,32 L87.8166667,30.4648507" id="Shape" stroke="#46525E" stroke-width="0.75" stroke-linecap="round" stroke-linejoin="round"></path>
                    <path d="M90,14 L90,32" id="Shape" stroke="#46525E" stroke-width="0.25" stroke-linecap="round" stroke-linejoin="round"></path>
                    <path d="M98,28 L98,31.5442716 C98.2467566,31.8329441 98.6133255,32 99,32 C99.3866745,32 99.7532434,31.8329441 100,31.5442716 L100,28" id="Shape" stroke="#46525E" stroke-width="0.5" stroke-linecap="round" stroke-linejoin="round"></path>
                    <path d="M94,20.0742844 L98.3253425,10.4784367 C98.4550438,10.1881369 98.7519883,10 99.0804795,10 C99.4089706,10 99.7059151,10.1881369 99.8356164,10.4784367 L106,24.1557315 L99.0958904,28 L97.1232877,26.9030493" id="Shape" stroke="#46525E" stroke-width="0.75" stroke-linecap="round" stroke-linejoin="round"></path>
                    <path d="M98,10 L98,28" id="Shape" stroke="#46525E" stroke-width="0.25" stroke-linecap="round" stroke-linejoin="round"></path>
                    <path d="M106,22 L106,25.5442716 C106.246757,25.8329441 106.613326,26 107,26 C107.386674,26 107.753243,25.8329441 108,25.5442716 L108,22" id="Shape" stroke="#46525E" stroke-width="0.5" stroke-linecap="round" stroke-linejoin="round"></path>
                    <path d="M101,15.538759 L105.818871,5.4784367 C105.957132,5.18813693 106.273672,5 106.623842,5 C106.974011,5 107.290551,5.18813693 107.428812,5.4784367 L114,19.1557315 L106.64027,23 L103.902275,21.5373991" id="Shape" stroke="#46525E" stroke-width="0.75" stroke-linecap="round" stroke-linejoin="round"></path>
                    <path d="M107,5 L107,23" id="Shape" stroke="#46525E" stroke-width="0.25" stroke-linecap="round" stroke-linejoin="round"></path>
                    <path d="M114,18 L114,21.5467972 C114.246757,21.8338699 114.613326,22 115,22 C115.386674,22 115.753243,21.8338699 116,21.5467972 L116,18" id="Shape" stroke="#46525E" stroke-width="0.5" stroke-linecap="round" stroke-linejoin="round"></path>
                    <path d="M110,10.1039317 L114.325342,0.478436702 C114.455044,0.188136925 114.751988,3.51094741e-15 115.080479,0 C115.408971,-3.51094741e-15 115.705915,0.188136925 115.835616,0.478436702 L122,14.1557315 L115.09589,18 L113.041096,16.8536371" id="Shape" stroke="#46525E" stroke-width="0.75" stroke-linecap="round" stroke-linejoin="round"></path>
                    <path d="M115,0 L115,18" id="Shape" stroke="#46525E" stroke-width="0.25" stroke-linecap="round" stroke-linejoin="round"></path>
                    <path d="M234,337.829955 C234.324125,337.942547 234.668389,337.998169 235.01487,337.993924 C235.792947,338.049028 236.545782,337.726453 237,337.143337 L237,318" id="Shape" stroke="#46525E" stroke-width="0.75" stroke-linecap="round" stroke-linejoin="round"></path>
                    <path d="M233,318 L233,331" id="Shape" stroke="#46525E" stroke-width="0.75" stroke-linecap="round" stroke-linejoin="round"></path>
                    <path d="M252,304.269625 C252,311.846416 244.1654,318 234.5,318 C224.8346,318 217,311.856655 217,304.269625 C217,296.682594 224.824372,285 234.489772,285 C244.155172,285 252,296.692833 252,304.269625 Z" id="Shape" stroke="#46525E" stroke-linecap="round" stroke-linejoin="round"></path>
                    <path d="M237,324 C238.67293,323.925125 240.247968,323.142775 241.373547,321.82758 C242.499125,320.512385 243.081538,318.773837 242.990783,317" id="Shape" stroke="#46525E" stroke-width="0.75" stroke-linecap="round" stroke-linejoin="round"></path>
                    <path d="M237,322 C239.486747,321.459716 240.595181,320.322275 241,318" id="Shape" stroke="#46525E" stroke-width="0.75" stroke-linecap="round" stroke-linejoin="round"></path>
                    <path d="M233,324 C231.324143,323.92787 229.745877,323.145882 228.619644,321.829652 C227.49341,320.513422 226.913606,318.773272 227.010442,317" id="Shape" stroke="#46525E" stroke-width="0.75" stroke-linecap="round" stroke-linejoin="round"></path>
                    <path d="M232,322 C229.513253,321.459716 228.404819,320.322275 228,318" id="Shape" stroke="#46525E" stroke-width="0.75" stroke-linecap="round" stroke-linejoin="round"></path>
                    <path d="M29,243.826167 L29,243.577365 C28.9963871,245.602323 27.8516049,247.457209 26.0299553,248.389715 C24.2083056,249.322221 22.0122159,249.177535 20.3323782,248.014338 L20.3323782,248.014338 C18.8705507,246.997074 18.0007497,245.342418 18,243.577365 L18,243.826167 C18,242.126018 19.4918816,232.070261 20.9207259,219.298413 C21.0669133,217.990204 22.187171,217 23.5210124,217 C24.8548539,217 25.9751115,217.990204 26.1212989,219.298413 C27.4976122,232.028794 29,242.043084 29,243.826167 Z" id="Shape" stroke="#46525E" stroke-linecap="round" stroke-linejoin="round"></path>
                    <path d="M22,249 L22,253.872143 C22.02674,254.202799 22.1947361,254.508954 22.4653601,254.720211 C22.735984,254.931468 23.085948,255.029648 23.4347826,254.992176 C24.1810664,255.045637 24.8524578,254.565205 25,253.872143 L25,249" id="Shape" stroke="#46525E" stroke-width="0.75" stroke-linecap="round" stroke-linejoin="round"></path>
                    <path d="M40,249.826167 L40,249.577365 C39.9963871,251.602323 38.8516049,253.457209 37.0299553,254.389715 C35.2083056,255.322221 33.0122159,255.177535 31.3323782,254.014338 L31.3323782,254.014338 C29.8705507,252.997074 29.0007497,251.342418 29,249.577365 L29,249.826167 C29,248.126018 30.4918816,238.070261 31.9207259,225.298413 C32.0669133,223.990204 33.187171,223 34.5210124,223 C35.8548539,223 36.9751115,223.990204 37.1212989,225.298413 C38.5186246,238.049528 40,248.053451 40,249.826167 Z" id="Shape" stroke="#46525E" stroke-linecap="round" stroke-linejoin="round"></path>
                    <path d="M34,255 L34,259.872143 C34.02674,260.202799 34.1947361,260.508954 34.4653601,260.720211 C34.735984,260.931468 35.085948,261.029648 35.4347826,260.992176 C36.1810664,261.045637 36.8524578,260.565205 37,259.872143 L37,255" id="Shape" stroke="#46525E" stroke-width="0.75" stroke-linecap="round" stroke-linejoin="round"></path>
                    <path d="M18,236.826167 L18,236.577365 C17.9963871,238.602323 16.8516049,240.457209 15.0299553,241.389715 C13.2083056,242.322221 11.0122159,242.177535 9.33237822,241.014338 L9.33237822,241.014338 C7.87055068,239.997074 7.00074966,238.342418 7,236.577365 L7,236.826167 C7,235.126018 8.49188157,225.070261 9.92072588,212.298413 C10.0669133,210.990204 11.187171,210 12.5210124,210 C13.8548539,210 14.9751115,210.990204 15.1212989,212.298413 C16.5291309,225.028794 18,235.043084 18,236.826167 Z" id="Shape" stroke="#46525E" stroke-linecap="round" stroke-linejoin="round"></path>
                    <path d="M11,242 L11,246.872143 C11.02674,247.202799 11.1947361,247.508954 11.4653601,247.720211 C11.735984,247.931468 12.085948,248.029648 12.4347826,247.992176 C13.1810664,248.045637 13.8524578,247.565205 14,246.872143 L14,242" id="Shape" stroke="#46525E" stroke-width="0.75" stroke-linecap="round" stroke-linejoin="round"></path>
                    <path d="M128,21 L84,46" id="Shape" stroke="#46525E" stroke-width="0.5" stroke-linejoin="round"></path>
                    <path d="M129,22 L86,47" id="Shape" stroke="#46525E" stroke-width="0.75" stroke-linecap="round" stroke-linejoin="round"></path>
                    <path d="M160,333 L133,318" id="Shape" stroke="#46525E" stroke-width="0.5" stroke-linecap="round" stroke-linejoin="round"></path>
                    <path d="M158,334 L131,319" id="Shape" stroke="#46525E" stroke-width="0.5" stroke-linecap="round" stroke-linejoin="round"></path>
                    <path d="M157,335 L130,320" id="Shape" stroke="#46525E" stroke-width="0.5" stroke-linecap="round" stroke-linejoin="round"></path>
                    <polygon id="Shape" stroke="#46525E" stroke-width="0.5" stroke-linecap="round" stroke-linejoin="round" points="128 320.345603 155.512489 336 163 331.674847 135.569791 316"></polygon>
                    <polyline id="Shape" stroke="#46525E" stroke-width="0.5" stroke-linecap="round" stroke-linejoin="round" points="128 321 128 322.179131 155.549048 338 163 333.73462 163 332.350422"></polyline>
                    <path d="M155,336 L155,337" id="Shape" stroke="#46525E" stroke-width="0.5" stroke-linecap="round" stroke-linejoin="round"></path>
                    <path d="M156,340 L161,337" id="Shape" stroke="#46525E" stroke-width="0.5" stroke-linecap="round" stroke-linejoin="round"></path>
                    <polyline id="Shape" stroke="#46525E" stroke-width="0.5" stroke-linecap="round" stroke-linejoin="round" points="161 335.325581 161 340 161.68 339.534884 161.68 335"></polyline>
                    <polyline id="Shape" stroke="#46525E" stroke-width="0.5" stroke-linecap="round" stroke-linejoin="round" points="155 337.430233 155 342 155.68 341.534884 155.68 337"></polyline>
                    <path d="M156,339 L161,336" id="Shape" stroke="#46525E" stroke-width="0.5" stroke-linecap="round" stroke-linejoin="round"></path>
                    <path d="M129.56,324 L129,324.3" id="Shape" stroke="#46525E" stroke-width="0.5" stroke-linecap="round" stroke-linejoin="round"></path>
                    <path d="M129,324.98 L131,324" id="Shape" stroke="#46525E" stroke-width="0.5" stroke-linecap="round" stroke-linejoin="round"></path>
                    <polyline id="Shape" stroke="#46525E" stroke-width="0.5" stroke-linecap="round" stroke-linejoin="round" points="128.69 323.426267 128.69 328 128 327.52765 128 323"></polyline>
                    <path d="M80,301 L118,279" id="Shape" stroke="#46525E" stroke-linecap="round" stroke-linejoin="round"></path>
                    <polyline id="Shape" stroke="#46525E" stroke-linecap="round" stroke-linejoin="round" points="107 246 29 291.634795 62.0549708 311 68.9477583 306.94586"></polyline>
                    <path d="M79,298 L118,276" id="Shape" stroke="#46525E" stroke-width="0.5" stroke-linecap="round" stroke-linejoin="round"></path>
                    <polyline id="Shape" stroke="#46525E" stroke-width="0.5" stroke-linecap="round" stroke-linejoin="round" points="111 248 35 291.98836 62.6484701 308 70.8538887 303.234509"></polyline>
                    <polygon id="Shape" stroke="#46525E" stroke-width="0.5" stroke-linecap="round" stroke-linejoin="round" points="74 307.046716 74 319 79 316.014218 79 304"></polygon>
                    <polyline id="Shape" stroke="#46525E" stroke-width="0.5" stroke-linecap="round" stroke-linejoin="round" points="75 319 70 315.949153 70 304 75 307.030508"></polyline>
                    <path d="M79,303 L80,303.61" id="Shape" stroke="#46525E" stroke-width="0.5" stroke-linecap="round" stroke-linejoin="round"></path>
                    <path d="M70,303.65 L71,303" id="Shape" stroke="#46525E" stroke-width="0.5" stroke-linecap="round" stroke-linejoin="round"></path>
                    <polyline id="Shape" stroke="#46525E" stroke-width="0.25" stroke-linecap="round" stroke-linejoin="round" points="77.7685535 304.036145 78 304.204819 73.9748428 307 70 304.228916 70.3320755 304"></polyline>
                    <path d="M80,300.169492 C80,302.837308 77.7614237,305 75,305 C72.2385763,305 70,302.837308 70,300.169492 C70,297.505085 72.2421053,290 75,290 C77.7578947,290 80,297.505085 80,300.169492 Z" id="Shape" stroke="#46525E" stroke-width="0.5" stroke-linecap="round" stroke-linejoin="round"></path>
                    <polyline id="Shape" stroke="#46525E" stroke-width="0.25" stroke-linecap="round" stroke-linejoin="round" points="81 311.06 75.5377081 314 70 311"></polyline>
                    <polygon id="Shape" stroke="#46525E" stroke-width="0.5" stroke-linecap="round" stroke-linejoin="round" points="25 278.044655 25 290 30 287.006089 30 275"></polygon>
                    <polyline id="Shape" stroke="#46525E" stroke-width="0.5" stroke-linecap="round" stroke-linejoin="round" points="24 290 19 286.941057 19 275 24 278.028455"></polyline>
                    <path d="M29,274 L30,274.61" id="Shape" stroke="#46525E" stroke-width="0.5" stroke-linecap="round" stroke-linejoin="round"></path>
                    <path d="M19,274.65 L20,274" id="Shape" stroke="#46525E" stroke-width="0.5" stroke-linecap="round" stroke-linejoin="round"></path>
                    <polyline id="Shape" stroke="#46525E" stroke-width="0.25" stroke-linecap="round" stroke-linejoin="round" points="28.7584906 275.036145 29 275.204819 24.9748428 278 21 275.228916 21.3320755 275"></polyline>
                    <path d="M30,271.169492 C30,273.837308 27.7614237,276 25,276 C22.2385763,276 20,273.837308 20,271.169492 C20,268.505085 22.2421053,261 25,261 C27.7578947,261 30,268.505085 30,271.169492 Z" id="Shape" stroke="#46525E" stroke-width="0.5" stroke-linecap="round" stroke-linejoin="round"></path>
                    <polyline id="Shape" stroke="#46525E" stroke-width="0.25" stroke-linecap="round" stroke-linejoin="round" points="30 282.06 24.5377081 285 19 282"></polyline>
                    <path d="M234,336.569401 C233.806382,339.073293 231.849495,341 229.5,341 C227.150505,341 225.193618,339.073293 225,336.569401 C225,334.149671 227.047782,330 229.494881,330 C231.94198,330 234,334.149671 234,336.569401 Z" id="Shape" stroke="#46525E" stroke-width="0.5" stroke-linecap="round" stroke-linejoin="round"></path>
                    <path d="M172,344.569401 C171.806382,347.073293 169.849495,349 167.5,349 C165.150505,349 163.193618,347.073293 163,344.569401 C163,342.149671 165.047782,338 167.494881,338 C169.94198,338 172,342.149671 172,344.569401 Z" id="Shape" stroke="#46525E" stroke-width="0.5" stroke-linecap="round" stroke-linejoin="round"></path>
                    <path d="M87,254.033898 C87,255.672031 85.6568542,257 84,257 C82.3431458,257 81,255.672031 81,254.033898 C81,252.54096 82.34,250 84,250 C85.66,250 87,252.54096 87,254.033898 Z" id="Shape" stroke="#46525E" stroke-width="0.5" stroke-linecap="round" stroke-linejoin="round"></path>
                    <path d="M96,249.033898 C96,250.672031 94.6568542,252 93,252 C91.3431458,252 90,250.672031 90,249.033898 C90,247.54096 91.34,245 93,245 C94.66,245 96,247.54096 96,249.033898 Z" id="Shape" stroke="#46525E" stroke-width="0.5" stroke-linecap="round" stroke-linejoin="round"></path>
                    <path d="M104,243.836555 C104,245.583678 102.656854,247 101,247 C99.3431458,247 98,245.583678 98,243.836555 C98.0563906,242.818775 98.3782184,241.837181 98.93,241" id="Shape" stroke="#46525E" stroke-width="0.5" stroke-linecap="round" stroke-linejoin="round"></path>
                    <path d="M142,140 L194,110" id="Shape" stroke="#46525E" stroke-width="0.25" stroke-linecap="round" stroke-linejoin="round"></path>
                    <path d="M146,155 L198,125" id="Shape" stroke="#46525E" stroke-width="0.25" stroke-linecap="round" stroke-linejoin="round"></path>
                    <path d="M150,171 L202,141" id="Shape" stroke="#46525E" stroke-width="0.25" stroke-linecap="round" stroke-linejoin="round"></path>
                    <path d="M153,187 L205,157" id="Shape" stroke="#46525E" stroke-width="0.25" stroke-linecap="round" stroke-linejoin="round"></path>
                    <path d="M157,203 L190,184" id="Shape" stroke="#46525E" stroke-width="0.25" stroke-linecap="round" stroke-linejoin="round"></path>
                    <path d="M161,217 L190,201" id="Shape" stroke="#46525E" stroke-width="0.25" stroke-linecap="round" stroke-linejoin="round"></path>
                    <path d="M165,233 L206,210" id="Shape" stroke="#46525E" stroke-width="0.25" stroke-linecap="round" stroke-linejoin="round"></path>
                    <path d="M169,250 L213,224" id="Shape" stroke="#46525E" stroke-width="0.25" stroke-linecap="round" stroke-linejoin="round"></path>
                    <path d="M173,264 L214,241" id="Shape" stroke="#46525E" stroke-width="0.25" stroke-linecap="round" stroke-linejoin="round"></path>
                    <path d="M178,282 L230,252" id="Shape" stroke="#46525E" stroke-width="0.25" stroke-linecap="round" stroke-linejoin="round"></path>
                    <polygon id="Shape" stroke="#46525E" stroke-width="0.75" stroke-linecap="round" stroke-linejoin="round" points="46 69 137.172178 121.722232 192 90.0521025 191.91835 99.4540124 139.162391 130 46 76.3580164"></polygon>
                    <polyline id="Shape" stroke="#46525E" stroke-width="0.5" stroke-linecap="round" stroke-linejoin="round" points="51 70 137.24617 120 189 90.0020483"></polyline>
                    <path d="M188,88 L192,91" id="Shape" stroke="#46525E" stroke-width="0.5" stroke-linecap="round" stroke-linejoin="round"></path>
                    <path d="M52,67 L46,70" id="Shape" stroke="#46525E" stroke-width="0.5" stroke-linecap="round" stroke-linejoin="round"></path>
                    <path d="M138,122 L140,131" id="Shape" stroke="#46525E" stroke-width="0.5" stroke-linecap="round" stroke-linejoin="round"></path>
                    <polygon id="Shape" stroke="#46525E" stroke-width="0.75" stroke-linecap="round" stroke-linejoin="round" points="108 251 178.740232 291.78601 234 260.613411 233.918631 269.942881 180.723603 300 108 258.291184"></polygon>
                    <polyline id="Shape" stroke="#46525E" stroke-width="0.5" stroke-linecap="round" stroke-linejoin="round" points="111 250 178.884664 290 231 259.93763"></polyline>
                    <path d="M231,257 L235,260" id="Shape" stroke="#46525E" stroke-width="0.5" stroke-linecap="round" stroke-linejoin="round"></path>
                    <path d="M111,249 L109,250" id="Shape" stroke="#46525E" stroke-width="0.5" stroke-linecap="round" stroke-linejoin="round"></path>
                    <path d="M180,291 L182,300" id="Shape" stroke="#46525E" stroke-width="0.5" stroke-linecap="round" stroke-linejoin="round"></path>
                    <polyline id="Shape" stroke="#46525E" stroke-width="0.75" stroke-linecap="round" stroke-linejoin="round" points="71 225.965461 62.3495481 231 9 200.382623 9 193 64.1428102 225.022126 66.8327034 223.463573"></polyline>
                    <path d="M64,223 L64.34,223.19" id="Shape" stroke="#46525E" stroke-width="0.5" stroke-linecap="round" stroke-linejoin="round"></path>
                    <path d="M13,193 L64,223" id="Shape" stroke="#46525E" stroke-width="0.5" stroke-linecap="round" stroke-linejoin="round"></path>
                    <path d="M15,189 L9,192" id="Shape" stroke="#46525E" stroke-width="0.5" stroke-linecap="round" stroke-linejoin="round"></path>
                    <path d="M64,225 L62,231" id="Shape" stroke="#46525E" stroke-width="0.5" stroke-linecap="round" stroke-linejoin="round"></path>
                    <path d="M46,104 L140,159" id="Shape" stroke="#46525E" stroke-width="0.5" stroke-linejoin="round"></path>
                    <path d="M50,93 L137,144" id="Shape" stroke="#46525E" stroke-width="0.5" stroke-linejoin="round"></path>
                    <path d="M88,142 L144,175" id="Shape" stroke="#46525E" stroke-width="0.5" stroke-linejoin="round"></path>
                    <path d="M43,116 L85,141" id="Shape" stroke="#46525E" stroke-width="0.5" stroke-linejoin="round"></path>
                    <path d="M92,158 L148,191" id="Shape" stroke="#46525E" stroke-width="0.5" stroke-linejoin="round"></path>
                    <path d="M40,127 L82,152" id="Shape" stroke="#46525E" stroke-width="0.5" stroke-linejoin="round"></path>
                    <path d="M96,174 L152,207" id="Shape" stroke="#46525E" stroke-width="0.5" stroke-linejoin="round"></path>
                    <path d="M36,139 L78,164" id="Shape" stroke="#46525E" stroke-width="0.5" stroke-linejoin="round"></path>
                    <path d="M99,189 L155,222" id="Shape" stroke="#46525E" stroke-width="0.5" stroke-linejoin="round"></path>
                    <path d="M33,150 L75,175" id="Shape" stroke="#46525E" stroke-width="0.5" stroke-linejoin="round"></path>
                    <path d="M108,207 L160,237" id="Shape" stroke="#46525E" stroke-width="0.5" stroke-linejoin="round"></path>
                    <path d="M29,161 L65,181" id="Shape" stroke="#46525E" stroke-width="0.5" stroke-linejoin="round"></path>
                    <path d="M25,173 L163,253" id="Shape" stroke="#46525E" stroke-width="0.5" stroke-linejoin="round"></path>
                    <path d="M21,184 L167,268" id="Shape" stroke="#46525E" stroke-width="0.5" stroke-linejoin="round"></path>
                    <path d="M60,85 L60.02,98" id="Shape" stroke="#46525E" stroke-width="0.5" stroke-linejoin="round"></path>
                    <path d="M77,94 L77.02,108" id="Shape" stroke="#46525E" stroke-width="0.5" stroke-linejoin="round"></path>
                    <path d="M95,105 L95.03,119" id="Shape" stroke="#46525E" stroke-width="0.5" stroke-linejoin="round"></path>
                    <path d="M112,115 L112.04,129" id="Shape" stroke="#46525E" stroke-width="0.5" stroke-linejoin="round"></path>
                    <path d="M130,125 L130.05,139" id="Shape" stroke="#46525E" stroke-width="0.5" stroke-linejoin="round"></path>
                    <path d="M139,151 L139.05,158" id="Shape" stroke="#46525E" stroke-width="0.5" stroke-linejoin="round"></path>
                    <path d="M51,94 L51.01,107" id="Shape" stroke="#46525E" stroke-width="0.5" stroke-linejoin="round"></path>
                    <path d="M69,103 L69.02,116" id="Shape" stroke="#46525E" stroke-width="0.5" stroke-linejoin="round"></path>
                    <path d="M86,114 L86.03,127" id="Shape" stroke="#46525E" stroke-width="0.5" stroke-linejoin="round"></path>
                    <path d="M103,124 L103.03,137" id="Shape" stroke="#46525E" stroke-width="0.5" stroke-linejoin="round"></path>
                    <path d="M121,134 L121.04,147" id="Shape" stroke="#46525E" stroke-width="0.5" stroke-linejoin="round"></path>
                    <path d="M60,112 L60.02,125" id="Shape" stroke="#46525E" stroke-width="0.5" stroke-linejoin="round"></path>
                    <path d="M77,122 L77.02,135" id="Shape" stroke="#46525E" stroke-width="0.5" stroke-linejoin="round"></path>
                    <path d="M95,132 L95.03,145" id="Shape" stroke="#46525E" stroke-width="0.5" stroke-linejoin="round"></path>
                    <path d="M112,143 L112.04,156" id="Shape" stroke="#46525E" stroke-width="0.5" stroke-linejoin="round"></path>
                    <path d="M130,153 L130.05,166" id="Shape" stroke="#46525E" stroke-width="0.5" stroke-linejoin="round"></path>
                    <path d="M139,172 L139.05,185" id="Shape" stroke="#46525E" stroke-width="0.5" stroke-linejoin="round"></path>
                    <path d="M51,121 L51.01,134" id="Shape" stroke="#46525E" stroke-width="0.5" stroke-linejoin="round"></path>
                    <path d="M69,131 L69.02,144" id="Shape" stroke="#46525E" stroke-width="0.5" stroke-linejoin="round"></path>
                    <path d="M103,150 L103.04,163" id="Shape" stroke="#46525E" stroke-width="0.5" stroke-linejoin="round"></path>
                    <path d="M122,161 L122.05,174" id="Shape" stroke="#46525E" stroke-width="0.5" stroke-linejoin="round"></path>
                    <path d="M148,190 L148.05,203" id="Shape" stroke="#46525E" stroke-width="0.5" stroke-linejoin="round"></path>
                    <path d="M42,129 L42.01,142" id="Shape" stroke="#46525E" stroke-width="0.5" stroke-linejoin="round"></path>
                    <path d="M60,139 L60.02,152" id="Shape" stroke="#46525E" stroke-width="0.5" stroke-linejoin="round"></path>
                    <path d="M77,148 L77.02,161" id="Shape" stroke="#46525E" stroke-width="0.5" stroke-linejoin="round"></path>
                    <path d="M95,159 L95.03,168" id="Shape" stroke="#46525E" stroke-width="0.5" stroke-linejoin="round"></path>
                    <path d="M113,170 L113.04,183" id="Shape" stroke="#46525E" stroke-width="0.5" stroke-linejoin="round"></path>
                    <path d="M130,180 L130.05,193" id="Shape" stroke="#46525E" stroke-width="0.5" stroke-linejoin="round"></path>
                    <path d="M139,199 L139.05,212" id="Shape" stroke="#46525E" stroke-width="0.5" stroke-linejoin="round"></path>
                    <path d="M34,147 L34.01,151" id="Shape" stroke="#46525E" stroke-width="0.5" stroke-linejoin="round"></path>
                    <path d="M51,148 L51.01,161" id="Shape" stroke="#46525E" stroke-width="0.5" stroke-linejoin="round"></path>
                    <path d="M69,157 L69.03,170" id="Shape" stroke="#46525E" stroke-width="0.5" stroke-linejoin="round"></path>
                    <path d="M103,178 L103.04,191" id="Shape" stroke="#46525E" stroke-width="0.5" stroke-linejoin="round"></path>
                    <path d="M122,188 L122.04,201" id="Shape" stroke="#46525E" stroke-width="0.5" stroke-linejoin="round"></path>
                    <path d="M148,217 L148.05,230" id="Shape" stroke="#46525E" stroke-width="0.5" stroke-linejoin="round"></path>
                    <path d="M42,155 L42.01,168" id="Shape" stroke="#46525E" stroke-width="0.5" stroke-linejoin="round"></path>
                    <path d="M60,166 L60.02,179" id="Shape" stroke="#46525E" stroke-width="0.5" stroke-linejoin="round"></path>
                    <path d="M113,196 L113.04,209" id="Shape" stroke="#46525E" stroke-width="0.5" stroke-linejoin="round"></path>
                    <path d="M130,206 L130.05,219" id="Shape" stroke="#46525E" stroke-width="0.5" stroke-linejoin="round"></path>
                    <path d="M156,235 L156.06,248" id="Shape" stroke="#46525E" stroke-width="0.5" stroke-linejoin="round"></path>
                    <path d="M139,226 L139.05,239" id="Shape" stroke="#46525E" stroke-width="0.5" stroke-linejoin="round"></path>
                    <path d="M34,164 L34.01,177" id="Shape" stroke="#46525E" stroke-width="0.5" stroke-linejoin="round"></path>
                    <path d="M51,174 L51.02,187" id="Shape" stroke="#46525E" stroke-width="0.5" stroke-linejoin="round"></path>
                    <path d="M69,191 L69.01,198" id="Shape" stroke="#46525E" stroke-width="0.5" stroke-linejoin="round"></path>
                    <path d="M86,201 L86.02,208" id="Shape" stroke="#46525E" stroke-width="0.5" stroke-linejoin="round"></path>
                    <path d="M104,211 L104.02,218" id="Shape" stroke="#46525E" stroke-width="0.5" stroke-linejoin="round"></path>
                    <path d="M122,215 L122.05,228" id="Shape" stroke="#46525E" stroke-width="0.5" stroke-linejoin="round"></path>
                    <path d="M25,175 L25,186" id="Shape" stroke="#46525E" stroke-width="0.5" stroke-linejoin="round"></path>
                    <path d="M165,260 L165.03,267" id="Shape" stroke="#46525E" stroke-width="0.5" stroke-linejoin="round"></path>
                    <path d="M148,244 L148.05,257" id="Shape" stroke="#46525E" stroke-width="0.5" stroke-linejoin="round"></path>
                    <path d="M42,182 L42.01,195" id="Shape" stroke="#46525E" stroke-width="0.5" stroke-linejoin="round"></path>
                    <path d="M60,193 L60.01,206" id="Shape" stroke="#46525E" stroke-width="0.5" stroke-linejoin="round"></path>
                    <path d="M77,202 L77.03,215" id="Shape" stroke="#46525E" stroke-width="0.5" stroke-linejoin="round"></path>
                    <path d="M95,213 L95.04,226" id="Shape" stroke="#46525E" stroke-width="0.5" stroke-linejoin="round"></path>
                    <path d="M113,224 L113.04,237" id="Shape" stroke="#46525E" stroke-width="0.5" stroke-linejoin="round"></path>
                    <path d="M130,233 L130.05,246" id="Shape" stroke="#46525E" stroke-width="0.5" stroke-linejoin="round"></path>
                    <path d="M156,262 L156.06,276" id="Shape" stroke="#46525E" stroke-width="0.5" stroke-linejoin="round"></path>
                    <path d="M139,252 L139.05,266" id="Shape" stroke="#46525E" stroke-width="0.5" stroke-linejoin="round"></path>
                    <path d="M34,191 L34,205" id="Shape" stroke="#46525E" stroke-width="0.5" stroke-linejoin="round"></path>
                    <path d="M51,201 L51.02,215" id="Shape" stroke="#46525E" stroke-width="0.5" stroke-linejoin="round"></path>
                    <path d="M69,211 L69.01,218" id="Shape" stroke="#46525E" stroke-width="0.5" stroke-linejoin="round"></path>
                    <path d="M86,222 L86.01,229" id="Shape" stroke="#46525E" stroke-width="0.5" stroke-linejoin="round"></path>
                    <path d="M104,231 L104.02,237" id="Shape" stroke="#46525E" stroke-width="0.5" stroke-linejoin="round"></path>
                    <path d="M122,242 L122.04,256" id="Shape" stroke="#46525E" stroke-width="0.5" stroke-linejoin="round"></path>
                </g>
            </g>
        </g>
    </g>
</svg>