<?xml version="1.0" encoding="UTF-8"?>
<svg width="159px" height="28px" viewBox="0 0 159 28" version="1.1" xmlns="http://www.w3.org/2000/svg" xmlns:xlink="http://www.w3.org/1999/xlink">
    <!-- Generator: Sketch 45.1 (43504) - http://www.bohemiancoding.com/sketch -->
    <title>Logo</title>
    <desc>Created with Sketch.</desc>
    <defs></defs>
    <g id="Page-1" stroke="none" stroke-width="1" fill="none" fill-rule="evenodd">
        <g id="Pre-Launch" transform="translate(-160.000000, -41.000000)">
            <g id="Logo" transform="translate(160.000000, 40.000000)">
                <polyline id="Stroke-1" stroke="#4796C6" stroke-width="1.5" stroke-linecap="round" stroke-linejoin="round" points="24.8028 19.8012 26.5608 19.2362 27.1268 20.9942"></polyline>
                <g id="Group-16" transform="translate(0.000000, 0.933400)">
                    <path d="M7.1808,21.5944 C7.1808,21.5944 12.5598,18.0674 13.5938,7.9644 C13.9338,4.6384 10.5738,4.0954 9.8358,7.6564 C8.6048,13.5944 9.4728,21.8344 15.0348,21.8344 C19.9438,21.8344 21.0858,16.3564 18.2528,13.7074 C15.3108,10.9594 13.5808,14.4294 16.7658,15.5864 C24.9808,18.5704 28.8408,11.5934 24.2748,5.6774 C21.2798,1.7954 15.9878,-0.0306 10.8818,1.1934 C3.7878,2.8944 -0.5842,10.0244 1.1178,17.1184 C2.8178,24.2124 9.9478,28.5844 17.0418,26.8834 C21.3898,25.8404 24.7148,22.7594 26.2468,18.8964" id="Stroke-2" stroke="#4796C6" stroke-width="1.5" stroke-linecap="round" stroke-linejoin="round"></path>
                    <path d="M74.6149,14.2042 L74.1139,14.2252 L63.6409,14.1792 L63.6659,13.9942 C64.1349,10.7142 66.0879,8.9082 69.1639,8.9082 C72.4749,8.9082 74.6149,10.7902 74.6149,13.7032 L74.6149,14.2042 Z M69.3859,6.6002 C64.0379,6.6002 60.4449,10.2832 60.4449,15.7642 C60.4449,21.3842 64.1149,25.0172 69.7939,25.0172 C72.0499,25.0172 76.0539,23.8472 77.3909,22.5242 C77.2929,21.8332 77.0319,20.9782 76.8009,20.3872 C74.9749,21.7652 72.1369,22.4852 70.2449,22.4852 C66.1019,22.4852 63.6189,20.4162 63.4349,16.8102 L63.3949,16.4922 L77.0699,16.4922 C77.3649,13.2962 76.9129,11.0712 75.6479,9.4932 C74.5899,8.1732 72.6439,6.6002 69.3859,6.6002 L69.3859,6.6002 Z" id="Fill-4" fill="#4796C6"></path>
                    <path d="M87.6266,24.984 C91.0226,24.984 94.4476,23.406 94.4476,19.882 C94.4476,17.058 92.2736,15.773 88.7666,14.616 L88.7666,14.615 L88.2356,14.439 C85.7376,13.615 84.0866,13.071 84.0866,11.238 C84.0866,10.691 84.2826,10.23 84.6696,9.867 C85.6966,8.904 87.7656,8.929 88.6076,8.984 C90.7476,9.124 92.1576,10.013 93.1556,10.806 C93.2526,10.058 93.2616,9.012 93.0126,8.15 C91.7006,7.213 89.6236,6.633 87.5826,6.633 C83.5746,6.633 80.9846,8.654 80.9846,11.781 C80.9846,14.83 83.6756,15.991 86.6726,17.004 L87.0206,17.115 C89.7206,17.983 91.3486,18.506 91.3486,20.425 C91.3486,20.981 91.1546,21.445 90.7696,21.804 C89.8026,22.705 87.8246,22.711 86.7326,22.633 C84.8336,22.499 82.8306,21.554 81.4486,20.758 C81.3846,21.54 81.4496,22.967 81.5766,23.469 C82.8766,24.334 85.4686,24.984 87.6266,24.984" id="Fill-6" fill="#4796C6"></path>
                    <path d="M104.816,24.984 C106.833,24.984 108.446,24.146 109.225,23.421 C109.347,22.997 109.431,21.908 109.371,21.113 C108.104,22.033 106.856,22.518 105.755,22.518 C104.838,22.518 103.301,22.123 103.301,19.475 L103.301,9.4 L108.926,9.4 C109.054,8.66 109.054,7.852 108.926,7.111 L103.301,7.111 L103.301,1.339 C102.321,1.191 101.35,1.191 100.409,1.336 L100.409,7.111 L96.834,7.111 C96.705,7.852 96.705,8.66 96.834,9.4 L100.409,9.4 L100.409,20.063 C100.409,23.236 101.974,24.984 104.816,24.984" id="Fill-8" fill="#4796C6"></path>
                    <path d="M121.2218,22.4264 C117.6228,22.4264 115.0118,19.6434 115.0118,15.8094 C115.0118,11.9744 117.6228,9.1924 121.2218,9.1924 C124.8198,9.1924 127.4318,11.9744 127.4318,15.8094 C127.4318,19.6434 124.8198,22.4264 121.2218,22.4264 M121.1758,6.6334 C115.8678,6.6334 111.8658,10.5784 111.8658,15.8094 C111.8658,21.0394 115.8678,24.9844 121.1758,24.9844 C126.5108,24.9844 130.5348,21.0394 130.5348,15.8094 C130.5348,10.5784 126.5108,6.6334 121.1758,6.6334" id="Fill-10" fill="#4796C6"></path>
                    <path d="M47.6871,9.192 C51.2861,9.192 53.8971,11.975 53.8971,15.809 C53.8971,19.644 51.2861,22.426 47.6871,22.426 C44.0891,22.426 41.4791,19.644 41.4791,15.809 C41.4791,11.975 44.0891,9.192 47.6871,9.192 L47.6871,9.192 Z M41.9581,23.175 C43.5611,24.359 45.5261,24.984 47.6421,24.984 C52.9771,24.984 56.9991,21.04 56.9991,15.809 C56.9991,10.578 52.9771,6.633 47.6421,6.633 C45.6711,6.633 43.8221,7.172 42.2931,8.192 L41.4331,8.77 L41.4331,1.235 C40.5131,1.09 39.6011,1.092 38.6511,1.237 L38.6511,24.875 C39.5161,25.021 40.0951,25.021 40.9601,24.87 L40.9911,24.328 L41.1871,22.604 L41.9581,23.175 Z" id="Fill-12" fill="#4796C6"></path>
                    <path d="M137.7218,24.5768 C138.5548,24.7398 139.5728,24.7398 140.4028,24.5758 L145.4328,10.7148 L150.5138,24.5768 C151.3028,24.7368 152.3258,24.7368 153.1478,24.5778 L158.2678,7.3858 C157.2778,7.2528 156.3558,7.2658 155.3818,7.4268 L152.0238,20.7018 L146.7888,7.4188 C145.9878,7.2558 144.8918,7.2558 144.0878,7.4168 L139.1268,20.5988 L139.0578,20.3648 L135.2838,7.4278 C134.2848,7.2668 133.2178,7.2528 132.1868,7.3878 L137.7218,24.5768 Z" id="Fill-14" fill="#4796C6"></path>
                </g>
            </g>
        </g>
    </g>
</svg>