<?xml version="1.0" encoding="UTF-8"?>
<svg width="301px" height="213px" viewBox="0 0 301 213" version="1.1" xmlns="http://www.w3.org/2000/svg" xmlns:xlink="http://www.w3.org/1999/xlink">
    <!-- Generator: Sketch 45.2 (43514) - http://www.bohemiancoding.com/sketch -->
    <title>memphis-2</title>
    <desc>Created with Sketch.</desc>
    <defs></defs>
    <g id="Page-1" stroke="none" stroke-width="1" fill="none" fill-rule="evenodd">
        <g id="memphis-2" fill-rule="nonzero" fill="#83B165">
            <g id="Group-27" transform="translate(0.000000, 5.000000)">
                <path d="M88.4494454,40.0688642 L88.1515389,40.0688642 L83.1387741,46.0254194 L77.9247806,40.0688642 L62.797366,40.0688642 C56.4717342,40.0688642 51.3260766,34.9225767 51.3260766,28.5969449 L51.3260766,12.9209541 C51.3260766,6.59532224 56.4717342,1.4487199 62.797366,1.4487199 L88.4494454,1.4487199 C94.7741325,1.4487199 99.9207349,6.59532224 99.9207349,12.9209541 L99.9207349,28.5969449 C99.9207349,34.9225767 94.7741325,40.0688642 88.4494454,40.0688642 M101.20337,28.5969449 L101.20337,12.9209541 C101.20337,5.88708577 95.4817392,0.166084444 88.4494454,0.166084444 L62.797366,0.166084444 C55.7650723,0.166084444 50.0434411,5.88708577 50.0434411,12.9209541 L50.0434411,28.5969449 C50.0434411,35.6308132 55.7650723,41.3514996 62.797366,41.3514996 L77.3431387,41.3514996 L83.157039,47.9964519 L88.7511309,41.3483505 C95.6445485,41.1880604 101.20337,35.5287818 101.20337,28.5969449" id="Fill-1882"></path>
                <path d="M92.2929745,12.5048612 L58.9538999,12.5048612 C58.5996242,12.5048612 58.3124247,12.7920607 58.3124247,13.1463364 C58.3124247,13.5002972 58.5996242,13.7878116 58.9538999,13.7878116 L92.2929745,13.7878116 C92.6469353,13.7878116 92.9344497,13.5002972 92.9344497,13.1463364 C92.9344497,12.7920607 92.6469353,12.5048612 92.2929745,12.5048612" id="Fill-1883"></path>
                <path d="M92.2929745,20.5108305 L58.9538999,20.5108305 C58.5996242,20.5108305 58.3124247,20.79803 58.3124247,21.1523057 C58.3124247,21.5062665 58.5996242,21.7937809 58.9538999,21.7937809 L92.2929745,21.7937809 C92.6469353,21.7937809 92.9344497,21.5062665 92.9344497,21.1523057 C92.9344497,20.79803 92.6469353,20.5108305 92.2929745,20.5108305" id="Fill-1884"></path>
                <path d="M92.2929745,28.5186263 L58.9538999,28.5186263 C58.5996242,28.5186263 58.3124247,28.8058258 58.3124247,29.1597866 C58.3124247,29.5140623 58.5996242,29.8012618 58.9538999,29.8012618 L92.2929745,29.8012618 C92.6469353,29.8012618 92.9344497,29.5140623 92.9344497,29.1597866 C92.9344497,28.8058258 92.6469353,28.5186263 92.2929745,28.5186263" id="Fill-1885"></path>
                <path d="M91.9030193,105.512685 L91.9030193,110.502147 L92.3848343,110.502147 C92.7387951,110.502147 93.0259946,110.789346 93.0259946,111.143622 C93.0259946,111.497583 92.7387951,111.785097 92.3848343,111.785097 L91.9030193,111.785097 L91.9030193,149.033486 L92.4874955,149.033486 C92.8414563,149.033486 93.1289707,149.320685 93.1289707,149.674961 C93.1289707,150.028922 92.8414563,150.316121 92.4874955,150.316121 L91.9030193,150.316121 L91.9030193,157.233157 C91.9030193,158.554527 90.8282256,159.630265 89.5062262,159.630265 L61.7401444,159.630265 C60.4178301,159.630265 59.3427214,158.554527 59.3427214,157.233157 L59.3427214,150.316121 L59.0404062,150.316121 C58.6864454,150.316121 58.3992459,150.028922 58.3992459,149.674961 C58.3992459,149.320685 58.6864454,149.033486 59.0404062,149.033486 L59.3427214,149.033486 L59.3427214,111.785097 L59.1433823,111.785097 C58.7894215,111.785097 58.5019071,111.497583 58.5019071,111.143622 C58.5019071,110.789346 58.7894215,110.502147 59.1433823,110.502147 L59.3427214,110.502147 L59.3427214,105.512685 C59.3427214,104.191631 60.4178301,103.115892 61.7401444,103.115892 L89.5062262,103.115892 C90.8282256,103.115892 91.9030193,104.191631 91.9030193,105.512685 L91.9030193,105.512685 Z M61.7401444,101.832942 C59.7111681,101.832942 58.060086,103.483394 58.060086,105.512685 L58.060086,157.233157 C58.060086,159.262763 59.7111681,160.912901 61.7401444,160.912901 L89.5062262,160.912901 C91.5345726,160.912901 93.1856548,159.262763 93.1856548,157.233157 L93.1856548,105.512685 C93.1856548,103.483394 91.5345726,101.832942 89.5062262,101.832942 L61.7401444,101.832942 Z" id="Fill-1886"></path>
                <path d="M77.5496263,106.650241 L73.6963664,106.650241 C73.3420907,106.650241 73.0548912,106.93744 73.0548912,107.291716 C73.0548912,107.645677 73.3420907,107.933191 73.6963664,107.933191 L77.5496263,107.933191 C77.903902,107.933191 78.1911015,107.645677 78.1911015,107.291716 C78.1911015,106.93744 77.903902,106.650241 77.5496263,106.650241" id="Fill-1887"></path>
                <path d="M74.4930616,153.770766 C74.7185384,153.5434 75.0532895,153.371143 75.4516529,153.371143 C75.722162,153.371143 76.0229027,153.451445 76.339389,153.64858 C76.4152828,153.695502 76.4839335,153.764153 76.5273913,153.835638 L76.5299106,153.837527 C77.0192834,154.622602 76.7887681,155.30722 76.4096143,155.686374 C76.0298308,156.067417 75.3439531,156.297618 74.5623422,155.810134 C74.4870783,155.763212 74.4177977,155.694877 74.3727653,155.621502 C73.8824477,154.834538 74.1129631,154.149605 74.4930616,153.770766 M73.8808732,156.897524 C74.3825276,157.209917 74.9273249,157.363594 75.4560616,157.363594 C76.1447736,157.363594 76.8082926,157.102847 77.316875,156.593635 C78.215948,155.692987 78.3381338,154.315248 77.6191903,153.160782 C77.4721265,152.922079 77.2668041,152.716442 77.0218027,152.56119 C75.8676513,151.844766 74.4877081,151.961598 73.5858009,152.863505 C72.6848385,153.764153 72.5635974,155.145356 73.2834856,156.299507 C73.4324389,156.53821 73.6377613,156.743848 73.8808732,156.897524" id="Fill-1888"></path>
                <path d="M59.1432563,110.502084 C58.7892956,110.502084 58.5020961,110.789283 58.5020961,111.143559 C58.5020961,111.49752 58.7892956,111.785034 59.1432563,111.785034 L59.3429104,111.785034 L91.9028934,111.785034 L92.3850232,111.785034 C92.738984,111.785034 93.0261835,111.49752 93.0261835,111.143559 C93.0261835,110.789283 92.738984,110.502084 92.3850232,110.502084 L91.9028934,110.502084 L59.3429104,110.502084 L59.1432563,110.502084 Z" id="Fill-1889"></path>
                <path d="M59.0405321,149.033549 C58.6865714,149.033549 58.3993719,149.320748 58.3993719,149.675024 C58.3993719,150.028985 58.6865714,150.316184 59.0405321,150.316184 L59.3428474,150.316184 L91.9031453,150.316184 L92.4876215,150.316184 C92.8415822,150.316184 93.1287817,150.028985 93.1287817,149.675024 C93.1287817,149.320748 92.8415822,149.033549 92.4876215,149.033549 L91.9031453,149.033549 L59.3428474,149.033549 L59.0405321,149.033549 Z" id="Fill-1890"></path>
                <path d="M234.959985,27.5197578 C234.396922,27.7748363 231.8918,28.9412694 229.387936,30.5668437 C229.44777,30.5866831 229.512327,30.6080971 229.572475,30.6279366 C229.908171,30.7400451 230.09019,31.1025085 229.978396,31.4382044 C229.888331,31.7071391 229.638606,31.8775063 229.369357,31.8775063 C229.302595,31.8775063 229.233945,31.867744 229.166554,31.8441257 C228.782676,31.7162715 228.42966,31.5991243 228.066567,31.4781982 C227.701269,31.7439837 227.347308,32.0170122 227.004055,32.2985433 C227.036491,32.3089354 227.09349,32.3272002 227.107661,32.3319239 C227.445246,32.4405685 227.629784,32.8011424 227.52114,33.1387278 C227.433594,33.4108115 227.18135,33.5830682 226.910526,33.5830682 C226.845339,33.5830682 226.778893,33.572991 226.713391,33.5512621 C226.694496,33.5452788 226.381789,33.4441921 225.89525,33.2870512 C225.452485,33.7197399 225.05916,34.1621909 224.730077,34.6125146 C224.939808,34.7693407 225.043729,35.0417393 224.964686,35.306895 C224.881235,35.5855919 224.626786,35.7644617 224.350294,35.7644617 C224.288886,35.7644617 224.227163,35.7559591 224.165755,35.7376942 C224.161661,35.7364346 224.107812,35.7203741 224.085768,35.7140759 C223.750702,36.4525439 223.606787,37.1979399 223.790381,37.9323141 C223.798883,37.9660096 223.809905,38.0060034 223.822187,38.0510358 C222.528529,37.7991064 220.192514,37.1472391 218.070324,36.5561498 C211.703754,34.7816222 208.146826,33.9219132 206.311205,34.0091438 C206.408198,34.0560656 206.454805,34.0781094 206.456379,34.0790542 C206.777275,34.229582 206.913946,34.6118848 206.764048,34.932465 C206.680597,35.1094453 206.527235,35.2221837 206.353088,35.2694205 C206.415441,35.2659565 206.465827,35.2565091 206.537627,35.2565091 C208.634624,35.2565091 214.416718,36.8685422 217.725496,37.7921783 C221.306042,38.7910783 223.526484,39.3957088 224.55971,39.4360175 C224.784242,39.6999136 225.069237,39.9502684 225.427292,40.1439391 C226.259288,40.5917436 227.266376,40.6169365 228.418323,40.2173135 C228.631204,40.1423645 229.069561,39.955307 229.654982,39.7046373 C231.655301,38.8480774 236.342447,36.8181564 238.194443,37.0256832 C238.544625,37.0641024 238.862056,36.8033555 238.897011,36.4509693 C238.932911,36.0985831 238.675943,35.7843012 238.323557,35.749346 C236.131141,35.5087534 231.591059,37.4782113 229.149863,38.5252928 C228.603491,38.7592722 228.194421,38.9365676 227.996656,39.0049034 C227.19804,39.2823406 226.5383,39.2836003 226.036961,39.0149806 C225.302902,38.6191365 225.060105,37.721953 225.034912,37.6218111 C224.348404,34.8742063 231.083106,30.6849356 235.479274,28.6921742 C235.566505,28.6553295 244.096833,25.0461262 247.729025,30.0601507 C248.858299,31.6202234 249.244695,33.1922628 248.879083,34.7321811 C248.027876,38.3165064 243.448745,40.7255811 243.435204,40.7318793 C243.309239,40.7888783 230.745836,46.3678545 227.004999,46.3678545 C224.497672,46.3678545 215.718563,41.9880622 210.472764,39.3708308 C209.340656,38.8061941 208.324121,38.299816 207.496218,37.8973589 C206.063055,37.1991996 205.425044,36.6030717 205.855213,35.3786949 C205.916621,35.3371265 206.005741,35.3078397 206.11533,35.2883152 C206.046679,35.2807573 205.977084,35.2691056 205.910323,35.2382442 C205.910323,35.2382442 205.565809,35.0757498 204.792386,34.6953364 C204.767823,34.7413135 204.737591,34.7835117 204.718697,34.8342125 C203.72389,37.4863991 205.973935,38.5822919 206.935045,39.0499358 C207.760429,39.4508184 208.772555,39.9568815 209.899939,40.5180542 C217.434202,44.2765257 224.411072,47.6504899 227.004999,47.6504899 C231.015715,47.6504899 243.43111,42.13859 243.990708,41.8879202 C244.200439,41.7808503 249.135421,39.191961 250.125818,35.0326069 C250.583385,33.1119603 250.126763,31.1843856 248.767919,29.3087714 C244.532671,23.4589711 235.358663,27.3493906 234.959985,27.5197578" id="Fill-1891"></path>
                <path d="M206.115425,35.2882837 C206.196987,35.2971012 206.276344,35.2904881 206.353183,35.269389 C206.527329,35.2221523 206.680691,35.1094139 206.764143,34.9324335 C206.914041,34.6121682 206.777369,34.2295505 206.456474,34.0790227 C206.454899,34.078078 206.408292,34.0560341 206.3113,34.0091123 C206.0241,33.8714959 205.29508,33.5187947 203.982842,32.8631485 C201.945993,31.8440942 201.784444,31.4866694 202.22532,30.6046016 C202.765709,29.5238246 204.88475,30.0853122 206.150695,30.4244721 L206.421519,30.4959571 C208.315398,30.988479 223.210093,35.4517229 224.085547,35.7140444 C224.107906,35.7203426 224.161756,35.7364031 224.165535,35.7376627 C224.227258,35.7559276 224.28898,35.7644302 224.350073,35.7644302 C224.626566,35.7644302 224.881329,35.5855604 224.964466,35.3068635 C225.043509,35.0417078 224.939588,34.7696241 224.729857,34.6124832 C224.671598,34.5693402 224.608616,34.5306061 224.534611,34.5082474 C223.96777,34.338195 212.210226,30.8152776 208.013083,29.6088507 C208.022215,29.693562 208.019066,29.7918144 208.036071,29.8664485 C208.113539,30.2122216 207.897195,30.5548456 207.551737,30.6332586 C207.20313,30.703169 206.862395,30.4943825 206.784927,30.1470349 C206.723204,29.8730617 206.695492,29.579249 206.70116,29.2517408 C206.70116,29.2479619 206.70242,29.2457575 206.70242,29.2422935 L206.479777,29.1830901 C204.836253,28.7472523 202.086129,28.0172869 201.078097,30.0302026 C199.953232,32.2818215 201.869785,33.2404128 203.409703,34.0091123 C203.979063,34.2937925 204.428757,34.5164351 204.79248,34.6953049 C205.565904,35.0757183 205.910417,35.2382128 205.910417,35.2382128 C205.977178,35.2690741 206.046459,35.2807258 206.115425,35.2882837" id="Fill-1892"></path>
                <path d="M206.784895,30.1470034 C206.862364,30.4946659 207.203098,30.7034524 207.551705,30.6332271 C207.897164,30.5548141 208.113508,30.2121901 208.03604,29.866417 C208.019034,29.791783 208.022184,29.6938454 208.013051,29.6088192 C208.002029,29.4989151 207.98156,29.399088 207.984079,29.2737532 C207.990692,28.8690916 208.12453,28.7207682 208.224357,28.6439297 C208.67657,28.2962672 209.848357,28.3564153 211.707281,28.8224847 C213.135405,29.1786498 222.996866,32.3532749 225.895313,33.2873031 C226.381537,33.4444441 226.694559,33.5452158 226.713454,33.5515141 C226.778641,33.5729281 226.845402,33.5830052 226.910589,33.5830052 C227.181413,33.5830052 227.433342,33.4107485 227.521203,33.1386648 C227.629532,32.8013943 227.444994,32.4405055 227.107724,32.3318609 C227.093238,32.3271373 227.036554,32.3088724 227.004118,32.2984803 C226.216523,32.0430869 220.339956,30.144799 216.124862,28.8209101 C216.296804,28.9796256 216.384979,29.2195884 216.315699,29.4604958 C216.218706,29.8012303 215.86632,29.9964756 215.522121,29.8997977 C215.185795,29.8028049 214.931662,29.4888379 214.843486,29.0580386 C214.798139,28.8410645 214.81357,28.6291289 214.860492,28.4260108 C213.490626,28.0002501 212.429373,27.67967 212.018728,27.576379 C210.337415,27.158806 208.478491,26.8331873 207.443691,27.6264499 C207.114293,27.8777495 206.720338,28.3655478 206.702389,29.242262 C206.702389,29.245726 206.701129,29.2482453 206.701129,29.2517093 C206.69546,29.5792175 206.723173,29.8730302 206.784895,30.1470034" id="Fill-1893"></path>
                <path d="M214.843455,29.0580386 C214.93163,29.4888379 215.185764,29.8028049 215.52209,29.8997977 C215.866288,29.9964756 216.218674,29.8012303 216.315667,29.4604958 C216.385263,29.2195884 216.296773,28.9796256 216.124831,28.8209101 C216.111919,28.8092584 216.109085,28.7897338 216.095229,28.7790268 C216.089246,28.7358839 216.095229,28.6719569 216.157897,28.6203113 C216.890381,28.0172554 218.361964,28.421602 219.924556,28.8476776 C220.770094,29.0788228 223.656889,30.0119063 228.066598,31.4784502 C228.429692,31.5990614 228.782708,31.7162085 229.16627,31.8443776 C229.233976,31.8676811 229.302627,31.8774433 229.369388,31.8774433 C229.638323,31.8774433 229.888048,31.7070761 229.978427,31.4384564 C230.090221,31.1024456 229.908202,30.7399822 229.572191,30.6278736 C229.512358,30.6080342 229.447801,30.5866202 229.387968,30.5667807 C225.833244,29.381453 221.44369,27.9334889 220.255843,27.6097596 C218.372041,27.0939342 216.59153,26.6061359 215.345424,27.6283394 C215.088771,27.8390153 214.931,28.1199166 214.86046,28.4260108 C214.813538,28.6291289 214.798108,28.8410645 214.843455,29.0580386" id="Fill-1894"></path>
                <path d="M222.700566,1.45067236 C225.895975,1.45067236 227.002575,4.20489031 227.048552,4.32361203 L227.648144,5.86195581 L228.246161,4.32361203 C228.291193,4.20677978 229.399368,1.45067236 232.594777,1.45067236 C236.043375,1.45067236 237.879626,4.81487433 237.879626,7.24347356 C237.879626,13.3650426 229.330402,17.9737757 227.658221,18.8155348 C225.991078,17.9152021 217.414772,12.9994301 217.414772,7.241899 C217.414772,4.81298485 219.251337,1.45067236 222.700566,1.45067236 M227.358425,20.1082474 L227.635547,20.2483831 L227.917078,20.1164351 C228.37622,19.9048144 239.162576,14.8133216 239.162576,7.24347356 C239.162576,3.82573659 236.523616,0.168036897 232.594777,0.168036897 C229.920862,0.168036897 228.398263,1.67961318 227.647199,2.77172705 C226.897394,1.67961318 225.374796,0.168036897 222.700566,0.168036897 C218.771097,0.168036897 216.132137,3.82573659 216.132137,7.241899 C216.132137,14.3674066 226.899913,19.8780469 227.358425,20.1082474" id="Fill-1895"></path>
                <path d="M208.196172,117.134912 C208.340717,117.008317 208.525255,116.964545 208.701606,116.988163 C209.977628,110.226693 215.437567,104.904685 222.057642,103.495455 C222.643692,102.939636 223.292411,102.404916 224.081894,101.926565 C224.109607,101.909875 224.140153,101.907355 224.16881,101.894759 C215.994331,102.518599 208.923933,108.716377 207.427158,116.814332 C207.324182,117.37393 207.614845,117.92534 208.133505,118.153966 C208.174128,118.171916 208.216956,118.166878 208.25821,118.180104 L208.136339,118.040283 C207.902989,117.772923 207.929757,117.368891 208.196172,117.134912" id="Fill-1896"></path>
                <path d="M230.416816,116.573046 C228.998454,114.934876 227.361228,114.064775 225.520883,114.064775 C223.680224,114.064775 222.045833,114.934876 220.698955,116.574306 C220.854836,117.075961 220.977967,117.387408 220.98521,117.404099 C220.990878,117.41827 220.988989,117.432756 220.994027,117.447241 C220.998436,117.461727 221.009458,117.472434 221.013552,117.48755 L221.119047,117.886543 C221.159356,117.847494 221.213521,117.826395 221.248161,117.781363 C223.740373,114.550998 227.301394,114.550998 229.793606,117.781363 C229.840842,117.843085 229.914847,117.875836 229.97342,117.926537 L230.089308,117.48755 C230.093717,117.47149 230.105368,117.459523 230.111037,117.444092 C230.11576,117.430236 230.113556,117.416065 230.119539,117.402524 C230.145677,117.340171 230.267548,117.032188 230.416816,116.573046" id="Fill-1897"></path>
                <path d="M214.455043,114.064806 C212.314273,114.064806 209.983611,115.223366 208.729003,116.995375 C208.867879,117.019938 209.001402,117.080716 209.101543,117.195029 L209.608236,117.773836 C210.728377,116.323668 212.674532,115.347756 214.455043,115.347756 C216.235554,115.347756 218.186747,116.326817 219.309722,117.781394 C219.447653,117.961524 219.645733,118.075837 219.861762,118.152675 L219.78083,117.847526 C219.724461,117.705501 219.445764,116.963254 219.176199,115.832406 C217.83562,114.742181 216.08849,114.064806 214.455043,114.064806" id="Fill-1898"></path>
                <path d="M224.96308,102.142154 C225.146989,102.444469 225.049681,102.840313 224.746736,103.022332 C224.675251,103.06579 224.621401,103.116176 224.55212,103.159948 C224.87459,103.141369 225.195485,103.115861 225.520789,103.115861 C225.866562,103.115861 226.208241,103.141369 226.550865,103.162783 C226.479695,103.11712 226.424901,103.06579 226.351841,103.020757 C226.05047,102.835274 225.956942,102.43943 226.142425,102.13869 C226.222412,102.008001 226.345543,101.92455 226.479065,101.876998 C226.160375,101.859993 225.842944,101.833225 225.520789,101.833225 C225.217844,101.833225 224.918993,101.859048 224.618882,101.874164 C224.756813,101.921715 224.882148,102.008001 224.96308,102.142154" id="Fill-1899"></path>
                <path d="M229.041219,103.508524 C235.628227,104.932555 241.062344,110.222127 242.376471,116.896366 C241.014792,115.197418 238.705545,114.06468 236.587133,114.06468 C234.968172,114.06468 233.236158,114.728829 231.939666,115.801733 C231.667897,116.942658 231.383217,117.694982 231.322124,117.846455 L231.244341,118.139953 C231.434548,118.061225 231.60586,117.947542 231.732139,117.783158 C232.855429,116.326691 234.806623,115.347945 236.587133,115.347945 C238.370793,115.347945 240.321672,116.326691 241.441813,117.783158 C241.448741,117.79229 241.459763,117.797329 241.46732,117.806461 L242.002041,117.195218 C242.23665,116.927858 242.641311,116.90109 242.907412,117.135069 C243.173827,117.369049 243.200595,117.773081 242.967875,118.040441 L242.857341,118.166405 C242.874346,118.160107 242.891666,118.161052 242.908356,118.154124 C243.427016,117.925183 243.717365,117.373773 243.614703,116.8126 C242.122967,108.739523 235.089098,102.552137 226.944536,101.89838 C226.970989,101.910032 226.999646,101.912552 227.025154,101.928297 C227.811173,102.412631 228.456742,102.950501 229.041219,103.508524" id="Fill-1900"></path>
                <path d="M242.96778,118.040283 C243.2005,117.772923 243.173733,117.368891 242.907632,117.134912 C242.641217,116.901247 242.23687,116.928015 242.002261,117.19506 L241.467226,117.806619 L226.95074,134.391445 L231.244247,118.139795 L231.322345,117.846612 C231.315732,117.862358 231.301561,117.899203 231.300301,117.902037 C231.196695,118.145779 230.959566,118.292527 230.709841,118.292527 C230.62639,118.292527 230.541993,118.275837 230.460116,118.242771 C230.148354,118.109879 230.00192,117.759697 230.111194,117.44384 C230.105211,117.459586 230.093559,117.471238 230.08915,117.487613 L229.973263,117.9266 L225.551272,134.664473 L226.027104,136.464194 L226.841466,136.464194 L242.857246,118.166248 L242.96778,118.040283 Z" id="Fill-1901"></path>
                <path d="M226.142456,102.138784 C225.956973,102.439525 226.050502,102.835369 226.351872,103.020852 C226.424617,103.065569 226.479727,103.1169 226.550897,103.162877 C232.778906,107.180836 231.192696,114.182583 230.416753,116.573078 C230.2678,117.032219 230.145614,117.339888 230.119476,117.402555 C230.113493,117.416097 230.115697,117.430268 230.111289,117.444124 C230.002014,117.759665 230.148448,118.109847 230.460211,118.24274 C230.542088,118.275806 230.626169,118.292496 230.709936,118.292496 C230.959661,118.292496 231.196789,118.145747 231.300395,117.902005 C231.301655,117.899171 231.315826,117.862327 231.322124,117.846581 C231.383217,117.694794 231.667897,116.942784 231.939666,115.801859 C232.641289,112.85649 233.146093,107.428041 229.041219,103.50865 C228.456742,102.950312 227.811173,102.412442 227.025154,101.928423 C226.999646,101.912363 226.970989,101.909843 226.944536,101.898192 C226.791804,101.830171 226.62931,101.823872 226.479097,101.877092 C226.345574,101.924329 226.222444,102.008096 226.142456,102.138784" id="Fill-1902"></path>
                <path d="M222.057516,103.495581 C217.946658,107.394188 218.47382,112.882155 219.176388,115.832563 C219.445638,116.963411 219.72465,117.705343 219.781019,117.847368 L219.772516,117.814932 C219.682452,117.472623 219.886829,117.121812 220.229138,117.031432 C220.557591,116.945146 220.886044,117.133463 220.994059,117.44743 C220.988705,117.432944 220.99091,117.418144 220.985241,117.403973 C220.977998,117.387282 220.854868,117.075835 220.698987,116.57418 C219.952331,114.171719 218.408634,107.061642 224.552246,103.1602 C224.621527,103.116113 224.675377,103.065727 224.746862,103.022269 C225.049807,102.84025 225.147115,102.444406 224.963206,102.142091 C224.882274,102.007938 224.756624,101.921652 224.619008,101.874416 C224.473833,101.82466 224.317637,101.831588 224.168684,101.894885 C224.140027,101.907167 224.109795,101.910001 224.082083,101.926691 C223.292285,102.404727 222.643566,102.939447 222.057516,103.495581" id="Fill-1903"></path>
                <path d="M226.027136,136.464162 L225.551304,134.664442 L221.118921,117.886575 L221.013426,117.487582 C221.009332,117.472466 220.99831,117.461759 220.994216,117.447273 C220.886202,117.133306 220.557749,116.945304 220.229296,117.031589 C219.886987,117.121654 219.682609,117.472466 219.772674,117.814775 L219.780861,117.847526 L219.861794,118.15299 L224.152151,134.391413 L209.608268,117.773836 L209.101575,117.195344 C209.001433,117.080716 208.86791,117.019938 208.729034,116.995375 C208.719902,116.9938 208.711084,116.989391 208.701637,116.988132 C208.525287,116.964513 208.340748,117.008286 208.196204,117.134881 C207.929788,117.36886 207.903021,117.772892 208.136056,118.040252 L208.258241,118.180073 L224.26174,136.464162 L226.027136,136.464162 Z" id="Fill-1904"></path>
                <path d="M236.462586,139.584371 L236.462586,157.792567 C236.462586,158.806582 235.638147,159.630077 234.625076,159.630077 L226.162453,159.630077 L226.162453,159.803908 L224.879503,159.803908 L224.879503,159.630077 L216.41688,159.630077 C215.403809,159.630077 214.57937,158.806582 214.57937,157.792567 L214.57937,139.584371 C214.57937,138.570355 215.403809,137.747176 216.41688,137.747176 L224.879503,137.747176 L224.879503,137.339365 L226.162453,137.339365 L226.162453,137.747176 L234.625076,137.747176 C235.638147,137.747176 236.462586,138.570355 236.462586,139.584371 L236.462586,139.584371 Z M224.261646,136.464225 L216.41688,136.464225 C214.696517,136.464225 213.296735,137.864008 213.296735,139.584371 L213.296735,157.792567 C213.296735,159.513244 214.696517,160.913027 216.41688,160.913027 L234.625076,160.913027 C236.345754,160.913027 237.745221,159.513244 237.745221,157.792567 L237.745221,139.584371 C237.745221,137.864008 236.345754,136.464225 234.625076,136.464225 L226.841403,136.464225 L226.027041,136.464225 L224.261646,136.464225 Z" id="Fill-1905"></path>
                <polygon id="Fill-1906" points="226.162422 137.339365 224.879471 137.339365 224.879471 137.747176 224.879471 159.630077 224.879471 159.803908 226.162422 159.803908 226.162422 159.630077 226.162422 137.747176"></polygon>
                <path d="M146.09643,80.4827456 C146.22145,80.6077655 146.385204,80.6698032 146.549588,80.6698032 C146.714287,80.6698032 146.877726,80.6077655 147.003376,80.4827456 L161.50695,65.9791711 C161.757305,65.7285014 161.757305,65.3210056 161.50695,65.0706508 C161.256281,64.8199811 160.850674,64.8199811 160.600005,65.0706508 L146.549588,79.1213822 L141.408339,73.9801334 C141.15767,73.7297785 140.752063,73.7329277 140.501394,73.9801334 C140.251039,74.2304882 140.251039,74.637984 140.501394,74.8886537 L146.09643,80.4827456 Z" id="Fill-1907"></path>
                <path d="M150.571924,51.9281878 C161.903393,51.9281878 171.123063,61.1484882 171.123063,72.4802718 C171.123063,83.8117404 161.903393,93.0304663 150.571924,93.0304663 C139.240456,93.0304663 130.020785,83.8117404 130.020785,72.4802718 C130.020785,61.1484882 139.240456,51.9281878 150.571924,51.9281878 M150.571924,94.3134167 C162.610685,94.3134167 172.405699,84.5180874 172.405699,72.4802718 C172.405699,60.4402518 162.610685,50.6455524 150.571924,50.6455524 C138.533164,50.6455524 128.738149,60.4402518 128.738149,72.4802718 C128.738149,84.5180874 138.533164,94.3134167 150.571924,94.3134167" id="Fill-1908"></path>
                <path d="M139.374734,165.579956 C147.192732,165.579956 149.862869,172.313083 149.972143,172.600283 C150.067562,172.847489 150.30658,173.013132 150.57205,173.013132 L150.572995,173.013132 C150.838151,173.011243 151.077169,172.847489 151.171642,172.598708 C151.19841,172.528483 153.928694,165.579956 161.769051,165.579956 C170.10319,165.579956 174.542186,173.66437 174.542186,179.500629 C174.542186,194.369816 153.292887,205.277413 150.582757,206.605081 C147.886798,205.18042 126.602544,193.474521 126.602544,179.497165 C126.602544,173.662795 131.04154,165.579956 139.374734,165.579956 M150.282961,207.896219 C150.373971,207.941566 150.472538,207.96487 150.57205,207.96487 C150.664004,207.96487 150.756588,207.944715 150.841615,207.904721 C151.862243,207.431724 175.825136,196.121984 175.825136,179.500629 C175.825136,172.157832 170.17688,164.29732 161.769051,164.29732 C155.180153,164.29732 151.828233,168.736631 150.57205,170.936919 C149.316497,168.736631 145.967096,164.29732 139.374734,164.29732 C130.967221,164.29732 125.319594,172.156257 125.319594,179.497165 C125.319594,195.135051 149.263907,207.381653 150.282961,207.896219" id="Fill-1909"></path>
                <path d="M161.606148,171.429504 C164.461452,171.235833 167.230156,173.124989 168.300226,175.850865 C168.399423,176.104998 168.641905,176.25836 168.897299,176.25836 C168.974767,176.25836 169.054125,176.245134 169.131908,176.213328 C169.460991,176.084529 169.6238,175.712303 169.494371,175.383221 C168.229056,172.15632 164.942008,170.028147 161.552613,170.146869 C161.198652,170.161669 160.924049,170.460836 160.93885,170.814796 C160.953336,171.170647 161.250297,171.42604 161.606148,171.429504" id="Fill-1910"></path>
                <path d="M11.3935377,51.4087724 C4.89659392,51.4087724 1.55065683,55.7211736 0.254480166,57.9507486 L0.254480166,60.1066343 C0.494757813,60.0817563 0.708582875,59.9397311 0.796128334,59.7104753 C0.822895831,59.64025 3.5531805,52.6917228 11.3935377,52.6917228 C19.7276766,52.6917228 24.1666723,60.7761366 24.1666723,66.6120807 C24.1666723,81.4104126 3.12773475,92.2799057 0.254480166,93.6932295 L0.254480166,95.0637253 C0.325965128,95.0567973 0.39933956,95.0476648 0.466100846,95.0164886 C1.48672975,94.5438061 25.4496226,83.2340664 25.4496226,66.6120807 C25.4496226,59.2695989 19.801051,51.4087724 11.3935377,51.4087724" id="Fill-1911"></path>
                <path d="M17.924555,62.9626947 C18.0237522,63.2165136 18.2662342,63.3701905 18.5216276,63.3701905 C18.5994108,63.3701905 18.6787686,63.3566493 18.7565518,63.3248432 C19.0856345,63.1963592 19.248129,62.8241335 19.1187003,62.4950508 C17.853385,59.2678354 14.5663364,57.1399769 11.1769415,57.2583837 C10.8229807,57.2734995 10.5483776,57.5723507 10.5631785,57.9266264 C10.5776644,58.2824766 10.8746262,58.53787 11.2304764,58.5413341 C14.086096,58.3473484 16.8547999,60.2365039 17.924555,62.9626947" id="Fill-1912"></path>
                <path d="M300.866002,93.6933555 C300.85246,93.6999686 300.831991,93.7106756 300.81908,93.7169739 C298.123121,92.2919983 276.838552,80.5864145 276.838552,66.6087427 C276.838552,60.7743731 281.277548,52.6918488 289.611057,52.6918488 C297.429055,52.6918488 300.098877,59.4249764 300.208466,59.7121759 C300.303569,59.9593816 300.542587,60.1247102 300.808058,60.1247102 L300.808688,60.1247102 C300.829787,60.1247102 300.845847,60.1089646 300.866002,60.1067603 L300.866002,57.9508746 C300.847737,57.9826807 300.825693,58.0176359 300.808058,58.0484972 C299.55282,55.8485239 296.202789,51.4088984 289.611057,51.4088984 C281.203543,51.4088984 275.555916,59.2678354 275.555916,66.6087427 C275.555916,82.2466292 299.50023,94.4935462 300.518969,95.0081119 C300.610293,95.0531443 300.708546,95.0767627 300.808058,95.0767627 C300.827582,95.0767627 300.846477,95.0654259 300.866002,95.0638513 L300.866002,93.6933555 Z" id="Fill-1913"></path>
                <path d="M11.1311848,177.958695 C10.880515,177.70834 10.4749087,177.70834 10.224239,177.958695 L0.254448675,187.92943 L0.254448675,189.744896 L11.1311848,178.86753 C11.3818545,178.61686 11.3818545,178.209364 11.1311848,177.958695" id="Fill-1914"></path>
                <path d="M0.254448675,163.536714 L0.254448675,164.819349 C11.5588349,164.851155 20.7473292,174.05634 20.7473292,185.368284 C20.7473292,196.680543 11.5588349,205.884153 0.254448675,205.915645 L0.254448675,207.19828 C12.2664415,207.166789 22.0299647,197.38689 22.0299647,185.368284 C22.0299647,173.348104 12.2664415,163.56852 0.254448675,163.536714" id="Fill-1915"></path>
                <path d="M291.644694,186.868492 C291.394024,186.617822 290.988103,186.621287 290.737433,186.868492 C290.487078,187.119162 290.487078,187.526658 290.737433,187.777327 L296.332469,193.37079 C296.457489,193.496439 296.621558,193.558162 296.785942,193.558162 C296.950641,193.558162 297.11408,193.496439 297.239415,193.37079 L300.865939,189.744896 L300.865939,187.92943 L296.785942,192.009741 L291.644694,186.868492 Z" id="Fill-1916"></path>
                <path d="M300.866002,205.915739 C300.846477,205.915739 300.827582,205.918888 300.808058,205.918888 C289.476589,205.918888 280.257234,196.699847 280.257234,185.368379 C280.257234,174.03691 289.476589,164.81661 300.808058,164.81661 C300.827582,164.81661 300.846477,164.819444 300.866002,164.819444 L300.866002,163.536808 C300.846477,163.536808 300.827582,163.533659 300.808058,163.533659 C288.768983,163.533659 278.973968,173.328674 278.973968,185.368379 C278.973968,197.406509 288.768983,207.201524 300.808058,207.201524 C300.827582,207.201524 300.846477,207.198374 300.866002,207.198374 L300.866002,205.915739 Z" id="Fill-1917"></path>
            </g>
        </g>
    </g>
</svg>